<svg width="16" height="16" viewBox="0 0 16 16" fill="none" xmlns="http://www.w3.org/2000/svg">
<path d="M5.99998 2C6.1195 1.99997 6.23683 2.03207 6.33969 2.09294C6.44255 2.15381 6.52716 2.24121 6.58465 2.346L6.61865 2.41933L7.95198 5.75267C8.00568 5.88677 8.01437 6.03469 7.97674 6.17416C7.9391 6.31364 7.85718 6.43711 7.74331 6.526L7.67665 6.57133L6.56065 7.24067L6.60265 7.30933C7.13382 8.15266 7.84732 8.86616 8.69065 9.39733L8.75865 9.43867L9.42865 8.324C9.5029 8.20006 9.6154 8.10359 9.74923 8.04912C9.88305 7.99465 10.0309 7.98513 10.1706 8.022L10.2473 8.048L13.5806 9.38133C13.6916 9.42561 13.7887 9.49891 13.8616 9.59356C13.9346 9.68821 13.9808 9.80072 13.9953 9.91933L14 10V12.6667C14 13.7713 13.1046 14.6667 11.96 14.6653C6.24065 14.318 1.68131 9.75867 1.33331 4C1.33328 3.48986 1.5282 2.99899 1.87817 2.62783C2.22814 2.25666 2.70672 2.03326 3.21598 2.00333L3.33331 2H5.99998Z" fill="#F6BE31"/>
</svg>
