<svg width="15" height="14" viewBox="0 0 15 14" fill="none" xmlns="http://www.w3.org/2000/svg">
<path d="M0.666687 6.33337H3.33335V13.6667H0.666687V6.33337ZM10.6667 1.16671C11.1 0.660041 11.7734 0.333374 12.4667 0.333374C13.7 0.333374 14.6667 1.30004 14.6667 2.53337C14.6667 4.04671 12.7267 5.80004 10.6667 7.66671C8.60669 5.79337 6.66669 4.04004 6.66669 2.53337C6.66669 1.30004 7.63335 0.333374 8.86669 0.333374C9.56002 0.333374 10.2334 0.660041 10.6667 1.16671ZM14.6667 10.3334H8.66669L7.27335 9.84671L7.49335 9.21337L8.66669 9.66671H11.3334V8.33337L5.98002 6.33337H4.66669V12.3467L9.33335 13.6667L14.6667 11.6667V10.3334Z" fill="#F6BE31"/>
</svg>
