<svg width="318" height="320" viewBox="0 0 318 320" fill="none" xmlns="http://www.w3.org/2000/svg">
<rect x="10" width="298" height="320" rx="25" fill="#FCF1D5"/>
<g filter="url(#filter0_d_641_795)">
<path d="M30 40C30 34.4772 34.4772 30 40 30H278C283.523 30 288 34.4772 288 40V64C288 69.5228 283.523 74 278 74H40C34.4772 74 30 69.5228 30 64V40Z" fill="#F8CB4E"/>
</g>
<path d="M111.127 57H108.919L108.933 55.1543H111.127C111.583 55.1543 111.968 55.0449 112.282 54.8262C112.601 54.6074 112.843 54.2816 113.007 53.8486C113.176 53.4111 113.26 52.8734 113.26 52.2354V51.8047C113.26 51.3262 113.212 50.9069 113.116 50.5469C113.025 50.1823 112.889 49.8792 112.706 49.6377C112.524 49.3916 112.296 49.207 112.023 49.084C111.754 48.9609 111.444 48.8994 111.093 48.8994H108.878V47.0469H111.093C111.767 47.0469 112.385 47.1631 112.946 47.3955C113.511 47.6234 113.998 47.9515 114.408 48.3799C114.823 48.8037 115.142 49.3073 115.365 49.8906C115.593 50.4694 115.707 51.112 115.707 51.8184V52.2354C115.707 52.9372 115.593 53.5798 115.365 54.1631C115.142 54.7464 114.825 55.25 114.415 55.6738C114.005 56.0977 113.52 56.4258 112.959 56.6582C112.403 56.8861 111.793 57 111.127 57ZM110.293 47.0469V57H107.894V47.0469H110.293ZM125.208 55.1543V57H119.903V55.1543H125.208ZM120.758 47.0469V57H118.358V47.0469H120.758ZM124.524 50.998V52.7822H119.903V50.998H124.524ZM125.228 47.0469V48.8994H119.903V47.0469H125.228ZM132.719 54.3545C132.719 54.1995 132.696 54.0605 132.651 53.9375C132.605 53.8099 132.521 53.6914 132.398 53.582C132.275 53.4727 132.097 53.3633 131.865 53.2539C131.637 53.14 131.336 53.0215 130.962 52.8984C130.525 52.7526 130.103 52.5885 129.698 52.4062C129.292 52.2194 128.93 52.0029 128.611 51.7568C128.292 51.5062 128.039 51.2145 127.852 50.8818C127.665 50.5446 127.572 50.1527 127.572 49.7061C127.572 49.2777 127.667 48.8926 127.859 48.5508C128.05 48.2044 128.317 47.9105 128.659 47.6689C129.005 47.4229 129.411 47.236 129.875 47.1084C130.34 46.9762 130.848 46.9102 131.4 46.9102C132.129 46.9102 132.772 47.0378 133.328 47.293C133.888 47.5436 134.326 47.9014 134.64 48.3662C134.959 48.8265 135.119 49.3711 135.119 50H132.733C132.733 49.7493 132.68 49.5283 132.576 49.3369C132.475 49.1455 132.323 48.9951 132.118 48.8857C131.913 48.7764 131.655 48.7217 131.345 48.7217C131.044 48.7217 130.791 48.7673 130.586 48.8584C130.381 48.9495 130.226 49.0726 130.122 49.2275C130.017 49.3779 129.964 49.5443 129.964 49.7266C129.964 49.877 130.005 50.0137 130.087 50.1367C130.174 50.2552 130.295 50.3669 130.45 50.4717C130.609 50.5765 130.801 50.6768 131.024 50.7725C131.252 50.8682 131.507 50.9616 131.789 51.0527C132.318 51.2214 132.788 51.4105 133.198 51.6201C133.612 51.8252 133.961 52.0599 134.244 52.3242C134.531 52.584 134.747 52.8802 134.893 53.2129C135.043 53.5456 135.119 53.9215 135.119 54.3408C135.119 54.7874 135.032 55.1839 134.859 55.5303C134.686 55.8766 134.437 56.1706 134.114 56.4121C133.79 56.6491 133.403 56.8291 132.952 56.9521C132.5 57.0752 131.997 57.1367 131.441 57.1367C130.93 57.1367 130.427 57.0729 129.93 56.9453C129.438 56.8132 128.991 56.6126 128.59 56.3438C128.189 56.0703 127.868 55.7217 127.626 55.2979C127.389 54.8695 127.271 54.3613 127.271 53.7734H129.677C129.677 54.0651 129.716 54.3112 129.793 54.5117C129.871 54.7122 129.985 54.874 130.135 54.9971C130.286 55.1156 130.47 55.2021 130.689 55.2568C130.908 55.307 131.158 55.332 131.441 55.332C131.746 55.332 131.992 55.2887 132.179 55.2021C132.366 55.111 132.503 54.9925 132.589 54.8467C132.676 54.6963 132.719 54.5322 132.719 54.3545ZM142.575 47.0469V57H140.176V47.0469H142.575ZM145.569 47.0469V48.8994H137.25V47.0469H145.569ZM154.838 55.1543V57H149.533V55.1543H154.838ZM150.387 47.0469V57H147.988V47.0469H150.387ZM154.154 50.998V52.7822H149.533V50.998H154.154ZM154.858 47.0469V48.8994H149.533V47.0469H154.858ZM159.621 47.0469V57H157.222V47.0469H159.621ZM165.562 47.0469L161.706 52.0918L159.45 54.5596L159.013 52.3584L160.455 50.1709L162.602 47.0469H165.562ZM162.725 57L160.155 52.5156L162.021 51.1416L165.562 57H162.725ZM175.013 47.0469V57H172.621V47.0469H175.013ZM172.668 45.3037C172.668 45.0075 172.773 44.766 172.983 44.5791C173.197 44.3923 173.47 44.2988 173.803 44.2988C174.14 44.2988 174.414 44.3923 174.623 44.5791C174.833 44.766 174.938 45.0075 174.938 45.3037C174.938 45.5954 174.833 45.8346 174.623 46.0215C174.414 46.2083 174.14 46.3018 173.803 46.3018C173.47 46.3018 173.197 46.2083 172.983 46.0215C172.773 45.8346 172.668 45.5954 172.668 45.3037ZM183.229 54.3545C183.229 54.1995 183.206 54.0605 183.16 53.9375C183.115 53.8099 183.03 53.6914 182.907 53.582C182.784 53.4727 182.606 53.3633 182.374 53.2539C182.146 53.14 181.845 53.0215 181.472 52.8984C181.034 52.7526 180.613 52.5885 180.207 52.4062C179.801 52.2194 179.439 52.0029 179.12 51.7568C178.801 51.5062 178.548 51.2145 178.361 50.8818C178.175 50.5446 178.081 50.1527 178.081 49.7061C178.081 49.2777 178.177 48.8926 178.368 48.5508C178.56 48.2044 178.826 47.9105 179.168 47.6689C179.514 47.4229 179.92 47.236 180.385 47.1084C180.85 46.9762 181.358 46.9102 181.909 46.9102C182.638 46.9102 183.281 47.0378 183.837 47.293C184.397 47.5436 184.835 47.9014 185.149 48.3662C185.468 48.8265 185.628 49.3711 185.628 50H183.242C183.242 49.7493 183.19 49.5283 183.085 49.3369C182.985 49.1455 182.832 48.9951 182.627 48.8857C182.422 48.7764 182.164 48.7217 181.855 48.7217C181.554 48.7217 181.301 48.7673 181.096 48.8584C180.891 48.9495 180.736 49.0726 180.631 49.2275C180.526 49.3779 180.474 49.5443 180.474 49.7266C180.474 49.877 180.515 50.0137 180.597 50.1367C180.683 50.2552 180.804 50.3669 180.959 50.4717C181.119 50.5765 181.31 50.6768 181.533 50.7725C181.761 50.8682 182.016 50.9616 182.299 51.0527C182.828 51.2214 183.297 51.4105 183.707 51.6201C184.122 51.8252 184.47 52.0599 184.753 52.3242C185.04 52.584 185.257 52.8802 185.402 53.2129C185.553 53.5456 185.628 53.9215 185.628 54.3408C185.628 54.7874 185.541 55.1839 185.368 55.5303C185.195 55.8766 184.947 56.1706 184.623 56.4121C184.3 56.6491 183.912 56.8291 183.461 56.9521C183.01 57.0752 182.506 57.1367 181.95 57.1367C181.44 57.1367 180.936 57.0729 180.439 56.9453C179.947 56.8132 179.501 56.6126 179.1 56.3438C178.699 56.0703 178.377 55.7217 178.136 55.2979C177.899 54.8695 177.78 54.3613 177.78 53.7734H180.187C180.187 54.0651 180.225 54.3112 180.303 54.5117C180.38 54.7122 180.494 54.874 180.645 54.9971C180.795 55.1156 180.98 55.2021 181.198 55.2568C181.417 55.307 181.668 55.332 181.95 55.332C182.256 55.332 182.502 55.2887 182.689 55.2021C182.875 55.111 183.012 54.9925 183.099 54.8467C183.185 54.6963 183.229 54.5322 183.229 54.3545ZM193.085 47.0469V57H190.685V47.0469H193.085ZM196.079 47.0469V48.8994H187.759V47.0469H196.079ZM205.347 55.1543V57H200.042V55.1543H205.347ZM200.897 47.0469V57H198.497V47.0469H200.897ZM204.663 50.998V52.7822H200.042V50.998H204.663ZM205.367 47.0469V48.8994H200.042V47.0469H205.367Z" fill="#000C5C"/>
<path d="M260.522 281.487C253.125 283.99 244.117 284.669 236.962 284.146C236.962 284.146 105.414 297.54 57.8637 283.808C22.6713 273.646 26.9201 237.469 37.6898 214.313C48.5828 190.893 19.989 145.623 65.9532 119.372C92.391 104.272 116.104 128.435 161.808 110.597C203.072 94.4922 256.299 108.897 269.316 142.673C278.269 165.908 266.981 190.955 278.269 203.095C296.576 222.784 288.157 272.134 260.522 281.487Z" fill="#DAE6FF"/>
<path d="M222.243 262.834C222.243 269.158 183.272 274.284 135.198 274.284C87.1246 274.284 48.1548 269.158 48.1548 262.834C48.1548 256.511 87.1257 251.386 135.198 251.386C183.271 251.386 222.243 256.512 222.243 262.834Z" fill="#C1CFEA"/>
<path d="M128.301 206.17C118.547 192.779 105.679 209.195 105.679 209.195C105.679 209.195 92.8098 192.779 83.0565 206.17C73.3032 219.562 105.679 245.337 105.679 245.337C105.679 245.337 138.054 219.562 128.301 206.17Z" fill="#FF6760"/>
<path d="M179.237 149.196C179.237 149.196 182.177 158.141 181.301 161.251C180.423 164.36 176.768 173.025 176.965 176.487C177.026 177.564 178.056 185.901 179.803 187.276C180.986 188.205 184.21 185.584 183.762 181.333C182.984 173.946 185.592 170.047 187.107 167.181C189.689 162.293 190.828 159.321 190.557 161.84C190.557 161.84 188.646 169.44 188.549 172.861C188.522 173.785 189.5 181.05 191.24 181.962C192.182 182.454 195.511 181.173 195.14 174.574C194.897 170.237 197.5 167.8 199.527 165.126C201.282 162.812 209.056 157.436 209.056 157.436L200.683 148.509L179.237 149.198V149.196Z" fill="#E96F5F"/>
<path d="M261.918 165.855C258.827 164.614 228.157 172.778 226.031 174.323C220.763 178.151 205.347 180.221 192.992 179.801C186.254 179.575 177.991 181.335 174.846 182.197C172.37 182.876 162.799 186.623 160.66 185.861C159.4 185.411 158.997 180.519 159.872 178.576C161.743 174.41 167.349 171.655 177.025 168.362C186.244 165.226 191.943 157.365 186.501 156.161C172.154 152.989 161.36 181.889 154.666 180.134C152.867 179.662 154.531 172.848 156.657 167.111C157.53 164.751 164.633 150.938 168.958 145.83C171.664 142.634 193.074 125.602 203.006 123.382C207.578 122.359 237.684 132.408 238.569 132.848L238.572 132.85C244.121 132.622 255.817 126.36 256.565 126.536C258.191 142.273 263.81 154.165 261.918 165.855Z" fill="#FFA089"/>
<path d="M87.4426 189.213C88.7408 189.462 90.0286 189.871 91.3008 190.437C92.7876 188.171 94.4483 186.288 96.2718 184.8C93.719 185.688 91.2936 186.815 89.0972 188.143C88.5325 188.484 87.9803 188.841 87.4416 189.213H87.4426ZM80.2048 196.018C81.1331 195.517 82.0904 195.073 83.0757 194.686C85.2027 193.851 87.4509 193.283 89.7913 192.981C89.9105 192.759 90.0317 192.539 90.1539 192.322C90.3881 191.907 90.6274 191.503 90.8719 191.11C89.4391 190.486 87.9886 190.071 86.5267 189.866C84.1376 191.631 82.022 193.69 80.2037 196.019L80.2048 196.018ZM80.7881 190.133C76.9599 193.307 72.6375 198.113 70.5633 204.689C71.301 203.655 72.0801 202.685 72.8986 201.783C74.5998 199.908 76.4812 198.311 78.5243 197.005C78.5336 196.992 78.543 196.979 78.5523 196.965C80.4679 194.218 82.7597 191.801 85.3923 189.747C84.3842 189.68 83.3709 189.713 82.3566 189.847C81.8334 189.914 81.3102 190.011 80.787 190.132L80.7881 190.133ZM101.973 182.451C103.142 182.226 104.319 182.049 105.496 181.926C106.948 181.772 108.395 181.698 109.826 181.7C107.148 181.317 104.466 181.575 101.973 182.451ZM92.2809 192.765C92.5327 192.621 92.7876 192.482 93.0455 192.344C93.0808 192.326 93.116 192.307 93.1512 192.287C92.858 192.111 92.5627 191.943 92.2675 191.786C92.0364 191.662 91.8054 191.544 91.5733 191.432C91.2801 191.903 90.9962 192.385 90.7238 192.876C91.2387 192.826 91.7577 192.789 92.2809 192.764V192.765ZM90.2679 193.724C90.1923 193.868 90.1177 194.015 90.0441 194.161C90.2876 193.994 90.5342 193.83 90.7849 193.668C90.6119 193.684 90.4399 193.703 90.2679 193.723V193.724ZM75.0411 192.549C74.6215 193.232 74.2154 193.936 73.8238 194.661C71.8314 198.346 70.2121 202.527 68.9958 207.088C69.0807 206.945 69.1667 206.804 69.2527 206.664C69.6734 204.792 70.2898 202.965 71.1021 201.189C72.8747 197.313 75.5146 193.786 78.976 190.662C77.652 191.125 76.3351 191.757 75.0411 192.548V192.549ZM93.9676 191.872C97.5492 190.105 101.455 188.968 105.155 188.618C107.073 187.06 109.153 185.462 111.429 183.821C112.027 183.391 112.625 183.001 113.22 182.653C110.72 182.425 108.156 182.445 105.569 182.717C103.238 182.964 100.908 183.417 98.6485 184.054C96.0024 185.699 93.8122 188.025 92.0002 190.767C92.2022 190.867 92.4042 190.971 92.6062 191.079C93.0621 191.324 93.5149 191.588 93.9666 191.873L93.9676 191.872ZM114.464 181.987C116.012 181.233 117.55 180.758 119.071 180.569C115.327 179.45 110.72 179.143 105.706 179.734C97.7471 180.67 89.5385 183.792 83.1834 188.297C82.8374 188.542 82.481 188.804 82.1163 189.08C82.166 189.074 82.2157 189.066 82.2655 189.06C83.6279 188.882 84.9872 188.875 86.3361 189.041C87.1059 188.482 87.9016 187.955 88.7252 187.456C91.621 185.702 94.9114 184.296 98.3625 183.314C99.0028 182.92 99.6597 182.57 100.334 182.263C103.411 180.864 106.836 180.414 110.242 180.962C111.454 181.157 112.657 181.481 113.791 181.91C114.016 181.933 114.241 181.96 114.465 181.987H114.464ZM95.2741 192.759C96.7566 192.822 98.2672 192.98 99.7975 193.235C101.117 192.028 102.521 190.798 104.027 189.545C101.012 189.966 97.8041 190.915 94.7312 192.376C94.9125 192.501 95.0928 192.628 95.273 192.759H95.2741ZM96.394 193.621C96.9141 194.042 97.4301 194.492 97.9429 194.971C98.3066 194.623 98.6775 194.273 99.0546 193.922C98.1595 193.788 97.2716 193.688 96.394 193.622V193.621ZM83.3285 202.294C84.2764 202.003 85.2255 201.911 86.1714 202.016C86.735 200.116 87.3607 198.335 88.0487 196.676C86.62 197.906 85.384 199.243 84.3759 200.656C83.9926 201.194 83.6434 201.739 83.3274 202.293L83.3285 202.294ZM100.761 193.408C101.508 193.552 102.26 193.717 103.016 193.906C104.995 191.951 107.067 190.436 109.222 189.368C108.032 189.266 106.762 189.272 105.444 189.386C103.766 190.754 102.212 192.093 100.761 193.408ZM98.5045 195.506C99.0442 196.033 99.5788 196.591 100.108 197.181C100.847 196.241 101.601 195.369 102.369 194.565C101.583 194.379 100.801 194.217 100.025 194.081C99.5063 194.559 98.9987 195.036 98.5034 195.507L98.5045 195.506ZM86.9339 202.144C87.6964 202.316 88.4558 202.617 89.2091 203.046C89.4225 203.169 89.6359 203.301 89.8493 203.444C92.1328 200.867 94.5675 198.237 97.3845 195.509C96.6064 194.787 95.8211 194.132 95.0265 193.544C94.1696 193.514 93.3232 193.516 92.4871 193.551C91.3713 194.191 90.3207 194.888 89.3417 195.63C88.3989 197.704 87.6042 199.901 86.9329 202.143L86.9339 202.144ZM110.628 188.742C111.084 188.56 111.543 188.398 112.005 188.256C114.392 187.52 116.829 187.306 119.295 187.614C118.702 186.245 118.022 185.255 117.264 184.678C116.401 184.02 115.387 183.439 114.284 182.962C113.477 183.387 112.667 183.893 111.855 184.478C109.941 185.858 108.169 187.204 106.514 188.525C107.985 188.463 109.365 188.537 110.628 188.742ZM86.7101 202.909C86.1693 204.807 85.7134 206.731 85.3322 208.635C85.6098 208.314 85.8885 207.992 86.1683 207.668C87.2074 206.466 88.2517 205.256 89.3272 204.035C89.1686 203.932 89.0112 203.836 88.8527 203.746C88.143 203.341 87.4281 203.062 86.7111 202.909H86.7101ZM115.938 182.197C118.904 182.682 121.759 183.519 124.426 184.698C125.36 185.111 126.271 185.564 127.157 186.057C126.486 185.019 125.622 184.086 124.567 183.27C123.561 182.492 122.387 181.827 121.075 181.28C119.392 181.206 117.674 181.514 115.938 182.197ZM82.7783 203.335C81.5102 205.946 80.9746 208.719 81.1818 211.613C81.217 212.101 81.2864 212.602 81.39 213.112C82.3888 212.008 83.3647 210.899 84.3396 209.778C84.7934 207.302 85.3291 204.973 85.9445 202.794C84.9426 202.707 83.9377 202.866 82.9358 203.27C82.8819 203.291 82.8291 203.313 82.7762 203.335H82.7783ZM90.4782 203.896C91.6375 204.786 92.7855 205.985 93.9189 207.487C95.1311 204.805 96.5577 202.245 98.1947 199.814C98.6661 199.113 99.1447 198.443 99.6296 197.801C99.0733 197.181 98.5117 196.594 97.946 196.043C95.156 198.742 92.7409 201.346 90.4782 203.896ZM81.4843 203.983C76.4988 206.91 75.1375 213.171 75.986 218.721C77.6924 217.077 79.262 215.44 80.7715 213.792C80.5954 213.067 80.4814 212.36 80.4317 211.673C80.2369 208.952 80.6648 206.335 81.7081 203.855C81.6324 203.897 81.5568 203.94 81.4833 203.983H81.4843ZM111.684 196.303C112.762 195.671 113.885 195.21 115.048 194.923C115.797 194.739 116.562 194.629 117.337 194.594C117.121 193.541 116.665 192.577 115.85 191.832C114.591 190.681 112.811 189.928 110.707 189.561C108.338 190.537 106.06 192.066 103.892 194.135C104.844 194.394 105.801 194.687 106.765 195.017C108.204 195.51 109.632 196.075 111.039 196.706C111.252 196.565 111.467 196.432 111.684 196.303ZM79.0413 197.606C76.5962 201.16 74.7914 205.268 73.6756 209.821C72.7318 213.669 72.2873 217.784 72.3391 222.075C72.4914 221.931 72.6468 221.79 72.8043 221.652C73.6818 220.881 74.52 220.115 75.3281 219.351C74.2009 212.999 75.8503 205.582 82.2385 202.711C82.6747 201.849 83.1876 201.004 83.776 200.179C85.0835 198.346 86.7598 196.637 88.7304 195.119C88.9304 194.686 89.1345 194.261 89.3437 193.848C87.2551 194.155 85.2462 194.684 83.3388 195.433C81.8376 196.022 80.4037 196.749 79.0423 197.608L79.0413 197.606ZM100.624 197.765C101.464 198.736 102.292 199.784 103.106 200.909C103.72 201.757 104.314 202.624 104.887 203.503C105.203 202.996 105.544 202.476 105.91 201.945C107.257 199.991 108.721 198.419 110.289 197.235C109.05 196.693 107.796 196.204 106.533 195.772C105.426 195.394 104.327 195.063 103.236 194.78C102.346 195.684 101.476 196.679 100.624 197.766V197.765ZM69.9489 206.992C69.1097 210.821 69.0403 215.187 70.1955 220.112C70.4639 221.255 70.7685 222.337 71.1114 223.355C71.2709 223.171 71.4336 222.991 71.6004 222.814C71.4864 218.189 71.933 213.757 72.9473 209.621C73.9243 205.636 75.4203 201.982 77.4023 198.73C75.9901 199.78 74.6681 200.982 73.4415 202.334C72.1785 203.726 71.013 205.282 69.9489 206.992ZM118.102 194.583C119.11 194.601 120.133 194.742 121.16 195.005C121.152 194.957 121.145 194.909 121.138 194.86C120.759 192.294 120.251 190.147 119.632 188.46C117.119 188.084 114.639 188.269 112.215 189.017C112.177 189.029 112.139 189.04 112.1 189.053C113.819 189.508 115.259 190.242 116.342 191.231C117.26 192.07 117.848 193.199 118.102 194.583ZM94.438 208.186C95.3155 207.729 96.2687 207.323 97.2871 206.976C99.3333 206.28 101.498 205.884 103.579 205.815C103.838 205.301 104.128 204.772 104.446 204.23C103.826 203.265 103.179 202.319 102.508 201.392C101.732 200.32 100.944 199.318 100.145 198.389C99.6918 198.992 99.2452 199.62 98.8049 200.274C97.1213 202.775 95.6636 205.415 94.4369 208.186H94.438ZM81.6076 214.021C81.9515 215.28 82.4893 216.594 83.2041 217.942C83.2849 217.07 83.3844 216.17 83.5015 215.243C83.6745 213.873 83.8682 212.538 84.0848 211.243C83.2684 212.175 82.4468 213.1 81.6076 214.021ZM71.4077 224.197C71.4999 224.447 71.5942 224.693 71.6916 224.935C71.6709 224.597 71.6532 224.26 71.6387 223.924C71.561 224.013 71.4844 224.105 71.4077 224.197ZM120.158 187.742C121.704 188.01 123.26 188.482 124.82 189.158C126.25 189.776 127.609 190.544 128.868 191.398C128.77 189.947 128.442 188.606 127.886 187.386C126.683 186.656 125.432 186.003 124.136 185.431C121.641 184.329 118.98 183.531 116.214 183.048C116.745 183.352 117.244 183.682 117.703 184.032C118.446 184.6 119.336 185.682 120.158 187.742ZM104.438 205.805C104.78 205.81 105.119 205.822 105.453 205.844C105.274 205.546 105.092 205.249 104.907 204.955C104.741 205.243 104.586 205.526 104.438 205.805ZM111.886 197.095C113.627 197.916 115.332 198.836 116.984 199.848C117.339 198.476 117.596 196.876 117.453 195.384C116.695 195.412 115.948 195.516 115.219 195.696C114.066 195.98 112.954 196.448 111.886 197.095ZM68.3027 209.925C67.3847 214.042 66.7786 218.43 66.5072 223.01C66.3673 225.374 66.5828 227.916 67.133 230.559C67.9287 228.102 69.0807 225.904 70.5478 224.039C70.1385 222.874 69.778 221.629 69.4672 220.304C68.542 216.356 68.3369 212.538 68.8507 208.883C68.6653 209.225 68.4829 209.572 68.3037 209.925H68.3027ZM128.474 186.829C130.882 188.316 133.101 190.112 135.118 192.204C133.307 189.099 131.245 186.515 129.068 184.684C127.32 183.213 125.502 182.213 123.637 181.691C124.123 181.984 124.581 182.297 125.011 182.629C126.541 183.812 127.698 185.22 128.474 186.828V186.829ZM83.776 220.399C83.7325 221.172 83.7056 221.922 83.6942 222.648C84.0682 222.413 84.4495 222.182 84.84 221.952C84.4629 221.433 84.1086 220.915 83.776 220.399ZM85.501 221.571C86.5961 220.95 87.7544 220.349 88.9739 219.767C88.2631 218.434 88.0331 216.854 88.3232 215.123C88.718 212.768 90.5507 210.518 93.347 208.802C93.4195 208.63 93.4931 208.459 93.5667 208.287C92.3762 206.664 91.1734 205.393 89.9623 204.479C88.8589 205.731 87.7876 206.972 86.7236 208.203C86.161 208.855 85.6026 209.501 85.0441 210.144C84.7209 211.919 84.4598 213.666 84.2474 215.348C84.0827 216.653 83.9553 217.906 83.8631 219.107C84.349 219.919 84.896 220.743 85.5021 221.571H85.501ZM89.6587 219.445C89.8193 219.372 89.9788 219.299 90.1415 219.225C90.7942 216.05 91.6925 212.994 92.8331 210.071C90.7341 211.566 89.3779 213.384 89.064 215.263C88.7988 216.848 89.0039 218.259 89.6597 219.445H89.6587ZM76.1487 219.64C76.2181 219.988 76.2968 220.334 76.3838 220.675C76.8915 222.663 77.711 224.604 78.8103 226.271C80.038 225.182 81.4118 224.137 82.9306 223.137C82.9389 221.923 82.9928 220.64 83.0922 219.286C82.167 217.703 81.4667 216.155 81.0139 214.67C79.4847 216.329 77.8882 217.979 76.1487 219.64ZM73.5917 193.509C72.2562 194.461 70.9498 195.585 69.6868 196.872C66.1135 200.515 62.9608 205.432 60.8079 210.719C58.8125 215.62 58.8436 222.477 60.8939 230.028C61.4648 232.128 62.1827 234.238 63.024 236.313C62.6334 234.643 62.4107 232.888 62.3568 231.056C62.2159 226.282 63.2209 220.854 65.3427 214.922C66.012 213.053 66.7631 211.29 67.594 209.639C68.8746 203.934 70.7519 198.742 73.1711 194.267C73.3088 194.012 73.4487 193.759 73.5907 193.508L73.5917 193.509ZM121.952 195.232C122.808 195.502 123.663 195.857 124.511 196.295C125.653 196.884 126.77 197.613 127.841 198.463C127.953 198.025 128.072 197.581 128.197 197.13C128.662 195.443 128.895 193.85 128.899 192.363C127.647 191.476 126.189 190.609 124.536 189.894C123.179 189.306 121.826 188.878 120.48 188.609C121.012 190.151 121.5 192.15 121.882 194.738C121.906 194.901 121.929 195.065 121.952 195.232ZM87.9078 221.871C88.5076 221.518 89.1241 221.199 89.7561 220.915C89.6255 220.761 89.5023 220.603 89.3872 220.441C88.1885 221.008 87.0499 221.596 85.9735 222.202C86.1299 222.406 86.2884 222.61 86.4521 222.814C86.9235 222.477 87.4094 222.163 87.9078 221.871ZM90.9911 218.849C92.4861 218.198 94.066 217.574 95.7279 216.977C96.5111 216.697 97.2871 216.442 98.0569 216.213C96.7919 213.457 95.5082 211.117 94.2101 209.2C94.1189 209.251 94.0287 209.304 93.9386 209.356C92.6871 212.376 91.7039 215.545 90.9921 218.849H90.9911ZM83.689 223.575C83.6911 224.121 83.7025 224.652 83.7242 225.169C84.3852 224.482 85.0939 223.848 85.8409 223.269C85.6596 223.04 85.4824 222.812 85.3094 222.583C84.7509 222.909 84.2122 223.239 83.689 223.575ZM72.6054 226.956C73.2902 228.304 74.0641 229.497 74.9261 230.528C75.8586 229.231 76.964 227.986 78.2394 226.792C77.107 225.098 76.2201 223.079 75.6586 220.882C75.6047 220.672 75.554 220.46 75.5073 220.247C74.7925 220.916 74.0538 221.588 73.285 222.263C72.967 222.542 72.6603 222.833 72.3629 223.137C72.4013 224.397 72.4821 225.669 72.6054 226.956ZM117.658 200.264C119.095 201.172 120.489 202.146 121.829 203.18C121.75 200.579 121.568 198.104 121.278 195.856C120.247 195.568 119.221 195.409 118.211 195.38C118.333 196.785 118.153 198.413 117.664 200.238C117.662 200.246 117.66 200.255 117.658 200.264ZM106.396 205.931C109.072 206.255 111.374 207.185 113.126 208.644C114.784 205.8 116.043 203.054 116.768 200.631C114.942 199.506 113.047 198.49 111.113 197.603C109.465 198.763 107.929 200.37 106.52 202.413C106.093 203.031 105.703 203.632 105.347 204.216C105.705 204.782 106.055 205.354 106.396 205.931ZM98.7925 216.002C100.09 215.641 101.366 215.357 102.621 215.148C102.402 214.707 102.228 214.244 102.102 213.755C101.584 211.736 101.94 209.38 103.193 206.628C101.309 206.729 99.3654 207.104 97.5202 207.733C96.5784 208.053 95.6957 208.425 94.8824 208.84C96.2065 210.809 97.5119 213.199 98.7925 216.002ZM72.8229 228.903C72.9897 230.218 73.2001 231.546 73.4539 232.881C73.7626 232.307 74.1025 231.74 74.4734 231.183C73.8839 230.492 73.3337 229.732 72.824 228.903H72.8229ZM79.2578 226.91C79.7717 227.608 80.3395 228.249 80.9569 228.81C81.4574 227.96 82.023 227.147 82.6509 226.377C82.7669 226.236 82.885 226.095 83.0042 225.957C82.9669 225.349 82.9441 224.721 82.9358 224.071C81.5869 224.98 80.3602 225.927 79.2578 226.91ZM67.4811 232.06C67.91 233.762 68.4726 235.499 69.1636 237.254C69.7956 235.77 70.7167 234.828 71.9112 234.448C72.1878 234.36 72.4769 234.303 72.7753 234.273C72.8167 234.178 72.8602 234.083 72.9038 233.987C72.4355 231.694 72.0925 229.425 71.8729 227.191C71.5113 226.466 71.1746 225.7 70.8627 224.892C69.3439 226.923 68.198 229.344 67.4801 232.06H67.4811ZM106.903 206.804C108.098 208.902 109.177 211.068 110.13 213.277C111.068 211.957 111.937 210.631 112.725 209.321C111.203 208.033 109.217 207.173 106.903 206.804ZM90.6543 220.539C91.5049 220.207 92.3773 219.938 93.2672 219.735C95.4119 219.246 97.5554 219.187 99.496 219.547C99.1282 218.643 98.7583 217.773 98.3864 216.941C97.5886 217.175 96.7836 217.438 95.9703 217.729C94.1427 218.385 92.4177 219.074 90.7963 219.795C90.7476 220.042 90.6999 220.289 90.6533 220.539H90.6543ZM86.9474 223.421C87.6291 224.244 88.3657 225.069 89.1552 225.892C89.2339 225.042 89.3303 224.195 89.4442 223.355C89.5137 222.842 89.5882 222.332 89.6701 221.823C88.7221 222.277 87.8114 222.811 86.9484 223.421H86.9474ZM103.418 215.024C105.355 214.747 107.238 214.652 109.067 214.737C109.251 214.491 109.434 214.243 109.614 213.997C108.553 211.49 107.328 209.043 105.953 206.681C105.33 206.62 104.691 206.594 104.041 206.6C102.732 209.331 102.335 211.625 102.828 213.547C102.962 214.069 103.161 214.56 103.417 215.024H103.418ZM81.5485 229.312C82.1992 229.826 82.8995 230.256 83.6465 230.583C83.3937 229.505 83.2093 228.33 83.0902 227.058C82.5193 227.773 82.0054 228.526 81.5485 229.312ZM75.4472 231.119C75.8617 231.566 76.2947 231.979 76.7465 232.358C77.4126 232.916 78.1234 233.401 78.8766 233.813C79.2806 232.297 79.8473 230.854 80.5715 229.499C80.498 229.434 80.4244 229.368 80.3519 229.3C79.7593 228.747 79.2029 228.121 78.6911 227.43C77.4375 228.608 76.3548 229.839 75.4472 231.119ZM103.89 215.761C104.523 216.632 105.368 217.409 106.36 218.123C107.091 217.264 107.799 216.391 108.478 215.511C106.987 215.472 105.456 215.555 103.89 215.761ZM66.9434 212.892C66.6305 213.643 66.3331 214.414 66.0503 215.205C63.9637 221.038 62.9753 226.363 63.1131 231.032C63.2333 235.089 64.2072 238.751 66.0099 241.923C65.7146 238.919 65.8617 235.942 66.4575 233.117C66.5331 232.758 66.616 232.403 66.7051 232.053C65.9198 228.862 65.5934 225.79 65.7623 222.961C65.9685 219.485 66.3653 216.118 66.9444 212.892H66.9434ZM122.603 203.787C123.909 204.834 125.161 205.938 126.343 207.09C126.502 204.774 126.933 202.18 127.636 199.293C126.53 198.39 125.37 197.621 124.185 197.009C123.483 196.646 122.776 196.344 122.069 196.102C122.359 198.461 122.538 201.059 122.603 203.787ZM100.395 219.749C100.842 219.866 101.275 220.007 101.692 220.172C102.379 220.444 103.02 220.776 103.608 221.164C104.172 220.577 104.735 219.97 105.296 219.342C105.481 219.135 105.666 218.926 105.848 218.716C104.699 217.878 103.734 216.953 103.042 215.883C101.76 216.086 100.453 216.368 99.124 216.732C99.5498 217.691 99.9746 218.697 100.395 219.749ZM73.7347 234.274C75.1199 234.398 76.6967 235.024 78.4134 236.006C78.488 235.532 78.5782 235.064 78.6828 234.602C77.8312 234.149 77.0293 233.608 76.2792 232.98C75.8358 232.609 75.41 232.206 75.0017 231.772C74.5076 232.528 74.0714 233.301 73.6963 234.09C73.7088 234.152 73.7222 234.213 73.7347 234.274ZM91.1527 221.194C91.2666 221.286 91.3848 221.375 91.507 221.461C92.8746 222.428 95.7165 223.705 100.964 223.367C100.595 222.351 100.224 221.372 99.8524 220.43C97.8859 219.98 95.6605 220.003 93.4278 220.512C92.6549 220.688 91.8955 220.917 91.1527 221.194ZM100.762 220.678C101.066 221.459 101.368 222.264 101.669 223.094C102.129 222.656 102.59 222.203 103.05 221.736C102.547 221.418 102.006 221.145 101.428 220.916C101.211 220.83 100.989 220.75 100.762 220.678ZM84.5127 230.908C85.7715 231.305 87.1504 231.415 88.6351 231.159C88.7169 231.145 88.7988 231.129 88.8817 231.113C88.8993 229.704 88.9614 228.3 89.0682 226.908C88.0798 225.9 87.166 224.887 86.3319 223.874C85.4171 224.578 84.5634 225.369 83.7843 226.237C83.8651 227.385 83.9977 228.452 84.1822 229.438C84.2775 229.947 84.3873 230.437 84.5116 230.908H84.5127ZM69.5863 238.288C70.0629 239.42 70.5923 240.558 71.1736 241.696C71.1953 240.158 71.3922 238.659 71.7651 237.204C71.9454 236.501 72.1651 235.809 72.4251 235.129C72.3246 235.151 72.2262 235.177 72.1298 235.208C70.9663 235.579 70.1334 236.588 69.5863 238.288ZM128.489 198.993C130.518 200.722 132.366 202.879 133.884 205.312C135.403 203.529 136.268 202.269 136.342 201.783C136.472 200.922 135.576 198.835 133.301 196.283C132.539 195.428 131.307 194.176 129.648 192.91C129.592 194.311 129.351 195.794 128.921 197.352C128.767 197.909 128.623 198.455 128.489 198.993ZM89.6359 230.936C90.472 230.708 91.3578 230.37 92.2799 229.932C91.4013 229.165 90.5642 228.391 89.7716 227.611C89.6981 228.714 89.6525 229.822 89.6349 230.936H89.6359ZM93.031 229.556C95.3632 228.335 97.9056 226.504 100.492 224.181C96.5142 224.363 93.2786 223.67 91.0884 222.121C90.8678 221.966 90.6595 221.802 90.4637 221.63C90.3632 222.238 90.271 222.851 90.1871 223.468C90.0472 224.503 89.9343 225.549 89.8473 226.601C90.8356 227.593 91.8986 228.58 93.031 229.556ZM110.794 214.873C112.65 215.081 114.445 215.483 116.175 216.079C116.163 215.985 116.149 215.891 116.135 215.799C115.772 213.413 114.847 211.441 113.384 209.936C113.36 209.91 113.335 209.885 113.311 209.861C112.459 211.269 111.513 212.695 110.486 214.117C110.591 214.369 110.694 214.621 110.794 214.873ZM102.672 223.208C103.272 223.135 103.9 223.043 104.555 222.93C104.287 222.664 104 222.416 103.696 222.185C103.354 222.534 103.013 222.875 102.672 223.208ZM69.3221 239.587C69.2724 240.616 69.6381 241.572 70.4131 242.441C70.5903 242.638 70.7871 242.831 71.0047 243.016C70.3924 241.873 69.8319 240.729 69.3221 239.587ZM79.5635 234.165C81.3817 235.024 83.43 235.481 85.6886 235.531C84.9333 234.41 84.3334 233.076 83.889 231.524C82.9389 231.174 82.0272 230.664 81.1673 229.997C80.4793 231.305 79.9416 232.699 79.5624 234.165H79.5635ZM127.061 207.806C127.836 208.593 128.58 209.401 129.287 210.227C130.894 208.625 132.265 207.164 133.359 205.917C131.928 203.589 130.191 201.517 128.28 199.839C127.578 202.802 127.17 205.468 127.061 207.806ZM105.462 222.762C105.971 222.661 106.497 222.548 107.038 222.421C108.203 222.149 109.395 221.822 110.613 221.444C109.124 220.724 107.715 219.982 106.481 219.159C106.269 219.404 106.055 219.646 105.839 219.888C105.306 220.484 104.773 221.061 104.239 221.621C104.68 221.966 105.089 222.347 105.46 222.762H105.462ZM137.302 194.684C137.376 194.775 137.448 194.866 137.52 194.957C139.368 197.296 141.002 199.927 142.414 202.832C142.894 202.374 143.368 201.907 143.839 201.431C142.143 198.032 140.228 194.737 138.316 191.538C129.885 177.432 114.963 172.878 93.9635 178.004C89.5748 179.074 85.5922 181.125 82.1246 184.099C79.8536 186.047 77.7877 188.403 75.9549 191.131C77.4354 190.351 78.9387 189.772 80.4472 189.403C81.188 188.798 81.9609 188.21 82.7659 187.639C89.2173 183.064 97.5492 179.896 105.624 178.945C111.628 178.239 117.078 178.802 121.226 180.494C121.241 180.494 121.254 180.495 121.268 180.496C124.136 180.661 126.918 181.861 129.536 184.063C132.428 186.495 135.117 190.205 137.301 194.685L137.302 194.684ZM111.705 221.092C111.833 221.049 111.964 221.006 112.093 220.962C111.57 219.163 110.962 217.378 110.273 215.618C109.991 215.592 109.706 215.569 109.42 215.552C108.649 216.563 107.84 217.569 106.996 218.562C108.382 219.472 110 220.288 111.705 221.092ZM127.032 208.886C127.031 209.141 127.033 209.393 127.039 209.64C127.062 210.543 127.137 211.396 127.265 212.196C127.775 211.712 128.267 211.235 128.738 210.77C128.191 210.131 127.622 209.501 127.032 208.886ZM138.75 197.95C139.216 199.114 139.649 200.315 140.044 201.547C140.34 202.469 140.606 203.386 140.844 204.288C141.176 203.989 141.507 203.687 141.835 203.379C140.905 201.444 139.876 199.633 138.75 197.95ZM86.6334 235.528C86.7495 235.525 86.8665 235.52 86.9847 235.516C87.627 235.486 88.2859 235.427 88.9614 235.338C88.9045 234.199 88.8754 233.058 88.8754 231.921C88.835 231.929 88.7946 231.936 88.7553 231.943C87.3846 232.18 86.047 232.128 84.7717 231.8C85.24 233.261 85.8626 234.507 86.6345 235.528H86.6334ZM112.807 220.714C113.946 220.311 115.102 219.866 116.276 219.378C116.324 218.531 116.32 217.721 116.263 216.948C114.611 216.352 112.896 215.94 111.122 215.713C111.754 217.362 112.318 219.031 112.807 220.714ZM117.039 219.057C117.704 218.772 118.375 218.474 119.049 218.163C118.388 217.823 117.714 217.514 117.027 217.239C117.059 217.813 117.064 218.418 117.039 219.057ZM134.299 206C134.543 206.418 134.779 206.843 135.003 207.275C135.219 207.687 135.421 208.1 135.612 208.515C137.179 207.381 138.712 206.159 140.207 204.852C139.953 203.847 139.66 202.826 139.332 201.802C138.577 199.445 137.682 197.205 136.678 195.133C134.419 192.34 131.848 189.985 128.993 188.089C129.401 189.285 129.622 190.575 129.654 191.952C134.32 195.364 137.392 199.861 137.082 201.91C136.957 202.729 135.653 204.426 134.299 206.001V206ZM119.939 217.747C120.4 217.529 120.864 217.304 121.329 217.074C121.757 212.773 121.936 208.341 121.854 204.186C120.44 203.069 118.961 202.019 117.432 201.047C116.666 203.545 115.392 206.317 113.717 209.176C113.782 209.239 113.845 209.303 113.907 209.367C115.263 210.761 116.59 212.963 116.956 216.364C117.977 216.755 118.972 217.217 119.939 217.747ZM122.13 216.671C122.288 216.591 122.445 216.51 122.604 216.429C124.025 215.196 125.363 213.985 126.601 212.823C126.333 211.419 126.228 209.855 126.287 208.123C125.131 206.966 123.905 205.857 122.621 204.804C122.673 208.637 122.511 212.693 122.13 216.671ZM129.783 210.816C130.067 211.159 130.342 211.502 130.611 211.847C131.712 211.155 132.818 210.436 133.929 209.689C134.282 209.452 134.632 209.211 134.982 208.964C134.784 208.528 134.571 208.092 134.345 207.658C134.16 207.303 133.968 206.952 133.769 206.607C133.027 207.448 132.313 208.212 131.818 208.734C131.167 209.419 130.487 210.115 129.783 210.816ZM125.536 214.855C125.99 214.603 126.442 214.346 126.898 214.083C126.863 213.956 126.828 213.826 126.795 213.696C126.38 214.083 125.961 214.47 125.536 214.855ZM127.581 213.687C128.371 213.226 129.16 212.747 129.955 212.256C129.721 211.957 129.48 211.658 129.235 211.359C128.649 211.935 128.048 212.514 127.436 213.093C127.481 213.295 127.529 213.493 127.581 213.687ZM116.988 219.935C116.956 220.329 116.915 220.734 116.861 221.151C117.558 220.609 118.259 220.053 118.962 219.482C119.301 219.208 119.635 218.935 119.966 218.661C119.948 218.65 119.93 218.64 119.911 218.631C118.927 219.093 117.952 219.527 116.988 219.935ZM89.7074 235.228C91.8313 234.882 94.1044 234.246 96.5153 233.323C95.8273 232.817 95.1466 232.296 94.4742 231.76C93.949 231.343 93.4372 230.923 92.9367 230.498C91.7805 231.069 90.672 231.493 89.6255 231.757C89.6224 232.911 89.6494 234.069 89.7064 235.228H89.7074ZM113.096 221.74C113.236 221.805 113.377 221.869 113.517 221.935C113.996 222.156 114.478 222.378 114.959 222.603C115.307 222.342 115.657 222.078 116.007 221.81C116.091 221.281 116.159 220.765 116.207 220.259C115.131 220.7 114.07 221.105 113.024 221.475C113.048 221.564 113.072 221.652 113.096 221.74ZM87.281 236.295C87.4146 236.437 87.5524 236.572 87.6933 236.703C88.1409 237.117 88.6206 237.471 89.1272 237.773C89.0795 237.225 89.0391 236.68 89.006 236.132C88.4196 236.209 87.8446 236.264 87.282 236.295H87.281ZM113.356 222.727C113.432 223.026 113.505 223.324 113.577 223.621C113.798 223.462 114.019 223.299 114.24 223.136C113.946 222.999 113.65 222.863 113.356 222.727ZM97.3752 232.983C99.1758 232.253 101.05 231.368 102.993 230.329C103.073 230.285 103.153 230.243 103.234 230.199C102.654 228.303 102.026 226.372 101.353 224.459C98.7003 226.894 96.0998 228.81 93.6858 230.112C94.0919 230.452 94.5053 230.79 94.928 231.126C95.733 231.767 96.5505 232.386 97.3762 232.983H97.3752ZM106.027 223.456C106.551 224.166 106.985 224.956 107.319 225.82C107.529 226.365 107.725 226.914 107.906 227.466C109.55 226.433 111.221 225.309 112.914 224.099C112.898 224.03 112.882 223.96 112.865 223.892C112.741 223.366 112.609 222.842 112.47 222.318C112.198 222.192 111.926 222.067 111.657 221.94C110.134 222.439 108.646 222.859 107.201 223.197C106.805 223.29 106.415 223.376 106.027 223.456ZM103.911 229.829C105.008 229.222 106.119 228.572 107.245 227.877C107.055 227.288 106.848 226.703 106.623 226.12C106.264 225.192 105.781 224.355 105.182 223.621C104.089 223.824 103.032 223.974 102.018 224.071C102.695 225.99 103.327 227.927 103.911 229.829ZM72.4096 243.983C73.6756 244.695 75.2856 245.269 77.1391 245.665C75.9207 243.941 75.0183 242.094 74.4392 240.131C73.9584 238.505 73.5388 236.885 73.1793 235.276C72.9048 235.976 72.6738 236.687 72.4893 237.411C72.0159 239.261 71.8397 241.188 71.9589 243.177C72.0946 243.425 72.2324 243.671 72.3733 243.917C72.3857 243.939 72.3982 243.961 72.4106 243.983H72.4096ZM115.757 222.978C115.769 222.984 115.781 222.989 115.792 222.995C115.795 222.978 115.798 222.961 115.802 222.944C115.787 222.956 115.772 222.967 115.757 222.978ZM66.9537 243.437C68.4073 245.555 70.2173 247.374 72.2801 248.941C71.7827 247.335 71.4522 245.758 71.2886 244.214C70.7394 243.84 70.2618 243.43 69.8661 242.987C68.6694 241.645 68.2892 240.052 68.7679 238.38C68.772 238.364 68.7772 238.347 68.7824 238.332C68.1265 236.745 67.5723 235.17 67.1226 233.617C66.502 236.76 66.4492 240.095 66.9548 243.437H66.9537ZM78.2498 245.875C78.5771 245.93 78.9108 245.979 79.2495 246.024C78.5916 244.474 78.2197 242.648 78.1451 240.568C78.0995 239.298 78.1503 238.057 78.2933 236.853C76.6719 235.898 75.1882 235.264 73.9087 235.092C74.2641 236.684 74.6795 238.285 75.1551 239.895C75.7871 242.032 76.821 244.03 78.2487 245.875H78.2498ZM89.9198 238.189C90.473 238.446 91.0553 238.648 91.6603 238.802C93.3025 237.598 95.1497 236.394 97.199 235.191C97.5596 234.978 97.9263 234.779 98.2993 234.588C97.9564 234.354 97.6155 234.115 97.2757 233.872C94.6048 234.93 92.0913 235.649 89.7519 236.024C89.7965 236.747 89.8524 237.468 89.9198 238.189ZM90.011 239.091C90.0431 239.389 90.0773 239.688 90.1125 239.984C90.357 239.789 90.6056 239.596 90.8615 239.401C90.5725 239.309 90.2886 239.206 90.011 239.091ZM99.1105 234.196C100.643 233.492 102.259 232.956 103.93 232.536C103.779 232.016 103.625 231.493 103.466 230.965C103.422 230.989 103.377 231.013 103.332 231.037C101.542 231.994 99.8078 232.824 98.1336 233.523C98.4589 233.752 98.7842 233.975 99.1116 234.196H99.1105ZM79.1107 236.42C81.5837 237.936 84.3241 240.12 87.195 242.561C87.8736 241.89 88.6175 241.218 89.4246 240.545C89.3468 239.938 89.2774 239.33 89.2163 238.721C88.4973 238.345 87.8218 237.877 87.1991 237.302C86.8748 237.002 86.5702 236.679 86.2833 236.329C83.7294 236.352 81.4201 235.889 79.377 234.946C79.2713 235.43 79.1832 235.923 79.1107 236.42ZM113.766 224.447C114.017 225.566 114.234 226.684 114.418 227.798C114.724 227 114.993 226.182 115.225 225.344C115.372 224.815 115.504 224.295 115.621 223.785C115.429 223.693 115.237 223.602 115.044 223.512C114.617 223.828 114.191 224.14 113.766 224.447ZM104.666 232.36C105.831 232.093 107.021 231.88 108.225 231.702C108.029 230.682 107.782 229.663 107.483 228.651C106.357 229.343 105.243 229.991 104.144 230.596C104.322 231.189 104.496 231.778 104.665 232.36H104.666ZM80.1095 246.123C81.3952 246.252 82.7296 246.304 84.0889 246.284C84.78 245.231 85.6337 244.175 86.6479 243.117C83.9687 240.844 81.3569 238.763 79.004 237.284C78.8942 238.343 78.8579 239.428 78.8973 240.538C78.975 242.723 79.3801 244.586 80.1095 246.123ZM116.492 223.331C117.746 223.94 118.981 224.579 120.16 225.282C120.524 223.378 120.83 221.381 121.08 219.337C120.946 219.25 120.812 219.166 120.677 219.083C120.258 219.43 119.84 219.773 119.421 220.113C118.507 220.853 117.598 221.571 116.694 222.265C116.635 222.612 116.568 222.968 116.492 223.331ZM78.9947 246.783C79.6018 247.483 80.268 248.157 80.9932 248.81C80.4762 248.23 80.0276 247.581 79.6484 246.863C79.4277 246.839 79.2102 246.811 78.9936 246.783H78.9947ZM73.3285 249.7C74.4361 250.466 75.6068 251.168 76.8262 251.81C75.1375 249.714 73.5627 247.445 72.1578 245.066C72.3847 246.578 72.7742 248.124 73.3285 249.7ZM68.2695 246.33C69.1139 247.612 69.9997 248.836 70.9187 249.985C71.9599 251.285 73.0384 252.483 74.1398 253.566C73.7036 252.681 73.2954 251.759 72.9297 250.808C72.8551 250.615 72.7836 250.422 72.7142 250.23C71.0316 249.043 69.548 247.74 68.2695 246.33ZM108.972 231.597C110.248 231.426 111.539 231.292 112.832 231.175C113.205 230.512 113.549 229.831 113.863 229.132C113.663 227.736 113.409 226.331 113.101 224.923C111.427 226.115 109.775 227.219 108.149 228.238C108.484 229.351 108.758 230.475 108.972 231.597ZM80.5539 246.951C81.0947 247.85 81.7661 248.617 82.567 249.248C82.8332 248.525 83.1782 247.799 83.5999 247.073C82.5576 247.074 81.5382 247.034 80.5529 246.951H80.5539ZM113.745 231.097C113.866 231.086 113.986 231.076 114.106 231.066C114.087 230.884 114.066 230.702 114.044 230.52C113.947 230.713 113.847 230.905 113.745 231.097ZM87.7814 243.061C88.5708 243.737 89.3696 244.431 90.1746 245.133C89.9322 243.914 89.7229 242.686 89.5478 241.452C88.9159 241.989 88.3274 242.526 87.7814 243.061ZM85.0245 246.257C86.5806 246.194 88.1626 246.035 89.7385 245.783C88.9013 245.052 88.0642 244.326 87.2323 243.614C86.3786 244.499 85.6419 245.38 85.0255 246.257H85.0245ZM92.6943 239.016C95.9672 239.547 99.8151 238.875 103.657 237.896C102.11 237.043 100.568 236.107 99.0494 235.095C98.5438 235.338 98.0486 235.601 97.5658 235.885C95.7838 236.932 94.1603 237.975 92.6943 239.016ZM104.765 237.606C104.94 237.559 105.115 237.512 105.29 237.464C104.94 236.131 104.56 234.734 104.151 233.299C102.677 233.666 101.249 234.126 99.8886 234.713C101.499 235.768 103.13 236.735 104.766 237.606H104.765ZM109.109 232.38C109.297 233.524 109.422 234.668 109.484 235.803C110.559 234.621 111.509 233.359 112.335 232.019C111.253 232.12 110.177 232.238 109.109 232.38ZM127.813 214.458C128.094 215.289 128.449 216.041 128.879 216.711C130.357 219.017 132.573 220.197 134.945 220.862C133.925 218.186 132.413 215.511 130.434 212.88C129.557 213.424 128.682 213.95 127.813 214.458ZM106.016 237.262C106.842 237.031 107.661 236.795 108.469 236.562C108.568 236.534 108.665 236.506 108.763 236.477C108.719 235.157 108.585 233.822 108.363 232.484C107.185 232.657 106.023 232.865 104.884 233.123C105.292 234.55 105.669 235.937 106.016 237.262ZM114.855 231.006C115.381 230.964 115.905 230.925 116.428 230.884C117.259 230.821 118.082 230.757 118.894 230.69C119.303 229.253 119.672 227.714 119.998 226.1C118.82 225.386 117.58 224.737 116.317 224.121C116.207 224.59 116.084 225.073 115.947 225.567C115.593 226.844 115.157 228.072 114.639 229.254C114.721 229.84 114.792 230.423 114.855 231.006ZM106.311 238.401C106.405 238.447 106.502 238.495 106.597 238.541C106.618 238.524 106.639 238.506 106.66 238.49C107.005 238.204 107.342 237.913 107.668 237.616C107.188 237.754 106.703 237.893 106.216 238.029C106.248 238.154 106.28 238.277 106.311 238.401ZM135.835 221.088C136.09 221.146 136.346 221.198 136.602 221.248C137.493 217.911 137.015 213.795 135.301 209.695C134.98 209.919 134.656 210.141 134.333 210.359C133.246 211.09 132.165 211.794 131.087 212.472C133.207 215.306 134.799 218.195 135.835 221.088ZM91.0284 245.554C91.7847 245.409 92.5379 245.241 93.2817 245.052C97.9833 243.858 102.264 241.85 105.739 239.217C105.717 239.131 105.696 239.046 105.674 238.959C105.342 238.793 105.011 238.622 104.679 238.448C100.185 239.642 95.6129 240.511 91.8106 239.656C91.2573 240.066 90.73 240.476 90.2264 240.885C90.4378 242.452 90.7051 244.012 91.0273 245.554H91.0284ZM110.313 236.034C111.731 235.633 113.102 235.265 114.388 234.986C114.351 233.951 114.283 232.908 114.185 231.857C113.882 231.882 113.579 231.907 113.276 231.933C112.428 233.387 111.439 234.755 110.313 236.034ZM78.5305 252.655C79.6443 253.176 80.7922 253.653 81.9619 254.089C81.8407 253.117 81.8687 252.136 82.0458 251.148C82.0697 251.018 82.0956 250.887 82.1235 250.756C80.4545 249.475 79.0268 248.09 77.8457 246.604C76.0906 246.296 74.4993 245.836 73.1483 245.236C74.7583 247.889 76.5807 250.393 78.5305 252.655ZM136.133 221.965C136.174 222.096 136.214 222.225 136.254 222.356C136.294 222.243 136.335 222.129 136.373 222.013C136.292 221.998 136.212 221.981 136.133 221.965ZM119.7 230.621C121.489 230.463 123.217 230.272 124.846 229.993C123.657 228.655 122.235 227.527 120.684 226.528C120.385 227.98 120.055 229.347 119.7 230.621ZM107.368 238.911C107.814 239.12 108.261 239.323 108.706 239.518C108.751 238.897 108.776 238.27 108.779 237.638C108.327 238.075 107.856 238.498 107.368 238.911ZM115.134 234.833C116.011 234.664 116.84 234.545 117.609 234.494C117.98 233.57 118.328 232.569 118.652 231.506C117.934 231.565 117.209 231.621 116.482 231.677C115.967 231.716 115.451 231.756 114.935 231.796C115.03 232.816 115.097 233.829 115.134 234.833ZM137.348 221.378C138.288 221.529 139.222 221.633 140.116 221.726C140.163 220.326 140.41 218.914 140.936 217.493C141.808 215.132 141.579 210.66 140.415 205.7C138.956 206.963 137.461 208.145 135.934 209.245C137.747 213.523 138.264 217.847 137.348 221.378ZM125.723 229.832C126.981 229.584 128.174 229.275 129.282 228.874C129.514 228.79 129.741 228.703 129.962 228.612C129.847 228.426 129.73 228.242 129.612 228.058C127.427 224.666 124.773 221.878 121.783 219.808C121.521 221.891 121.208 223.862 120.849 225.705C122.684 226.862 124.359 228.195 125.723 229.832ZM130.667 228.302C133.057 227.18 134.728 225.602 135.78 223.465C135.649 222.957 135.498 222.445 135.326 221.93C135.308 221.877 135.29 221.825 135.273 221.772C132.568 221.102 129.979 219.844 128.257 217.157C127.809 216.459 127.437 215.69 127.142 214.848C125.749 215.648 124.369 216.401 123.004 217.105C122.67 217.396 122.335 217.683 121.998 217.97C121.964 218.288 121.928 218.604 121.891 218.92C121.891 218.924 121.891 218.93 121.889 218.934C125.086 221.082 127.918 224.017 130.233 227.611C130.381 227.839 130.526 228.07 130.667 228.302ZM83.2052 249.704C83.8879 250.148 84.6515 250.506 85.4938 250.781C87.2696 251.359 89.3893 251.535 91.7329 251.327C91.2511 249.76 90.8232 248.133 90.4544 246.465C88.4434 246.816 86.4324 247.012 84.4919 247.06C83.9408 247.947 83.5108 248.828 83.2052 249.704ZM79.8204 254.097C80.7891 255.138 81.7837 256.118 82.7939 257.027C82.4944 256.356 82.2696 255.679 82.1184 254.997C81.3289 254.709 80.5632 254.409 79.8204 254.097ZM115.158 235.635C115.184 236.773 115.171 237.9 115.122 239.011C115.29 238.795 115.45 238.578 115.6 238.364C116.195 237.51 116.75 236.485 117.263 235.318C116.604 235.379 115.9 235.49 115.158 235.635ZM92.5006 251.246C93.4454 251.131 94.4235 250.956 95.4264 250.721C94.0878 249.585 92.7378 248.406 91.4055 247.241C91.7318 248.615 92.0996 249.954 92.5016 251.246H92.5006ZM109.436 239.83C110.681 240.352 111.918 240.812 113.134 241.206C113.556 240.798 113.951 240.387 114.316 239.978C114.406 238.605 114.438 237.208 114.41 235.792C112.888 236.128 111.234 236.59 109.528 237.081C109.539 238.007 109.508 238.924 109.436 239.83ZM106.598 239.538C107.08 241.466 107.487 243.208 107.815 244.671C108.208 243.282 108.482 241.833 108.635 240.343C107.991 240.065 107.343 239.771 106.695 239.461C106.663 239.486 106.63 239.512 106.598 239.538ZM113.97 241.467C114.042 241.488 114.115 241.51 114.187 241.531C114.197 241.425 114.208 241.32 114.217 241.214C114.136 241.298 114.053 241.383 113.97 241.467ZM109.357 240.649C109.196 242.102 108.924 243.52 108.54 244.881C109.989 243.906 111.318 242.874 112.48 241.821C111.449 241.475 110.407 241.084 109.357 240.649ZM96.3547 250.49C98.175 250.008 100.068 249.337 101.992 248.486C103.835 247.67 105.616 246.726 107.27 245.7C106.932 244.157 106.487 242.224 105.944 240.037C102.433 242.644 98.1481 244.633 93.4568 245.825C92.799 245.991 92.139 246.141 91.477 246.274C91.4935 246.288 91.5111 246.303 91.5277 246.318C93.1243 247.715 94.7519 249.138 96.3536 250.49H96.3547ZM75.8202 255.114C77.3898 256.462 78.9905 257.574 80.5809 258.41C81.937 259.124 83.2839 259.644 84.6132 259.97C84.5779 259.927 84.5437 259.883 84.5085 259.839C84.2878 259.555 84.0806 259.271 83.8879 258.985C81.8894 257.36 79.9364 255.45 78.0943 253.328C76.7413 252.691 75.4773 252.01 74.3086 251.285C74.1387 251.18 73.9709 251.074 73.8051 250.968C74.3967 252.435 75.0888 253.826 75.8202 255.114ZM83.3937 250.726C83.4787 250.786 83.5636 250.846 83.6496 250.905C86.3672 252.797 89.6141 254.373 93.2217 255.562C92.7772 254.451 92.3607 253.293 91.9753 252.099C89.4618 252.341 87.1815 252.161 85.2721 251.539C84.6007 251.321 83.9739 251.049 83.3937 250.726ZM118.434 234.468C118.678 234.47 118.916 234.48 119.146 234.5C120.954 234.654 122.355 235.759 123.2 237.695C123.465 238.304 123.671 238.984 123.817 239.724C124.926 238.949 126.004 238.277 127.043 237.716C127.452 235.026 126.899 232.618 125.427 230.691C123.542 231.04 121.532 231.259 119.464 231.438C119.14 232.524 118.796 233.536 118.434 234.468ZM82.768 254.383C86.3941 255.668 90.2161 256.589 93.9417 257.269C93.8319 257.022 93.7231 256.772 93.6154 256.519C89.6939 255.287 86.1651 253.609 83.2352 251.569C83.085 251.465 82.9368 251.36 82.7907 251.254C82.7876 251.268 82.7856 251.282 82.7825 251.296C82.597 252.331 82.5918 253.361 82.7669 254.383H82.768ZM114.922 241.74C116.669 242.218 118.364 242.55 119.981 242.722C121.048 241.801 122.102 240.963 123.134 240.21C123.001 239.399 122.794 238.663 122.517 238.027C121.782 236.344 120.628 235.424 119.084 235.291C118.777 235.265 118.451 235.257 118.111 235.266C117.519 236.668 116.882 237.866 116.205 238.835C115.862 239.325 115.475 239.819 115.046 240.312C115.012 240.791 114.97 241.268 114.922 241.74ZM127.858 237.293C129.896 236.28 131.756 235.714 133.342 235.643C132.541 233.424 131.542 231.284 130.37 229.29C129.105 229.821 127.723 230.22 126.257 230.527C127.589 232.439 128.133 234.746 127.858 237.293ZM97.0903 251.107C98.09 251.94 99.0764 252.738 100.037 253.479C100.582 253.899 101.151 254.253 101.737 254.544C103.715 252.768 105.304 250.65 106.469 248.237C106.71 247.737 106.934 247.222 107.137 246.696C105.599 247.623 103.965 248.473 102.282 249.219C100.519 249.999 98.7769 250.629 97.0903 251.107ZM87.0479 260.351C88.4341 260.443 89.7975 260.318 91.1351 259.972C92.3721 259.653 93.5532 259.271 94.6742 258.827C94.5644 258.606 94.4566 258.383 94.3489 258.156C91.6054 257.672 88.805 257.06 86.045 256.268C84.9882 255.966 83.9646 255.643 82.9741 255.3C83.2684 256.356 83.7563 257.401 84.437 258.429C85.3011 259.127 86.1724 259.769 87.0468 260.351H87.0479ZM95.3787 258.537C95.4937 258.489 95.6077 258.439 95.7216 258.388C95.5714 258.364 95.4202 258.339 95.2689 258.314C95.3051 258.388 95.3424 258.464 95.3787 258.537ZM96.996 257.779C97.1431 257.704 97.2892 257.627 97.4332 257.548C96.4593 257.327 95.5041 257.081 94.5696 256.808C94.6618 257.017 94.755 257.225 94.8503 257.43C95.5714 257.555 96.2863 257.671 96.996 257.779ZM94.1645 255.862C95.5507 256.286 96.9867 256.654 98.462 256.963C99.2981 256.457 100.085 255.908 100.825 255.317C100.915 255.245 101.005 255.171 101.094 255.098C100.573 254.817 100.073 254.49 99.5923 254.12C98.4796 253.263 97.3317 252.328 96.1713 251.353C94.9954 251.65 93.8485 251.87 92.743 252.012C93.1813 253.355 93.6578 254.642 94.1634 255.862H94.1645ZM134.147 235.651C134.374 235.667 134.595 235.694 134.81 235.734C135.253 234.8 135.632 233.753 135.933 232.58C136.578 230.061 136.613 227.379 136.038 224.579C134.843 226.595 133.133 227.989 131.068 228.976C132.29 231.07 133.325 233.32 134.147 235.651ZM121.063 242.814C121.8 242.86 122.557 242.873 123.321 242.841C123.327 242.23 123.302 241.643 123.248 241.085C122.527 241.62 121.798 242.197 121.063 242.814ZM114.832 242.534C114.714 243.502 114.567 244.456 114.39 245.393C114.155 246.633 113.868 247.83 113.532 248.979C114.266 248.256 115.009 247.504 115.76 246.726C116.904 245.54 118.046 244.439 119.179 243.425C117.778 243.239 116.322 242.939 114.832 242.534ZM124.079 242.795C124.504 242.76 124.929 242.711 125.353 242.645C126.042 241.32 126.55 239.993 126.85 238.713C125.906 239.25 124.938 239.87 123.954 240.571C124.044 241.271 124.087 242.014 124.079 242.795ZM108.141 246.154C108.262 246.717 108.368 247.216 108.456 247.645C108.8 249.299 109.492 250.702 110.523 251.837C111.139 251.275 111.762 250.693 112.393 250.089C112.907 248.563 113.329 246.942 113.653 245.237C113.834 244.284 113.982 243.314 114.099 242.329C113.841 242.253 113.581 242.174 113.322 242.093C111.854 243.47 110.105 244.814 108.176 246.051C108.165 246.085 108.152 246.12 108.141 246.154ZM140.868 222.601C140.956 225.956 142.162 229.288 143.34 232.545C143.357 232.59 143.374 232.635 143.389 232.68C145.484 229.439 146.308 226.746 145.905 224.475C145.668 223.145 143.571 222.879 140.868 222.601ZM126.29 242.471C129.188 241.838 131.954 240.341 133.911 237.342C133.816 237.038 133.719 236.735 133.616 236.432C132.085 236.448 130.193 236.995 128.072 238.058C127.954 238.117 127.836 238.178 127.718 238.24C127.687 238.407 127.653 238.574 127.615 238.744C127.346 239.958 126.897 241.214 126.29 242.471ZM124.056 243.597C124.035 244.049 123.997 244.512 123.945 244.984C124.277 244.499 124.587 244.008 124.873 243.517C124.605 243.548 124.332 243.576 124.056 243.597ZM102.509 254.888C103.647 255.339 104.845 255.573 106.075 255.62C107.33 254.635 108.62 253.547 109.949 252.356C108.839 251.123 108.093 249.605 107.722 247.814C107.698 247.7 107.673 247.582 107.648 247.458C107.488 247.845 107.318 248.225 107.138 248.598C105.984 250.989 104.431 253.099 102.509 254.888ZM90.7652 262.445C90.818 262.449 90.8698 262.453 90.9227 262.456C92.4944 262.544 94.2463 262.235 96.1568 261.54C95.8035 260.957 95.4543 260.339 95.1124 259.688C95.0855 259.638 95.0586 259.585 95.0316 259.534C93.8547 260.003 92.6135 260.407 91.3122 260.743C90.3352 260.996 89.3448 261.138 88.344 261.169C89.1593 261.654 89.9664 262.079 90.7642 262.445H90.7652ZM111.068 252.384C111.173 252.48 111.283 252.575 111.395 252.667C111.533 252.354 111.666 252.036 111.795 251.713C111.555 251.937 111.311 252.16 111.068 252.384ZM142.764 203.567C144.256 206.77 145.486 210.294 146.442 214.115C147.96 220.174 148.644 225.818 148.497 231.027C149.753 226.393 149.963 221.65 149.146 216.735C148.305 211.672 146.469 206.822 144.199 202.165C143.726 202.641 143.246 203.11 142.764 203.567ZM99.5788 257.183C100.78 257.406 101.994 257.589 103.215 257.73C103.84 257.3 104.475 256.841 105.121 256.354C103.973 256.222 102.88 255.928 101.855 255.472C101.666 255.634 101.474 255.794 101.279 255.95C100.737 256.383 100.17 256.794 99.5788 257.183ZM98.2931 257.969C99.6047 258.155 100.888 258.315 102.131 258.455C102.157 258.439 102.182 258.422 102.208 258.405C101.004 258.245 99.8088 258.044 98.6257 257.806C98.6132 257.802 98.6008 257.8 98.5884 257.798C98.4889 257.856 98.3915 257.913 98.2921 257.969H98.2931ZM96.8779 261.262C98.1978 260.727 99.5902 260.015 101.051 259.133C99.7664 258.98 98.4475 258.805 97.1048 258.604C96.6593 258.827 96.2024 259.04 95.7351 259.241C96.106 259.953 96.4873 260.627 96.8768 261.262H96.8779ZM107.326 255.605C108.261 255.548 109.207 255.39 110.154 255.146C110.473 254.584 110.775 254.002 111.06 253.399C110.862 253.241 110.672 253.077 110.488 252.906C109.457 253.831 108.4 254.737 107.326 255.605ZM135.555 235.932C135.803 236.02 136.038 236.128 136.261 236.255C137.068 236.718 137.9 237.562 138.297 239.102C140.019 237.202 141.487 235.428 142.704 233.695C142.759 233.616 142.814 233.538 142.867 233.461C142.791 233.251 142.715 233.04 142.639 232.829C141.423 229.467 140.178 226.029 140.11 222.523C139.148 222.425 138.139 222.313 137.123 222.147C136.964 222.641 136.782 223.108 136.579 223.549C137.375 226.785 137.403 229.885 136.658 232.787C136.368 233.922 135.999 234.969 135.555 235.932ZM111.187 254.845C111.631 254.702 112.075 254.538 112.515 254.359C112.357 254.273 112.203 254.184 112.052 254.092C111.927 254.015 111.804 253.936 111.685 253.855C111.523 254.191 111.358 254.521 111.187 254.845ZM113.452 253.952C116.666 252.458 119.721 250.085 122.123 247.33C122.428 246.981 122.721 246.626 123.002 246.268C123.155 245.364 123.254 244.483 123.296 243.639C122.312 243.676 121.283 243.645 120.211 243.543C118.911 244.678 117.599 245.933 116.286 247.293C115.259 248.357 114.172 249.45 113.038 250.539C112.729 251.438 112.389 252.304 112.017 253.137C112.151 253.229 112.288 253.318 112.429 253.404C112.753 253.603 113.094 253.785 113.452 253.952ZM134.737 237.464C135.166 238.892 135.514 240.341 135.777 241.798C136.437 241.109 137.069 240.44 137.671 239.786C137.44 238.454 136.846 237.494 135.903 236.954C135.686 236.83 135.452 236.728 135.201 236.648C135.054 236.928 134.899 237.2 134.737 237.464ZM92.6394 263.201C93.6506 263.551 94.6431 263.798 95.6129 263.944C96.3992 264.062 97.1638 264.11 97.9077 264.091C97.4601 263.521 97.0177 262.896 96.5816 262.219C95.2316 262.725 93.9106 263.066 92.6394 263.201ZM104.381 257.853C105.649 257.972 106.921 258.049 108.196 258.081C108.685 257.458 109.149 256.797 109.586 256.1C108.448 256.342 107.346 256.451 106.285 256.43C105.654 256.921 105.018 257.397 104.381 257.853ZM103.328 258.586C104.773 258.741 106.152 258.87 107.443 258.985C107.482 258.941 107.519 258.898 107.556 258.856C106.163 258.804 104.768 258.702 103.385 258.548C103.367 258.561 103.348 258.574 103.328 258.586ZM98.8432 264.027C100.425 263.856 101.902 263.357 103.255 262.535C104.516 261.767 105.688 260.825 106.763 259.721C105.347 259.593 103.846 259.448 102.286 259.274C100.614 260.345 98.9406 261.255 97.3047 261.934C97.8072 262.702 98.3211 263.403 98.8432 264.027ZM76.9941 257.051C78.0809 258.741 79.1822 260.193 80.1198 261.331C84.0454 266.104 91.4138 266.37 99.0308 265.392C98.8671 265.22 98.7044 265.04 98.5418 264.854C97.5658 264.928 96.5546 264.888 95.5103 264.731C93.9179 264.493 92.2716 263.989 90.587 263.228C88.6413 263.057 86.9494 262.301 85.5394 260.972C83.7978 260.677 82.0303 260.059 80.2483 259.122C79.1635 258.55 78.0757 257.857 76.9951 257.051H76.9941ZM143.716 233.582C144.371 235.412 144.969 237.191 145.298 238.915C146.195 237.264 146.951 235.606 147.569 233.934C148.122 228.009 147.506 221.46 145.718 214.319C144.793 210.625 143.612 207.218 142.183 204.116C141.811 204.461 141.436 204.801 141.059 205.136C142.354 210.438 142.599 215.18 141.637 217.782C141.141 219.123 140.911 220.465 140.872 221.803C143.924 222.116 146.306 222.411 146.645 224.329C147.15 227.171 145.928 230.29 143.716 233.582ZM114.436 254.351C115.969 254.894 117.739 255.168 119.66 255.15C119.752 255.15 119.845 255.148 119.937 255.147C121.163 252.817 122.104 250.326 122.681 247.866C122.681 247.867 122.679 247.868 122.679 247.869C120.317 250.576 117.421 252.839 114.436 254.351ZM135.938 242.747C136.022 243.29 136.093 243.832 136.152 244.374C136.245 245.217 136.304 246.039 136.332 246.838C136.913 245.858 137.312 244.836 137.511 243.794C137.723 242.682 137.811 241.685 137.778 240.81C137.179 241.453 136.565 242.098 135.938 242.747ZM109.15 258.097C112.368 258.123 115.573 257.871 118.668 257.343C118.957 256.886 119.236 256.42 119.502 255.947C117.252 255.947 115.195 255.56 113.461 254.817C112.801 255.112 112.14 255.369 111.482 255.586C111.197 255.679 110.915 255.765 110.634 255.842C110.171 256.636 109.676 257.389 109.15 258.097ZM120.814 255.108C122.824 254.974 124.882 254.543 126.844 253.855C127.119 253.387 127.395 252.905 127.675 252.413C129.187 249.769 130.901 246.772 133.385 244.254C133.987 243.644 134.568 243.05 135.131 242.469C134.899 241.066 134.585 239.668 134.193 238.287C133.178 239.702 131.93 240.847 130.457 241.712C130.454 241.714 130.451 241.715 130.447 241.718C129.082 242.517 127.54 243.07 125.828 243.374C125.233 244.469 124.523 245.558 123.708 246.613C123.673 246.811 123.635 247.012 123.594 247.212C123.06 249.863 122.1 252.571 120.814 255.108ZM108.386 259.068C108.742 259.099 109.089 259.13 109.429 259.159C112.599 259.433 115.102 259.65 116.546 259.997C116.61 260.012 116.673 260.026 116.736 260.041C117.24 259.414 117.686 258.808 118.073 258.244C114.965 258.73 111.754 258.943 108.54 258.882C108.489 258.944 108.438 259.007 108.386 259.068ZM127.974 253.427C129.042 252.99 130.072 252.477 131.037 251.893C132.94 250.745 134.479 249.399 135.593 247.931C135.598 246.824 135.536 245.664 135.405 244.465C135.368 244.12 135.325 243.774 135.277 243.429C134.824 243.893 134.366 244.36 133.905 244.827C131.492 247.272 129.807 250.221 128.319 252.824C128.204 253.026 128.089 253.227 127.974 253.427ZM119.679 257.159C120.609 256.98 121.527 256.776 122.432 256.547C123.591 256.253 124.717 255.921 125.807 255.552C125.949 255.333 126.09 255.11 126.23 254.882C124.302 255.481 122.308 255.84 120.384 255.926C120.158 256.343 119.923 256.753 119.679 257.159ZM145.485 240.144C145.623 241.385 145.589 242.594 145.301 243.766C145.245 243.993 145.178 244.224 145.103 244.46C146.059 242.054 146.758 239.506 147.199 236.818C146.689 237.931 146.118 239.04 145.485 240.144ZM67.6469 246.773C67.6945 246.954 67.7432 247.133 67.794 247.313C69.3688 252.888 72.3868 257.834 76.5216 261.615C81.2191 265.911 87.0655 268.505 93.8961 269.326C97.8041 269.794 101.214 269.452 104.165 268.61C103.199 268.273 102.278 267.851 101.41 267.341C100.856 267.016 100.302 266.599 99.7488 266.097C91.7142 267.196 83.8081 267.027 79.551 261.853C78.2705 260.296 76.6874 258.165 75.2442 255.641C73.5565 254.179 71.9071 252.45 70.3447 250.497C69.4081 249.328 68.5057 248.08 67.6458 246.773H67.6469ZM99.9891 265.262C103.145 264.817 106.321 264.182 109.291 263.587C111.093 263.227 112.81 262.884 114.396 262.608C115.046 261.979 115.635 261.345 116.169 260.724C114.746 260.416 112.354 260.209 109.367 259.951C108.841 259.905 108.298 259.858 107.741 259.808C106.502 261.166 105.126 262.313 103.63 263.222C102.343 264.006 100.955 264.513 99.4773 264.746C99.6472 264.926 99.8171 265.098 99.9881 265.262H99.9891ZM136.348 248.203C136.341 248.848 136.311 249.473 136.259 250.078C138.168 248.6 139.837 246.941 141.238 245.114C142.548 243.406 143.703 241.694 144.705 239.97C144.47 238.18 143.873 236.297 143.186 234.349C141.865 236.205 140.252 238.113 138.474 240.055C138.597 241.089 138.55 242.369 138.247 243.95C137.955 245.482 137.291 246.908 136.348 248.203ZM126.966 255.142C130.122 253.97 132.96 252.478 135.43 250.697C135.488 250.209 135.531 249.705 135.558 249.186C133.511 251.509 130.559 253.339 127.347 254.507C127.22 254.721 127.093 254.933 126.966 255.142ZM105.491 268.188C108.644 267.081 111.23 265.408 113.302 263.611C112.075 263.839 110.776 264.098 109.431 264.368C106.662 264.922 103.718 265.51 100.771 265.95C101.106 266.217 101.441 266.45 101.775 266.646C102.92 267.32 104.165 267.834 105.489 268.188H105.491ZM117.592 260.199C121.099 260.704 123.229 259.143 125.074 256.622C124.269 256.874 123.447 257.107 122.607 257.32C121.461 257.61 120.294 257.86 119.108 258.071C118.976 258.275 118.84 258.478 118.702 258.68C118.374 259.16 118.004 259.672 117.592 260.199ZM136.144 251.142C135.8 253.703 135.034 255.809 133.882 257.246C133.863 257.27 133.843 257.294 133.823 257.32C134.319 256.934 134.815 256.528 135.312 256.102C139.997 252.085 143.719 247.047 144.573 243.567C144.755 242.829 144.824 242.068 144.807 241.287C143.92 242.735 142.924 244.177 141.822 245.615C140.244 247.67 138.338 249.52 136.144 251.142ZM115.699 262.395C118.121 262.021 120.172 261.861 121.66 262.128C124.12 262.568 127.438 261.536 131.001 259.303C131.824 258.481 132.596 257.623 133.308 256.733C134.247 255.561 134.913 253.843 135.276 251.761C132.642 253.573 129.624 255.072 126.279 256.226C124.103 259.514 121.591 261.765 117.02 260.909C116.615 261.397 116.174 261.895 115.699 262.395ZM119.627 266.811C122.765 265.558 125.779 263.769 128.444 261.604C125.855 262.795 123.487 263.26 121.535 262.91C119.926 262.622 117.56 262.872 114.74 263.354C112.703 265.296 110.111 267.181 106.902 268.5C110.068 269.057 113.621 268.769 117.327 267.625L117.316 267.587C118.098 267.341 118.869 267.081 119.627 266.811ZM127.419 263.375C127.999 263.064 128.565 262.743 129.121 262.417C133.653 259.743 137.423 256.504 140.324 252.79C141.658 251.083 142.812 249.274 143.788 247.364C142.074 250.396 139.212 253.781 135.786 256.72C134.31 257.984 132.848 259.071 131.426 259.97C130.19 261.195 128.844 262.337 127.419 263.375ZM129.401 263.161C126.52 264.852 123.327 266.327 119.878 267.56C119.377 267.759 118.873 267.946 118.367 268.118C113.759 269.687 109.342 269.979 105.528 269.016C102.235 270.138 98.3491 270.659 93.8112 270.115C86.8272 269.275 80.844 266.618 76.0295 262.216C71.7859 258.336 68.6891 253.261 67.0729 247.541C66.8201 246.645 66.6067 245.744 66.4326 244.843C63.7265 240.334 61.5352 235.261 60.1739 230.248C58.0748 222.521 58.0551 215.475 60.1189 210.405C62.3102 205.025 65.523 200.015 69.1667 196.301C70.8783 194.556 72.6727 193.102 74.5117 191.959C76.5817 188.62 78.976 185.776 81.6521 183.482C85.2089 180.431 89.294 178.328 93.7956 177.229C115.139 172.02 130.333 176.691 138.953 191.115C140.835 194.265 142.721 197.509 144.402 200.856C146.857 198.317 149.191 195.529 151.393 192.504C155.519 186.838 159.192 180.334 162.311 173.174C167.624 160.979 169.504 150.99 169.522 150.89L170.26 151.043C170.241 151.143 168.344 161.225 162.994 173.506C159.852 180.72 156.149 187.276 151.989 192.989C149.717 196.11 147.305 198.981 144.767 201.591C147.115 206.373 149.019 211.365 149.889 216.599C150.896 222.664 150.38 228.468 148.308 234.124C147.606 241.47 145.135 247.881 140.904 253.297C137.943 257.087 134.101 260.389 129.487 263.111C129.458 263.128 129.429 263.145 129.401 263.162V263.161Z" fill="#080435"/>
<path d="M223.604 175.676C216.956 178.631 203.801 180.169 192.992 179.804C186.256 179.576 177.992 181.335 174.845 182.197C172.373 182.877 162.8 186.625 160.659 185.862C159.401 185.41 158.999 180.519 159.872 178.577C161.744 174.41 167.35 171.653 177.024 168.363C186.245 165.228 189.687 161.921 191.798 158.018C192.525 156.672 207.985 160.584 203.863 150.627C201.791 145.625 213.948 134.202 216.701 136.033C239.479 151.196 223.604 175.675 223.604 175.675V175.676Z" fill="#FFA089"/>
<path d="M255.65 172.098C255.65 172.098 248.028 170.534 251.592 162.405C257.511 148.908 244.546 151.132 247.91 141.804C249.549 137.257 248.704 134.961 244.314 130.54C241.051 127.253 246.332 123.736 249.518 123.879C252.704 124.02 258.281 119.913 258.281 119.913C258.281 119.913 280.768 128.347 281.557 144.652C282.345 160.957 274.395 176.806 274.395 176.806L255.65 172.098Z" fill="#FCF1D5"/>
<defs>
<filter id="filter0_d_641_795" x="0" y="0" width="318" height="104" filterUnits="userSpaceOnUse" color-interpolation-filters="sRGB">
<feFlood flood-opacity="0" result="BackgroundImageFix"/>
<feColorMatrix in="SourceAlpha" type="matrix" values="0 0 0 0 0 0 0 0 0 0 0 0 0 0 0 0 0 0 127 0" result="hardAlpha"/>
<feOffset/>
<feGaussianBlur stdDeviation="15"/>
<feComposite in2="hardAlpha" operator="out"/>
<feColorMatrix type="matrix" values="0 0 0 0 0 0 0 0 0 0 0 0 0 0 0 0 0 0 0.1 0"/>
<feBlend mode="normal" in2="BackgroundImageFix" result="effect1_dropShadow_641_795"/>
<feBlend mode="normal" in="SourceGraphic" in2="effect1_dropShadow_641_795" result="shape"/>
</filter>
</defs>
</svg>
