<svg width="563" height="336" xmlns="http://www.w3.org/2000/svg" xmlns:xlink="http://www.w3.org/1999/xlink" xml:space="preserve" overflow="hidden"><defs><clipPath id="clip0"><rect x="478" y="152" width="563" height="336"/></clipPath></defs><g clip-path="url(#clip0)" transform="translate(-478 -152)"><path d="M739.536 484.595C739.832 484.595 740.719 485.048 740.901 485.273L741.215 485.332 741.267 485.343 741.467 485.247C741.449 485.089 741.336 484.855 741.215 484.758L740.802 484.013 740.881 483.681 741.215 483.82C741.776 483.958 742.067 484.855 742.507 484.855L742.707 484.637C742.594 484.28 742.464 483.732 742.69 483.385 742.794 483.254 743.032 483.15 743.194 483.124 743.424 483.385 743.62 483.81 743.684 484.15 743.959 484.106 744.293 483.48 744.345 483.221L744.571 483.029C745.189 483.081 745.496 482.218 745.749 481.802L745.885 481.802C745.911 481.749 745.975 481.637 745.975 481.585 746.201 479.167 746.01 477.923 745.592 475.583 745.5 475.053 745.471 474.496 745.358 473.974 745.062 472.616 744.444 471.182 744.444 469.773 744.444 468.755 745.165 466.815 745.549 465.902 745.949 464.937 746.61 464.284 747.088 463.397 747.889 461.927 747.661 459.196 745.166 459.596 743.644 459.839 742.818 460.344 741.217 460.135 739.912 459.926 738.554 459.405 737.346 458.917 736.59 458.175 736.639 457.475 736.485 456.447 736.346 455.518 736.069 454.42 735.711 453.551 735.276 452.489 734.276 451.628 734.311 450.419 734.38 448.062 736.651 447.252 735.494 444.609 734.928 443.322 732.745 442.808 731.545 441.712 730.849 441.077 730.197 440.042 729.762 439.216 729.237 438.242 728.733 436.641 728.431 435.598 728.065 434.319 728.187 433.693 727.072 432.753 727.107 432.57 726.742 432.162 726.62 432.048 726.22 431.117 726.185 429.717 726.411 428.733 726.481 428.42 726.672 428.063 726.646 427.734 726.576 427.029 726.437 426.255 726.22 425.585 726.524 423.687 731.36 423.637 731.891 419.731 732.074 418.4 731.469 415.981 730.93 414.825 730.73 414.417 730.425 414.034 730.208 413.634 729.738 412.781 728.667 409.372 728.842 408.362 729.025 407.292 729.564 406.282 730.138 405.387 731.069 403.943 732.765 404.239 734.174 404.735 735.844 405.317 739.271 405.856 741.046 406.118 741.098 406.128 741.159 406.118 741.22 406.118 742.01 406.161 743.038 406.1 743.803 405.883 744.264 405.752 746.369 404.665 746.76 404.197 748.038 402.675 749.401 401.214 750.706 399.75 751.358 399.002 752.046 398.074 752.848 397.479 753.222 397.201 753.727 396.888 754.246 396.523L754.577 396.61 758.708 397.262 761.318 397.479C761.318 397.479 763.927 397.479 766.754 398.567 769.581 399.654 771.973 398.784 772.843 398.784 773.713 398.784 777.409 400.306 778.714 400.741 780.019 401.176 781.976 399.654 782.628 398.784 783.281 397.914 783.716 395.74 783.716 394.653 783.716 393.565 784.151 389.869 782.846 388.564 781.541 387.259 781.019 385.867 782.802 384.971L784.107 384.319C785.081 383.829 785.908 383.423 786.804 382.706 787.256 382.354 787.595 381.885 788.078 381.563 788.712 381.136 789.504 380.884 790.091 380.461 791.57 379.428 792.644 378.378 794.258 377.521 794.348 377.477 794.458 377.501 794.545 377.451 796.285 376.607 797.946 375.677 799.59 374.678 800.312 374.234 800.938 373.652 801.651 373.199 802.121 372.895 802.678 372.677 803.147 372.364 803.915 371.842 804.661 371.225 805.405 370.659 806.431 369.885 807.67 369.25 808.753 368.51 809.014 368.338 809.275 367.962 809.528 367.764 810.032 367.375 810.626 366.984 811.084 366.553 812.583 365.154 813.111 362.536 814.294 360.811 814.764 360.133 815.573 359.566 815.895 358.776 816.286 357.792 816.477 356.739 817.156 355.88 817.956 354.862 818.842 354.194 819.409 352.963 820.27 351.129 820.096 347.255 822.079 346.03 823.253 345.298 824.67 345.021 825.903 344.368 828.373 343.075 830.165 342.213 832.792 341.106 833.975 340.604 835.497 340.698 836.732 340.811 837.801 340.905 838.75 341.28 839.637 341.863 842.012 343.431 841.907 345.951 842.66 348.432 843.012 349.622 843.747 350.972 844.443 351.979 845.016 352.814 845.53 353.467 846.64 353.458 844.856 354.887 844.112 355.039 842.486 356.937 842.256 357.198 841.561 358.048 841.433 358.441 840.998 359.756 840.79 360.893 840.551 362.228 840.394 363.107 839.864 363.844 839.624 364.678 839.45 365.252 839.441 365.929 839.311 366.522 839.111 367.426 838.859 368.331 838.633 369.226 838.598 369.35 838.624 369.48 838.589 369.6 838.063 371.775 837.545 373.994 837.093 376.185 836.997 376.665 837.006 377.211 836.875 377.682 836.736 378.21 836.441 379.012 836.197 379.5 835.832 380.222 834.962 381.031 834.875 381.884 834.762 382.994 834.666 384.136 834.449 385.238 834.353 385.728 834.188 386.134 834.153 386.638 834.092 387.586 834.162 388.517 834.135 389.465 834.126 389.839 833.964 390.21 833.943 390.561 833.796 392.748 833.587 394.579 834.935 396.423 835.335 396.962 835.735 397.457 836.04 398.074 836.421 398.829 836.718 399.651 837.092 400.413 837.318 400.866 837.153 401.579 836.979 402.03 835.95 404.622 834.28 405.143 832.804 405.997L832.644 405.727C831.339 404.422 826.12 405.292 825.25 405.292 824.381 405.292 818.074 405.292 816.117 405.51 814.16 405.727 813.943 408.554 813.943 408.554 813.943 408.554 812.421 410.294 811.333 411.381 810.246 412.468 809.594 414.86 809.594 415.73 809.594 416.6 808.941 417.687 807.419 418.557 805.897 419.427 806.767 421.384 806.767 423.123 806.767 424.863 806.332 425.298 805.245 426.603 804.157 427.908 804.157 429.43 804.157 430.517 804.157 431.604 803.505 433.996 803.505 433.996 803.505 433.996 801.765 436.606 800.026 438.345 798.286 440.085 800.026 442.259 801.113 443.347 802.2 444.434 802.418 446.826 801.33 447.913 800.243 449.001 800.243 449.87 800.026 450.958 799.808 452.045 801.33 453.132 801.765 452.045 802.2 450.958 806.767 450.088 807.637 449.218 808.506 448.348 811.551 448.783 812.203 449.87 812.855 450.958 813.943 452.262 813.943 453.35 813.943 454.437 814.16 457.699 814.16 459.438 814.16 461.178 812.681 462.848 812.681 462.848 812.26 462.665 811.664 463.247 811.432 463.524 810.188 464.977 809.222 465.838 807.874 467.162 807.394 467.631 807.109 468.308 806.648 468.772 805.071 470.373 803.577 471.36 805.23 473.383 805.621 473.864 806.1 474.67 806.604 475.034L806.717 475.127C806.517 475.371 806.317 475.623 806.117 475.895 805.51 476.711 804.977 477.687 804.205 478.38 803.317 479.181 801.929 479.581 801.142 480.372 800.342 481.199 800.029 482.356 799.132 483.164 798.915 483.358 796.807 484.33 796.523 484.391 796.053 484.494 795.583 484.33 795.102 484.416 794.327 484.564 791.935 485.163 791.283 485.06 790.726 484.969 790.318 484.613 789.787 484.465 789.387 484.482 789.178 484.864 788.69 484.912 783.964 485.277 785.95 487.539 784.602 488.7L784.419 488.725C784.141 488.231 784.506 487.579 784.463 487.029L784.176 486.881 783.889 486.975C783.393 487.48 783.473 488.314 782.758 488.67 782.401 488.853 781.94 488.827 781.566 488.949 781.14 489.314 781.331 490.558 781.549 491.019L781.812 491.062C782.368 490.749 782.647 489.932 783.125 489.635L783.456 489.582 783.638 489.81C783.638 490.08 783.579 490.532 783.769 490.739L784.008 490.841C784.811 490.579 784.434 489.59 784.973 489.044L785.246 489.113C785.28 489.479 785.326 489.965 785.445 490.292L785.697 490.169C785.871 489.708 786.202 489.175 786.271 488.69 786.253 488.518 785.845 487.89 785.732 487.681L785.854 487.412C786.132 487.253 786.561 487.316 786.863 487.316 787.054 487.582 786.889 487.986 786.967 488.301 787.985 489.757 789.403 487.83 790.586 488.003 790.733 488.064 790.925 488.267 790.975 488.42 790.586 488.762 789.488 488.819 788.959 489.037 788.359 489.289 787.237 489.889 786.758 490.318 786.332 490.708 784.027 492.971 783.804 493.303 783.666 493.521 783.471 493.875 783.562 494.149 783.683 494.276 783.814 494.419 783.952 494.541 784.178 494.595 784.431 494.597 784.673 494.595 784.971 494.308 785.09 493.812 785.307 493.48 785.838 492.663 788.969 489.158 789.865 489.34L789.987 489.583C789.93 489.746 787.432 491.745 786.925 492.42 784.452 495.734 787.769 497.5 782.61 499.265 782.114 499.428 780.997 500.009 780.583 500.009 779.313 500.009 779.313 499.025 778.502 498.478 778.171 498.26 777.623 498.269 777.31 498.007 776.935 497.711 776.762 497.137 776.135 497.228 775.596 497.572 774.761 497.536 774.517 498.291 774.509 498.561 774.643 498.908 774.909 499.031 775.057 499.092 775.248 499.153 775.465 499.204 774.256 498.968 772.981 498.908 771.969 499.056 771.342 499.145 770.603 499.508 770.099 499.867 769.754 500.109 769.838 500.683 769.572 500.997 769.011 501.171 768.119 500.918 767.719 501.372 767.594 501.51 767.524 501.693 767.388 501.841 765.271 502.563 766.324 502.441 765.03 503.346 764.613 503.137 763.484 501.398 762.396 500.804 761.517 500.316 760.561 500.213 759.708 499.769 759.09 499.441 758.62 498.936 758.02 498.604 757.585 498.362 757.072 498.238 756.629 497.997 755.776 497.517 754.946 496.848 754.063 496.466 753.854 496.377 753.663 496.352 753.462 496.221 752.906 495.839 752.352 495.432 751.741 495.108 751.124 494.788 750.001 494.293 749.358 494.021 749.027 493.895 748.819 493.534 748.514 493.36 748.018 493.073 747.496 492.761 746.992 492.499 746.348 492.159 745.618 492.011 745 491.611 744.208 491.098 743.652 490.254 742.869 489.759 742.408 489.472 741.886 489.367 741.451 489.115 740.947 488.828 740.633 488.376 740.033 488.132 739.256 487.821 736.128 487.593 735.302 487.89 734.971 488.011 734.936 488.229 734.667 488.403L734.32 488.376 734.198 488.137 734.276 487.865C734.406 487.761 734.52 487.639 734.633 487.521L734.667 487.198C734.76 486.887 735.457 486.615 735.709 486.418 736.293 486.34 737.425 486.41 737.79 485.859 737.758 485.616 737.77 485.368 737.825 485.129L738.008 484.922C738.467 484.708 739.043 484.872 739.536 484.595Z" stroke="#000000" stroke-width="1.73964" fill="#FFFFFF" transform="matrix(1 0 0 1 -205.559 -92.9062)"/><text fill="#6A0707" font-family="Arial,Arial_MSFontService,sans-serif" font-weight="400" font-size="9" transform="matrix(0.869819 0 0 0.869822 556.649 345)">Adana</text><path d="M823.256 563.86C823.092 563.999 822.96 564.008 822.764 564.008 822.617 564.008 822.421 564.025 822.282 564.008 821.882 563.938 820.76 561.346 819.55 560.658 818.768 560.223 817.976 559.832 817.089 559.632 815.81 559.336 813.462 559.571 812.444 558.884 811.766 558.432 812.348 557.477 812.348 556.788 812.348 551.021 807.19 557.19 805.768 554.892 806.02 554.145 807.595 551.63 808.287 551.318 808.378 551.012 808.565 549.925 808.679 549.786 809 549.76 809.679 549.325 809.853 549.046 809.97 548.158 809.113 547.054 808.835 546.237 808.618 545.619 808.596 544.879 808.435 544.236 808.262 543.532 807.496 541.296 807.184 540.663 807.129 540.566 807.01 540.471 806.949 540.366 806.767 540.089 806.525 539.835 806.341 539.557 806.1 539.183 805.953 538.704 805.706 538.321 805.359 537.791 804.802 537.391 804.471 536.817 804.193 536.333 803.982 535.784 803.688 535.312 802.545 533.433 801.331 531.528 800.305 529.571 800.018 529.023 799.774 528.301 799.435 527.797 798.565 526.466 796.13 525.057 796.025 523.429 795.999 523.005 796.017 522.5 796.217 522.101 796.53 521.457 797.382 521.143 797.8 520.552 798.363 519.743 798.061 519.099 799.009 518.508 799.618 518.116 801.114 517.915 801.392 517.62 802.01 516.95 801.81 515.402 802.584 514.706 803.201 514.148 804.348 514.28 804.817 513.479 805.559 512.209 804.472 512.279 806.238 510.496 807.452 509.261 809.865 509.417 810.778 508.548 812.048 507.33 812.622 505.007 814.005 503.99 815.275 503.042 816.076 503.677 816.919 503.146 817.72 502.65 818.189 501.737 818.955 501.198 819.55 500.78 820.138 500.85 820.616 500.58 821.042 500.354 821.147 499.58 821.729 499.301 822.59 498.884 823.904 499.562 824.643 498.51 825.229 497.684 824.991 496.753 825.139 495.846 825.278 494.994 826.366 495.151 826.498 493.628 826.522 493.254 826.409 493.03 826.349 492.7 826.305 492.413 826.383 492.03 826.248 491.761 826.012 491.28 825.446 490.942 825.217 490.429 824.782 489.42 825.365 488.376 825.308 487.367 825.261 486.749 824.664 486.211 824.873 485.618 824.951 485.409 825.295 485.131 825.445 484.931 825.756 484.557 825.721 484.313 825.651 483.899 825.16 483.368 825.112 482.716 824.793 482.124 824.495 481.576 824.016 481.06 823.681 480.541 823.438 480.167 823.246 479.69 823.029 479.289 822.933 479.121 822.864 478.973 822.716 478.823 822.246 478.353 821.646 478.042 821.263 477.492 820.734 476.746 820.472 476.146 819.715 475.572 819.123 475.119 818.41 474.684 817.873 474.187 816.079 472.551 816.74 472.218 814.072 471.256 813.648 471.095 813.226 470.877 812.778 470.838 812.03 470.76 811.491 471.292 810.908 471.652 809.238 472.693 807.944 473.702 806.724 475.154L806.611 475.061C806.107 474.696 805.626 473.884 805.237 473.409 803.584 471.382 805.076 470.399 806.655 468.799 807.115 468.338 807.4 467.656 807.881 467.187 809.229 465.865 810.193 465.004 811.439 463.551 811.673 463.273 812.265 462.69 812.689 462.872 813.572 463.249 814.59 463.802 815.571 463.832 816.876 463.867 818.32 462.986 819.572 463.484 822.677 464.71 822.721 464.719 825.861 463.736 832.028 461.805 830.976 466.781 836.012 468.359 838.378 469.103 840.603 467.98 842.892 467.946 842.874 468.077 842.97 468.29 843.049 468.381 844.284 469.816 845.554 471.264 847.275 472.139 847.867 472.445 848.526 472.582 849.117 472.92 850.938 473.972 850.146 474.178 852.699 474.605 854.276 474.879 854.635 476.471 854.909 477.789 855.691 478.606 856.457 478.293 857.553 478.615 857.529 478.624 857.495 478.624 857.46 478.624 858.192 481.312 856.877 482.303 855.583 484.46 855.2 485.087 854.643 485.461 854.495 486.235 854.233 487.514 855.529 487.896 854.912 489.966 854.35 491.889 852.485 493.22 852.2 495.316 852.061 496.299 852.624 497.341 852.818 498.299 853.046 499.421 852.799 499.943 852.724 500.987 852.681 501.478 852.759 501.946 852.664 502.431 852.585 502.883 851.159 505.649 850.854 505.997 850.637 506.241 850.35 506.38 850.132 506.665 849.802 507.009 849.654 507.587 849.709 508.06 849.802 508.804 850.596 510.565 850.82 511.378 850.994 512.012 850.727 512.683 850.979 513.317 851.178 513.83 851.642 514.241 851.849 514.735 851.953 514.971 852.007 515.329 852.24 515.483 852.811 515.864 853.716 515.37 854.179 515.952 854.49 516.639 853.935 517.501 854.083 517.962 854.32 518.24 854.643 518.536 854.614 518.947 854.273 519.53 852.674 519.965 853.013 520.809 854.909 521.53 855.211 520.147 857.006 521.043 857.293 521.709 857.615 523.218 858.187 523.611 858.598 523.889 859.057 524.063 859.473 524.358 859.963 525.306 859.386 525.811 859.491 526.689 859.537 527.089 859.763 527.446 859.789 527.864 859.847 528.899 858.858 529.876 857.806 529.629 857.388 529.535 856.98 529.203 856.58 529.186 856.423 529.324 856.353 529.508 856.235 529.655 854.974 531.073 853.017 529.734 851.564 529.533 850.781 529.437 850.66 530.011 850.12 529.942 849.591 529.778 849.355 528.984 848.755 528.88 848.45 528.826 848.137 528.974 847.833 529.002 846.902 529.081 846.145 529.274 845.242 529.446 844.659 529.872 845.219 531.351 844.314 531.82 843.902 531.838 843.383 531.281 843.009 531.099 842.449 531.081 842.014 531.49 841.453 531.385 840.64 531.238 840.226 530.422 839.659 529.957 839.485 529.809 839.181 529.716 838.983 529.583L838.766 529.043C838.513 529.315 838.276 529.678 837.95 529.843 838.439 529.922 839.376 531.855 839.236 532.366 838.791 532.853 837.843 532.522 837.565 533.357 837.256 534.297 838.125 535.732 838.183 536.697 838.273 538.161 837.303 538.35 837.948 540.623 838.018 540.858 838.235 541.503 838.383 541.675 838.444 542.432 838.087 543.093 838.026 543.826 837.983 544.398 838.192 545.016 838.157 545.574 838.145 545.732 838.165 545.965 838.131 546.112 838.037 546.478 837.8 546.904 837.583 547.208 837.591 547.288 837.493 547.443 837.47 547.517 837.47 547.561 837.677 548.622 837.711 548.683 837.148 549.605 835.491 549.325 834.779 548.657 834.014 547.996 832.274 547.691 832.033 548.761 831.668 550.422 832.708 551.282 831.938 552.162 830.711 553.554 827.841 549.709 826.24 552.493 825.934 553.014 825.823 553.728 825.484 554.215 825.083 554.78 824.605 555.258 824.388 555.946 823.874 557.502 824.24 563.07 823.257 563.861Z" stroke="#000000" stroke-width="1.73964" fill="#FFFFFF" transform="matrix(1 0 0 1 -205.559 -92.9062)"/><text fill="#6A0707" font-family="Arial,Arial_MSFontService,sans-serif" font-weight="400" font-size="9" transform="matrix(0.869819 0 0 0.869822 611.037 421)">Hatay</text><path d="M842.882 467.936C840.595 467.97 838.368 469.093 836.002 468.345 830.966 466.77 832.018 461.797 825.851 463.726 822.711 464.709 822.668 464.7 819.563 463.474 818.312 462.978 816.866 463.855 815.561 463.821 814.579 463.795 813.561 463.233 812.681 462.861 812.681 462.861 814.157 461.191 814.157 459.451 814.157 457.712 813.939 454.45 813.939 453.363 813.939 452.275 812.852 450.971 812.2 449.883 811.547 448.796 808.503 448.361 807.633 449.231 806.763 450.101 802.197 450.971 801.762 452.058 801.327 453.145 799.805 452.058 800.022 450.971 800.24 449.883 800.24 449.014 801.327 447.926 802.414 446.839 802.197 444.447 801.109 443.36 800.022 442.273 798.283 440.098 800.022 438.358 801.762 436.619 803.501 434.009 803.501 434.009 803.501 434.009 804.154 431.617 804.154 430.53 804.154 429.443 804.154 427.921 805.241 426.616 806.328 425.311 806.763 424.876 806.763 423.137 806.763 421.397 805.893 419.44 807.416 418.57 808.938 417.7 809.59 416.613 809.59 415.743 809.59 414.873 810.243 412.481 811.33 411.394 812.417 410.307 813.939 408.567 813.939 408.567 813.939 408.567 814.157 405.74 816.114 405.523 818.071 405.305 824.377 405.305 825.247 405.305 826.117 405.305 831.336 404.435 832.64 405.74L832.801 406.012C832.131 406.401 831.505 406.865 831.001 407.615 830.192 408.815 831.331 412.955 830.982 414.73 830.902 415.139 830.581 415.6 830.384 415.913 829.819 416.8 829.242 417.618 828.497 418.348 827.618 419.209 826.618 419.688 826.296 420.966 825.591 423.758 829.419 425.776 830.77 427.707 831.404 428.621 828.865 430.091 828.436 430.743 827.061 432.839 831.55 434.762 832.576 435.344 832.602 435.353 832.772 435.585 832.793 435.618 833.263 435.092 832.994 434.222 834.481 434.121L835.203 434.567C835.402 434.444 835.646 434.11 835.767 433.914L836.017 433.87C836.167 434.322 836.724 434.904 837.164 435.083 839.052 435.492 840.2 433.857 841.757 433.527 842.583 433.344 844.001 433.527 844.401 432.54 844.558 432.669 845.035 432.897 845.253 432.848 847.005 432.439 849.076 431.665 850.898 431.888 851.724 431.983 852.655 432.792 853.325 433.218 854.142 433.722 855.16 434.157 855.856 434.831 857.717 436.605 859.387 438.606 861.014 440.597 861.257 440.893 861.431 441.158 861.771 441.413L861.736 441.839 856.926 447.458C856.138 448.38 855.634 449.831 855.083 450.911 854.351 452.341 853.725 454.002 852.898 455.321 852.49 455.973 851.985 456.601 851.559 457.253 850.997 458.113 850.393 459.071 849.692 459.827 848.936 460.644 848.101 461.453 847.357 462.28 846.317 463.44 842.655 466.224 842.882 467.936Z" stroke="#000000" stroke-width="1.73964" fill="#FFFFFF" transform="matrix(1 0 0 1 -205.559 -92.9062)"/><text fill="#6A0707" font-family="Arial,Arial_MSFontService,sans-serif" font-weight="400" font-size="9" transform="matrix(0.869819 0 0 0.869822 607.061 352)">Osmaniye</text><path d="M835.764 433.918C835.642 434.109 835.399 434.448 835.202 434.57L834.48 434.127C832.993 434.221 833.262 435.091 832.793 435.623 832.771 435.588 832.601 435.353 832.575 435.344 831.549 434.762 827.06 432.841 828.435 430.745 828.861 430.092 831.401 428.622 830.766 427.709 829.418 425.777 825.595 423.759 826.295 420.968 826.617 419.689 827.618 419.211 828.496 418.35 829.239 417.619 829.818 416.801 830.383 415.914 830.583 415.6 830.905 415.139 830.982 414.731 831.33 412.956 830.194 408.816 831 407.615 831.504 406.867 832.131 406.406 832.8 406.015 834.275 405.163 835.945 404.641 836.976 402.047 837.149 401.595 837.315 400.881 837.089 400.429 836.715 399.665 836.419 398.849 836.036 398.091 835.728 397.473 835.329 396.978 834.931 396.438 833.583 394.594 833.792 392.759 833.94 390.583 833.957 390.235 834.123 389.861 834.131 389.48 834.157 388.532 834.088 387.603 834.149 386.653 834.183 386.15 834.349 385.74 834.444 385.258 834.662 384.152 834.756 383.014 834.871 381.899 834.958 381.047 835.827 380.238 836.193 379.516 836.436 379.029 836.732 378.229 836.871 377.698 836.999 377.228 836.993 376.68 837.089 376.202 837.541 374.01 838.051 371.792 838.585 369.617 838.62 369.496 838.593 369.365 838.628 369.243 838.859 368.348 839.111 367.443 839.307 366.538 839.437 365.947 839.446 365.268 839.62 364.696 839.859 363.861 840.394 363.12 840.546 362.246 840.782 360.914 840.994 359.774 841.429 358.459 841.556 358.068 842.251 357.215 842.482 356.955 844.108 355.057 844.856 354.902 846.635 353.475L847.644 352.673C848.14 352.284 849.166 350.432 849.691 349.828 850.248 349.186 850.857 348.549 851.383 347.888 852.201 346.836 852.792 345.726 853.857 344.717 854.658 343.951 858.273 340.898 858.641 340.309 859.92 338.227 858.858 333.611 861.147 331.482 861.787 330.889 862.756 330.847 863.448 330.35L863.579 330.246C865.688 329.765 867.783 329.22 869.859 328.611 869.955 328.585 870.146 328.628 870.25 328.611 870.995 328.48 871.712 328.254 872.486 328.219 873.309 328.176 874.191 328.254 875.014 328.165 875.495 328.122 876.078 327.913 876.548 327.79 878.07 327.424 880.827 328.729 882.097 329.427 882.59 329.704 883.106 330.088 883.608 330.383 883.689 330.429 883.713 330.548 883.781 330.592 885.051 331.427 885.651 331.151 887.034 331.062 888.886 330.949 890.765 330.888 892.609 330.716 894.61 330.523 896.616 330.202 898.602 329.94 899.416 329.846 900.342 329.957 901.168 329.895 901.229 330.365 901.534 330.809 901.603 331.324 901.803 332.94 898.5 335.02 897.48 335.761 897.176 335.979 894.585 338.752 894.368 339.147 894.333 339.205 894.106 340.005 894.071 340.121 894.482 342.328 896.602 341.962 898.238 341.481 899.015 341.245 899.803 340.966 900.586 340.782 901.708 340.51 904.735 340.764 905.805 341.059 906.919 341.356 908.067 341.904 909.224 342.032 912.029 342.354 912.105 341.692 914.75 342.971 916.96 344.035 918.287 346.071 920.622 346.975 922.37 347.645 924.205 348.289 926.004 348.809 927.318 349.185 928.74 349.332 930.023 349.782 932.138 350.529 935.363 353.374 935.99 355.688 936.665 358.158 935.485 361.272 934.398 363.507 934.126 364.064 933.746 364.55 933.545 365.142 933.241 366.037 933.592 366.891 933.328 367.83 932.858 368.508 932.219 368.508 931.852 369.578 931.45 370.758 931.862 372.233 931.327 373.336 930.779 374.449 929.927 374.986 929.066 375.834 928.596 376.303 928.149 376.831 927.706 377.329 927.506 377.538 927.332 378.338 927.28 378.608 927.111 379.46 927.045 380.313 926.814 381.163 926.505 382.214 925.966 383.288 925.779 384.363L925.257 387.303C925.132 387.972 924.074 390.643 923.758 391.243 923.427 391.86 921.344 395.244 920.53 395.992 920.53 395.992 920.53 396.001 920.522 396.001 920.475 396.031 920.431 396.066 920.391 396.105 919.226 397.079 918.447 398.906 917.373 400.019 916.416 401.019 915.506 401.837 914.32 402.585 913.059 403.386 910.336 404.347 910.316 406.204 910.298 407.165 910.623 408.107 910.697 409.052L910.775 411.056C910.845 412.827 910.83 414.009 912.497 414.946 912.842 415.137 913.262 415.39 913.654 415.472 914.512 415.657 915.445 415.785 916.28 416.034 917.463 416.377 919.455 417.502 920.525 418.069 922.213 418.964 923.082 419.669 924.624 420.913 924.658 420.931 924.971 421.037 925.035 421.052 923.948 422.481 926.286 426.796 925.207 429.384 923.502 433.48 917.973 430.95 914.769 431.533 912.64 431.916 910.785 433.22 908.68 433.725 906.278 434.299 904.044 435.117 901.699 435.83 900.072 436.32 898.241 435.945 896.558 436.153 895.045 436.344 894.147 437.196 892.842 437.815 892.216 438.11 891.503 438.204 890.885 438.487 890.085 438.844 889.206 439.484 888.511 440.027 885.789 442.14 886.267 444.723 882.423 445.856 881.979 445.983 881.231 446.195 880.77 446.047 877.639 445.072 877.84 438.601 876.901 435.896 876.615 435.07 875.918 434.243 875.508 433.469 875.247 432.991 874.707 432.017 873.977 432.391 872.968 433.497 872.072 434.991 871.312 436.27 870.714 437.27 870.408 438.057 869.486 438.879 868.181 440.045 862.37 440.175 861.718 442.002L861.726 441.854 861.761 441.433C861.419 441.181 861.246 440.907 861.004 440.616 859.378 438.624 857.708 436.623 855.846 434.849 855.147 434.179 854.129 433.744 853.315 433.238 852.645 432.813 851.715 431.999 850.888 431.91 849.059 431.682 846.992 432.457 845.243 432.866 845.026 432.921 844.547 432.692 844.392 432.562 843.992 433.544 842.572 433.362 841.749 433.544 840.192 433.874 839.044 435.51 837.156 435.101 836.713 434.927 836.156 434.344 836.008 433.888Z" stroke="#000000" stroke-width="1.73964" fill="#FFFFFF" transform="matrix(1 0 0 1 -205.559 -92.9062)"/><text fill="#6A0707" font-family="Arial,Arial_MSFontService,sans-serif" font-weight="400" font-size="9" transform="matrix(0.869819 0 0 0.869822 646.066 294)">Kahramanmaraş</text><path d="M913.752 484.027C915.926 485.332 921.171 490.012 921.171 490.012 919.893 490.664 918.562 491.649 917.518 492.621 917.066 493.039 916.457 493.327 915.979 493.717 915.779 493.882 915.596 494.213 915.378 494.345 915.091 494.528 914.596 494.684 914.274 494.745 910.255 495.502 908.881 493.414 906.511 493.414 905.85 493.414 904.72 494.102 904.173 493.954 902.286 493.467 900.398 492.449 898.363 492.832 897.229 493.04 895.971 493.006 894.893 493.414 894.492 493.573 893.68 494.119 893.281 494.093 892.905 494.075 892.722 493.841 892.435 493.675 892.079 493.467 890.617 493.275 890.182 493.275 889.347 493.275 888.286 494.201 887.921 494.911 887.747 495.256 887.649 495.78 887.439 496.09 887.326 496.247 887.039 496.377 886.848 496.399 885.83 496.536 885.169 495.729 884.742 494.902 884.377 494.205 883.429 494.014 882.968 493.371 882.925 493.211 882.914 492.881 882.968 492.736 883.081 492.414 883.481 492.162 883.647 491.831 883.881 491.327 884.287 489.165 884.264 488.63 883.577 487.27 882.237 486.968 881.208 485.743 880.373 484.724 877.5 483.405 876.207 483.238 875.53 483.151 874.754 483.351 874.051 483.263 872.007 483.002 869.415 482.28 867.44 481.652 866.457 481.341 865.471 480.816 864.544 480.393 862.908 479.636 861.151 479.07 859.368 478.853 859.133 478.8 858.933 478.661 858.724 478.618 858.7 478.606 858.672 478.606 858.646 478.6 859.612 477.695 862.386 475.174 864.161 474.459 866.335 473.59 872.424 472.285 873.294 469.675 874.164 467.066 875.034 460.977 878.948 463.152 882.862 465.326 884.167 467.066 884.167 469.24 884.167 471.415 884.167 473.155 886.776 473.155 889.386 473.155 894.605 474.459 894.605 474.459 894.605 474.459 897.649 474.894 899.823 477.939 901.998 480.983 903.303 484.462 903.303 484.462L906.347 487.072C906.347 487.072 909.391 488.376 910.261 486.202 911.131 484.027 911.577 482.723 913.752 484.027Z" stroke="#000000" stroke-width="1.73964" fill="#FFFFFF" transform="matrix(1 0 0 1 -205.559 -92.9062)"/><text fill="#6A0707" font-family="Arial,Arial_MSFontService,sans-serif" font-weight="400" font-size="9" transform="matrix(0.869819 0 0 0.869822 676.162 390)">Kilis</text><path d="M942.031 443.982C942.457 444.46 943.074 446.243 942.521 446.826 942.213 446.826 941.669 446.421 941.561 446.148 940.407 445.391 939.755 446.339 939.986 447.478 940.142 448.244 940.316 449.744 940.664 450.397 941.307 451.597 942.447 452.676 942.769 454.015 943.013 455.043 942.265 457.051 941.951 458.025 941.712 458.764 942.147 459.773 942.901 460.006 943.119 459.947 943.935 459.772 944.126 459.937 944.63 460.46 945.161 461.659 946.173 461.182 947.1 460.737 948.269 460.006 949.366 460.217 949.766 460.452 949.627 461.809 949.54 462.139 949.331 462.896 948.713 463.418 948.622 464.236 948.422 465.992 950.283 467.471 951.579 468.271 952.188 468.654 952.293 472.281 952.467 473.125 952.813 473.675 953.896 474.158 953.989 474.441 954.113 475.161 952.878 475.186 952.595 477.033 952.508 477.641 952.63 478.32 952.902 478.895 952.685 479.054 952.339 479.159 952.065 479.208 951.38 479.251 950.911 479.364 950.258 479.573 949.708 479.755 949.068 479.843 948.564 480.138 947.337 480.833 946.294 481.808 945.039 482.461 943.952 483.044 942.74 483.165 941.618 483.582 940.14 484.13 938.583 484.691 937.156 485.356 936.721 485.556 936.173 485.835 935.688 485.848 934.099 485.909 932.129 485.552 930.668 485.826 930.277 485.904 929.972 486.144 929.589 486.27 927.476 486.974 926.797 487.515 924.91 488.444 923.701 489.043 922.37 489.403 921.17 490.01 921.17 490.01 915.925 485.33 913.75 484.026 911.576 482.721 911.141 484.026 910.271 486.2 909.401 488.375 906.357 487.07 906.357 487.07L903.312 484.46C903.312 484.46 902.008 480.981 899.833 477.937 897.658 474.892 894.614 474.458 894.614 474.458 894.614 474.458 889.395 473.153 886.786 473.153 884.176 473.153 884.176 471.413 884.176 469.239 884.176 467.064 882.872 465.324 878.957 463.15 875.043 460.975 874.173 467.064 873.304 469.674 872.434 472.283 866.345 473.588 864.17 474.458 862.396 475.171 859.621 477.693 858.656 478.6 858.247 478.53 857.925 478.6 857.542 478.608 856.446 478.289 855.681 478.6 854.898 477.785 854.624 476.462 854.263 474.867 852.689 474.601 850.133 474.175 850.927 473.966 849.109 472.914 848.514 472.574 847.857 472.435 847.266 472.135 845.543 471.257 844.273 469.813 843.038 468.378 842.96 468.282 842.864 468.073 842.882 467.943 842.652 466.229 846.315 463.446 847.358 462.289 848.101 461.462 848.935 460.654 849.693 459.838 850.398 459.081 850.998 458.123 851.56 457.262 851.986 456.61 852.491 455.983 852.899 455.33 853.726 454.008 854.352 452.347 855.083 450.922 855.635 449.845 856.135 448.393 856.927 447.468L861.737 441.848 861.728 441.996C862.38 440.169 868.191 440.039 869.495 438.873 870.42 438.047 870.722 437.264 871.324 436.264 872.079 434.985 872.975 433.491 873.988 432.384 874.719 432.01 875.258 432.985 875.519 433.463 875.93 434.237 876.624 435.063 876.914 435.89 877.854 438.591 877.654 445.066 880.781 446.041 881.242 446.188 881.994 445.98 882.433 445.845 886.278 444.713 885.799 442.131 888.522 440.021 889.218 439.473 890.096 438.839 890.896 438.481 891.513 438.194 892.223 438.1 892.853 437.805 894.157 437.188 895.05 436.335 896.567 436.146 898.254 435.937 900.081 436.309 901.708 435.823 904.056 435.11 906.291 434.292 908.692 433.718 910.797 433.213 912.65 431.909 914.781 431.525 917.982 430.942 923.514 433.473 925.219 429.377 926.294 426.786 923.957 422.473 925.045 421.044 925.271 421.169 925.419 421.063 925.628 421.07 927.002 421.105 928.765 421.218 930.09 420.783 930.351 420.704 930.603 420.511 930.864 420.417 932.447 419.817 934.813 418.8 936.448 418.781 938.807 418.747 938.642 419.009 940.635 419.78 941.669 420.191 942.766 420.545 943.819 420.901 944.88 421.249 945.913 421.701 946.976 422.043 947.756 422.295 948.62 422.389 949.403 422.651 950.871 423.145 954.309 425.147 954.244 427.089L953.924 427.446C953.856 427.435 953.765 427.391 953.696 427.376 951.269 428.785 951.132 425.776 948.958 429.264 948.764 429.559 947.664 430.079 947.32 430.403 946.783 430.919 946.532 431.824 946.063 432.417 945.524 433.078 944.776 433.513 944.149 434.065 943.523 434.63 943.12 435.431 942.497 436.036L942.462 436.34C942.645 436.453 942.987 436.706 943.106 436.897 943.41 437.666 942.227 437.996 941.783 438.202 941.583 438.297 941.141 438.91 941.062 439.072 941.002 439.188 940.28 442.163 940.28 442.177 940.332 442.333 940.532 442.812 940.671 442.919 941.074 443.223 941.691 443.609 942.031 443.982Z" stroke="#000000" stroke-width="1.73964" fill="#FFFFFF" transform="matrix(1 0 0 1 -205.559 -92.9062)"/><text fill="#6A0707" font-family="Arial,Arial_MSFontService,sans-serif" font-weight="400" font-size="9" transform="matrix(0.869819 0 0 0.869822 681.122 364)">Gaziantep</text><path d="M939.986 447.48C939.751 446.338 940.403 445.393 941.562 446.148 941.664 446.427 942.214 446.827 942.521 446.827 943.078 446.243 942.46 444.461 942.031 443.983 941.69 443.609 941.073 443.225 940.668 442.904 940.529 442.8 940.325 442.321 940.277 442.165 940.277 442.146 940.999 439.173 941.06 439.059 941.138 438.896 941.582 438.284 941.782 438.19 942.225 437.981 943.404 437.65 943.104 436.885 942.982 436.693 942.643 436.441 942.46 436.327L942.495 436.023C943.125 435.423 943.526 434.622 944.148 434.055 944.774 433.499 945.522 433.064 946.061 432.404 946.531 431.813 946.783 430.907 947.318 430.394 947.662 430.072 948.762 429.55 948.957 429.254 951.132 425.761 951.267 428.769 953.694 427.366 953.764 427.384 953.855 427.422 953.924 427.431 954.277 427.333 955.068 428.384 955.547 428.454 956.218 428.462 956.751 427.262 957.705 427.099 958.696 427.082 961.106 430.377 962.835 429.126L963.145 429.17 963.362 429.368 963.475 429.976 963.693 430.159C964.336 430.411 964.91 429.811 965.016 429.198 965.163 428.305 964.798 427.73 965.346 426.91 966.059 426.536 967.886 427.693 969.486 427.145 970.104 426.692 969.794 425.415 970.287 424.995 971.283 424.169 972.522 425.178 973.148 424.72 975.462 422.99 975.384 423.838 978.106 424.204 978.915 424.308 979.594 423.404 980.751 423.458 982.986 423.563 985.108 423.858 986.935 422.247 987.231 421.976 987.422 421.629 987.674 421.353 988.179 420.823 988.683 420.186 989.231 419.701 989.779 419.215 990.536 418.911 991.026 418.344 991.436 417.874 991.461 417.091 991.862 416.691 992.754 415.787 993.533 415.867 994.346 415.308 995.089 414.812 995.938 413.203 996.407 412.464 996.912 411.678 1002.17 412.055 1003.2 411.997 1004.74 411.906 1005.7 410.675 1007.38 410.576 1007.85 410.555 1008.35 410.646 1008.82 410.594 1009.22 410.559 1009.64 410.368 1010.05 410.315 1010.82 410.225 1011.05 410.508 1011.71 410.028 1011.82 409.941 1011.97 409.811 1012.03 409.663L1011.95 409.385C1010.88 409.089 1007.52 407.776 1007.19 406.685 1007.16 406.385 1007.31 406.098 1007.57 405.954 1008.59 405.371 1009.01 406.032 1009.83 406.563 1010.23 406.824 1011.28 407.089 1011.66 406.628 1012.57 403.836 1013.59 405.636 1014.96 405.658L1015.53 405.441 1015.68 405.205C1015.81 404.318 1014.26 404.031 1013.72 402.526 1013.64 401.275 1015.55 401.565 1016.25 401.613 1016.41 401.63 1018.51 401.091 1018.64 401.014L1018.66 400.797C1018.35 400.491 1017.82 399.883 1017.69 399.448 1017.66 398.778 1018.29 398.632 1018.1 397.534 1017.67 396.586 1016.99 397.299 1016.42 397.553 1015.27 398.084 1015.61 397.78 1014.48 398.729 1014.37 398.82 1013.99 398.824 1013.86 398.777 1013.77 398.65 1013.7 398.307 1013.78 398.168 1014.12 397.537 1015.14 395.602 1015.96 395.432 1017.44 395.127 1017.57 395.249 1019.07 395.558 1019.21 395.58 1019.55 395.497 1019.67 395.419 1020.17 394.459 1019.26 393.636 1019.55 392.635 1019.81 391.731 1020.97 391.748 1020.87 390.748 1020.73 390.348 1020.04 389.765 1019.71 389.533L1019.71 389.281C1020.41 388.272 1023.26 388.03 1024.96 385.871 1026.02 384.531 1024.38 382.548 1026.01 381.27 1026.92 380.562 1029.45 379.553 1030.63 379.356 1031.26 379.253 1031.96 379.266 1032.59 379.121 1033 379.034 1033.5 378.164 1033.77 377.886 1034.05 377.625 1034.47 377.521 1034.67 377.164L1034.84 377.094C1035.76 377.761 1038.81 380.4 1039.97 380.617 1040.6 380.744 1041.16 380.654 1041.78 380.643 1043.36 380.608 1044.92 380.723 1046.48 380.739 1048.01 380.748 1049.44 380.617 1050.95 381.016 1053.21 381.615 1056.38 385.024 1058.03 386.792 1058.52 387.333 1058.94 388.123 1059.56 388.532 1060.9 389.401 1062.24 390.402 1063.68 391.072 1064.93 391.654 1067.82 392.15 1068.62 393.037 1068.61 393.874 1068.07 394.904 1068.43 395.716 1069.25 397.586 1072.18 397.649 1073.22 395.925 1073.71 395.101 1074.34 393.43 1075.45 393.291 1077.25 393.883 1077.05 395.266 1077.82 396.379 1078.7 397.64 1080.9 396.579 1081.89 398.132 1082.48 399.054 1081.79 400.715 1081.71 401.724 1081.61 403.151 1081.46 404.595 1081.38 406.02 1081.31 407.36 1081.44 408.699 1081.43 410.03 1081.42 410.508 1081.3 410.99 1081.3 411.457 1081.3 412.947 1082.03 413.687 1082.5 415.005 1082.75 415.714 1082.88 416.583 1083.06 417.319 1083.06 417.345 1083.18 417.513 1083.21 417.545 1083.14 417.705 1083.11 417.98 1083.15 418.154 1083.68 420.557 1084.69 422.686 1085.64 424.951 1086.07 425.977 1086.34 427.143 1086.93 428.099 1087.47 428.992 1089.34 430.985 1090.1 431.924 1090.78 432.785 1092.02 433.341 1092.49 434.308 1092.61 434.982 1092.04 436.791 1091.9 437.551 1090.9 443.605 1091.97 442.865 1096.48 446.8 1096.54 446.857 1096.57 446.971 1096.63 447.035 1098.04 448.34 1099.23 449.731 1100.75 450.932 1101.85 451.789 1100.49 455.19 1100.37 456.272 1100.25 457.316 1100.01 459.821 1100.48 460.899 1101.03 462.15 1101.89 464.389 1102.67 465.447 1105.53 469.361 1105.2 469.266 1109.64 471.336L1109.71 471.474C1108.09 472.251 1104.43 474.93 1103.13 475.226 1102.47 475.382 1101.86 475.389 1101.19 475.443 1099.46 475.572 1097.54 476.512 1096.15 477.539 1094.88 478.496 1092.81 479.931 1091.29 480.366 1089.77 480.686 1088.51 481.688 1087.04 482.184 1085.26 482.783 1083.48 483.305 1081.7 483.915 1080.46 484.332 1079.43 485.089 1078.03 485.549 1076.36 486.089 1073.51 485.63 1071.7 485.889 1070.59 486.054 1069.42 486.271 1068.34 486.569 1067.41 486.82 1066.62 487.481 1065.68 487.743 1064.76 487.995 1063.77 487.952 1062.77 488.203 1061.71 488.569 1060.31 488.376 1059.19 488.577 1058.6 488.682 1057.88 488.69 1057.32 488.884 1056.04 489.318 1054.56 489.771 1053.22 489.96 1053.03 489.986 1052.14 489.995 1052.07 490.073L1051.68 490.004C1051.02 490.36 1050.3 490.236 1049.6 490.336 1048.41 490.509 1047.22 490.644 1046.04 490.897 1045.41 491.036 1044.75 491.242 1044.14 491.454 1043.74 491.592 1043.31 491.579 1042.91 491.69 1041.41 492.107 1039.92 492.421 1038.4 492.699 1037.44 492.873 1034.76 492.793 1033.81 492.575 1032.73 492.334 1031.83 491.636 1030.8 491.316 1029.19 490.812 1027.72 489.942 1026.07 489.507 1025.06 489.244 1024 489.09 1022.96 489.194 1022.69 489.229 1022.35 489.359 1022.1 489.194 1020.87 489.725 1019.53 490.125 1018.2 490.125 1017.19 490.125 1016.18 490.289 1015.2 490.289 1014.24 490.283 1013.27 490.251 1012.3 490.194 1011.92 490.176 1011.57 490.046 1011.19 490.037 1009.27 489.967 1003.28 490.274 1001.84 489.567 1000.19 488.751 998.713 487.21 997.443 485.924 996.809 485.281 995.991 484.723 995.245 484.105 994.819 483.739 994.48 483.294 994.097 482.889 993.584 482.349 992.871 481.966 992.367 481.419 992.056 481.08 991.76 480.732 991.44 480.4 991.144 480.096 990.9 479.584 990.683 479.226 989.891 477.965 987.717 476.634 986.279 476.26 985.549 475.964 984.713 475.895 984.001 475.538 983.473 475.277 982.983 474.939 982.47 474.651 981.392 474.057 979.549 473.529 978.347 473.207 977.389 472.945 976.554 473.607 975.645 473.389 975.115 473.259 974.601 472.928 974.068 472.833 972.98 472.624 971.771 472.85 970.703 472.554 969.957 472.346 969.164 471.876 968.39 471.849 967.416 471.814 966.573 472.238 965.666 472.455 965.129 472.586 964.521 472.438 963.973 472.568 963.344 472.728 962.143 473.603 961.485 473.929 960.477 474.407 958.684 474.92 957.962 475.327 956.179 476.346 954.576 477.695 952.961 478.896 952.943 478.905 952.926 478.922 952.906 478.922 952.634 478.347 952.516 477.669 952.6 477.057 952.878 475.213 954.113 475.189 953.993 474.465 953.9 474.178 952.817 473.702 952.471 473.151 952.299 472.307 952.195 468.679 951.584 468.299 950.288 467.497 948.426 466.02 948.626 464.261 948.717 463.445 949.334 462.921 949.542 462.164 949.63 461.834 949.769 460.479 949.369 460.242 948.271 460.036 947.104 460.767 946.177 461.208 945.168 461.686 944.636 460.486 944.129 459.96 943.938 459.797 943.122 459.973 942.905 460.03 942.149 459.795 941.714 458.784 941.955 458.049 942.268 457.075 943.019 455.062 942.772 454.039 942.451 452.702 941.309 451.625 940.668 450.421 940.316 449.748 940.142 448.245 939.986 447.48Z" stroke="#000000" stroke-width="1.73964" fill="#FFFFFF" transform="matrix(1 0 0 1 -205.559 -92.9062)"/><text fill="#6A0707" font-family="Arial,Arial_MSFontService,sans-serif" font-weight="400" font-size="9" transform="matrix(0.869819 0 0 0.869822 805.553 351)">Sanliurfa</text><path d="M925.626 421.062C925.417 421.053 925.269 421.158 925.043 421.038 924.982 421.019 924.664 420.915 924.63 420.898 923.09 419.655 922.22 418.95 920.533 418.054 919.463 417.489 917.471 416.366 916.288 416.017 915.453 415.773 914.526 415.643 913.661 415.46 913.27 415.373 912.848 415.12 912.505 414.929 910.835 414.001 910.852 412.815 910.782 411.041L910.704 409.04C910.626 408.092 910.304 407.153 910.323 406.189 910.341 404.335 913.059 403.371 914.324 402.571 915.507 401.822 916.421 401.004 917.377 400.005 918.447 398.891 919.23 397.065 920.399 396.09 920.434 396.064 920.486 396.029 920.526 395.986 920.535 395.986 920.535 395.977 920.535 395.977 921.578 395.281 926.054 394.829 926.931 394.706 927.984 394.559 929.016 394.289 930.045 394.054 930.898 393.854 932.347 393.741 933.142 393.402 933.672 393.167 934.021 392.696 934.465 392.349 935.604 391.436 938.275 390.557 939.671 390.298 940.776 390.089 942.588 390.41 943.654 390.655L945.59 391.09C947.022 391.489 948.243 392.412 949.743 391.863 950.387 391.628 950.996 391.289 951.631 391.047 952.483 390.716 953.314 390.463 954.149 390.089 954.653 389.854 955.175 389.515 955.706 389.314 956.993 388.823 962.986 388.026 963.734 387.091 964.465 386.186 964.911 383.532 964.708 382.445 964.327 380.324 964.039 380.144 965.387 378.187 965.613 377.843 965.97 377.443 966.361 377.261 968.318 376.374 973.537 374.207 974.416 372.06 974.972 370.712 977.434 363.997 979.356 363.329L982.195 362.354C983.805 361.796 985.144 363.441 986.518 363.17 989.004 362.676 988.58 359.028 991.085 360.456 991.676 360.797 992.19 361.361 992.816 361.622 994.067 362.153 995.712 362.111 996.225 363.633 996.317 364.685 994.795 366.156 993.96 366.599 993.022 367.104 991.134 367.572 990.499 368.164 990.282 368.373 990.121 368.99 990.157 369.263 990.308 370.5 991.705 370.431 992.714 370.478 992.912 370.591 993.262 370.826 993.375 371.034 993.584 371.382 993.784 371.814 994.019 372.136 994.567 372.876 995.957 373.015 996.741 372.675 997.167 372.492 997.542 372.109 997.968 371.927 998.698 371.605 999.577 371.615 1000.35 371.605 1000.73 371.605 1001.3 371.596 1001.66 371.763 1002.6 372.198 1004.65 374.244 1005.75 373.661 1006.68 373.157 1007.41 372.8 1008.43 372.513 1008.81 372.409 1009.17 372.209 1009.6 372.169 1010.61 372.074 1011.66 372.109 1012.68 372.004 1013.3 371.935 1013.97 371.752 1014.6 371.726 1015.08 371.708 1015.67 371.822 1016.15 371.865 1016.22 371.874 1016.41 371.83 1016.49 371.822 1016.86 371.526 1017.12 371.047 1017.46 370.786 1018.36 370.091 1019.67 370.169 1020.72 369.998 1021.53 369.869 1022.4 369.656 1023.19 369.483 1023.85 369.345 1024.48 368.955 1025.08 368.693 1027.45 367.658 1027.57 367.136 1028.93 364.907 1028.99 364.829 1029.06 364.751 1029.13 364.672 1029.54 365.15 1030.02 365.488 1030.62 365.663 1033.72 366.579 1034.26 362.688 1036.2 363.48 1036.74 363.706 1037.13 364.202 1037.61 364.534 1039.26 365.689 1039.14 365.674 1039.07 367.568 1039.06 367.907 1039.11 368.255 1039.08 368.596 1038.99 370.091 1037.4 370.919 1037.34 371.769 1037.29 372.445 1037.19 373.142 1037.3 373.82 1037.34 374.08 1037.49 374.454 1037.49 374.707 1037.49 374.788 1037.37 375.328 1037.34 375.429 1036.7 376.365 1035.24 376.148 1034.67 377.155 1034.47 377.512 1034.04 377.616 1033.78 377.877 1033.5 378.156 1033 379.025 1032.59 379.112 1031.97 379.26 1031.26 379.243 1030.63 379.347 1029.45 379.547 1026.92 380.558 1026.02 381.263 1024.38 382.54 1026.03 384.524 1024.97 385.863 1023.26 388.019 1020.41 388.264 1019.71 389.273L1019.71 389.525C1020.04 389.76 1020.73 390.342 1020.88 390.742 1020.97 391.742 1019.82 391.724 1019.56 392.629 1019.27 393.63 1020.17 394.458 1019.68 395.412 1019.55 395.49 1019.22 395.575 1019.07 395.551 1017.58 395.242 1017.44 395.125 1015.97 395.424 1015.15 395.589 1014.12 397.534 1013.78 398.161 1013.71 398.3 1013.77 398.648 1013.86 398.769 1013.99 398.822 1014.38 398.813 1014.49 398.721 1015.62 397.771 1015.27 398.082 1016.43 397.545 1017 397.292 1017.67 396.579 1018.11 397.527 1018.3 398.623 1017.66 398.771 1017.69 399.44 1017.83 399.875 1018.35 400.483 1018.67 400.788L1018.65 401.006C1018.52 401.084 1016.42 401.625 1016.26 401.606 1015.55 401.55 1013.65 401.266 1013.73 402.518 1014.26 404.023 1015.82 404.313 1015.69 405.197L1015.53 405.432 1014.97 405.65C1013.6 405.632 1012.58 403.827 1011.67 406.62 1011.29 407.079 1010.24 406.816 1009.84 406.556 1009.02 406.025 1008.6 405.364 1007.58 405.946 1007.31 406.103 1007.17 406.346 1007.19 406.677 1007.53 407.773 1010.89 409.086 1011.96 409.382L1012.04 409.655C1011.98 409.803 1011.83 409.934 1011.72 410.021 1011.05 410.499 1010.82 410.218 1010.05 410.308 1009.65 410.363 1009.23 410.55 1008.83 410.586 1008.36 410.638 1007.85 410.542 1007.38 410.569 1005.71 410.662 1004.74 411.897 1003.21 411.985 1002.18 412.046 996.921 411.664 996.416 412.455 995.945 413.194 995.092 414.804 994.354 415.299 993.537 415.858 992.763 415.778 991.867 416.682 991.467 417.083 991.441 417.865 991.032 418.335 990.545 418.9 989.788 419.205 989.24 419.692 988.688 420.183 988.184 420.814 987.681 421.345 987.43 421.623 987.235 421.971 986.939 422.241 985.113 423.85 982.99 423.554 980.758 423.45 979.602 423.397 978.923 424.302 978.114 424.198 975.389 423.832 975.47 422.98 973.156 424.711 972.53 425.172 971.287 424.163 970.294 424.988 969.799 425.406 970.112 426.684 969.494 427.137 967.894 427.687 966.068 426.53 965.35 426.902 964.802 427.72 965.169 428.295 965.02 429.19 964.915 429.798 964.344 430.405 963.698 430.152L963.48 429.968 963.367 429.359 963.15 429.164 962.837 429.12C961.106 430.369 958.696 427.076 957.706 427.095 956.749 427.255 956.218 428.455 955.549 428.446 955.071 428.376 954.279 427.324 953.924 427.425L954.245 427.072C954.306 425.132 950.871 423.131 949.4 422.632 948.621 422.37 947.757 422.275 946.974 422.023 945.913 421.682 944.879 421.236 943.816 420.882 942.764 420.527 941.668 420.17 940.633 419.76 938.642 418.984 938.806 418.727 936.449 418.762 934.814 418.78 932.448 419.796 930.865 420.397 930.604 420.491 930.352 420.684 930.091 420.765 928.766 421.211 927 421.099 925.625 421.063Z" stroke="#000000" stroke-width="1.73964" fill="#FFFFFF" transform="matrix(1 0 0 1 -205.559 -92.9062)"/><text fill="#6A0707" font-family="Arial,Arial_MSFontService,sans-serif" font-weight="400" font-size="9" transform="matrix(0.869819 0 0 0.869822 751.68 309)">Adiyaman</text><path d="M981.653 337.986 981.888 339.202C983.358 339.533 983.353 340.418 984.109 340.69 984.455 340.818 984.886 340.813 985.229 340.926 985.725 341.09 986.23 341.37 986.708 341.579 986.986 341.701 988.074 341.196 988.578 341.204 989.3 341.742 990.125 341.63 990.935 341.865 991.534 342.039 991.761 342.944 992.367 343.239 993.019 343.561 993.672 342.796 994.335 343.144 994.681 343.328 994.998 343.587 995.343 343.779 997.093 344.692 998.995 345.162 1000.88 345.666 1002.05 345.979 1002.83 345.205 1003.73 344.683 1004.34 344.327 1006.73 344.292 1007.66 344.17 1009.03 343.996 1009.66 344.343 1009.42 345.831 1009.85 347.082 1011.78 347.24 1012.46 348.118 1012.8 348.563 1012.84 349.294 1012.95 349.823 1013.09 350.521 1013.83 350.268 1014.27 350.312 1014.83 350.364 1015.51 350.503 1016 350.764 1018 351.817 1017.28 353.282 1019.07 353.756 1020.1 354.034 1020.9 353.243 1021.84 353.016 1022.34 352.893 1022.86 352.799 1023.38 352.694 1024.77 352.398 1028.5 351.458 1029.58 352.319 1032.16 355.216 1031.57 355.398 1030.94 358.921 1030.63 360.643 1030.57 361.828 1029.86 363.398 1029.7 363.779 1029.11 364.155 1029.13 364.659 1029.06 364.738 1028.99 364.82 1028.94 364.894 1027.57 367.124 1027.45 367.643 1025.08 368.681 1024.48 368.942 1023.85 369.333 1023.19 369.47 1022.4 369.644 1021.53 369.852 1020.72 369.984 1019.67 370.157 1018.36 370.078 1017.46 370.775 1017.12 371.036 1016.86 371.518 1016.49 371.809 1016.41 371.818 1016.23 371.862 1016.16 371.853 1015.67 371.809 1015.08 371.696 1014.6 371.714 1013.97 371.74 1013.3 371.922 1012.68 371.992 1011.66 372.096 1010.61 372.062 1009.6 372.156 1009.17 372.204 1008.81 372.399 1008.43 372.503 1007.41 372.79 1006.68 373.146 1005.75 373.649 1004.66 374.234 1002.6 372.188 1001.66 371.753 1001.3 371.589 1000.73 371.595 1000.35 371.595 999.575 371.605 998.698 371.595 997.968 371.916 997.542 372.099 997.167 372.478 996.741 372.661 995.962 373.004 994.567 372.861 994.019 372.124 993.784 371.802 993.584 371.376 993.376 371.025 993.263 370.82 992.917 370.581 992.715 370.467 991.706 370.412 990.304 370.485 990.159 369.253 990.124 368.981 990.283 368.365 990.5 368.154 991.135 367.561 993.02 367.092 993.962 366.588 994.797 366.143 996.319 364.674 996.225 363.622 995.712 362.1 994.069 362.147 992.816 361.612 992.187 361.349 991.674 360.785 991.085 360.445 988.58 359.018 989.006 362.663 986.518 363.158 985.144 363.43 983.805 361.784 982.195 362.342L979.357 363.316C977.435 363.986 974.973 370.699 974.415 372.049 973.536 374.2 968.317 376.363 966.36 377.25 965.969 377.432 965.612 377.833 965.386 378.172 964.038 380.129 964.325 380.312 964.708 382.433 964.908 383.521 964.468 386.174 963.735 387.078 962.99 388.009 956.994 388.809 955.707 389.296 955.176 389.496 954.654 389.835 954.15 390.074 953.315 390.448 952.488 390.7 951.634 391.031 950.999 391.273 950.389 391.613 949.747 391.847 948.242 392.395 947.022 391.472 945.591 391.072L943.657 390.637C942.589 390.394 940.777 390.074 939.673 390.281 938.276 390.542 935.602 391.42 934.467 392.333 934.019 392.679 933.675 393.15 933.143 393.384 932.354 393.724 930.901 393.837 930.046 394.037 929.018 394.272 927.985 394.541 926.932 394.689 926.054 394.811 921.583 395.263 920.537 395.959 921.349 395.214 923.434 391.827 923.764 391.21 924.076 390.611 925.139 387.939 925.263 387.27L925.785 384.33C925.977 383.26 926.516 382.181 926.818 381.129 927.055 380.284 927.116 379.432 927.288 378.58 927.342 378.307 927.516 377.51 927.713 377.299 928.159 376.805 928.601 376.271 929.073 375.8 929.933 374.956 930.786 374.417 931.334 373.304 931.865 372.199 931.46 370.72 931.86 369.55 932.225 368.481 932.869 368.481 933.338 367.8 933.599 366.861 933.248 366.006 933.556 365.113 933.755 364.517 934.139 364.034 934.407 363.475 935.495 361.242 936.677 358.128 935.999 355.657 935.372 353.343 932.145 350.497 930.032 349.751 928.745 349.298 927.331 349.153 926.016 348.777 924.198 348.238 922.403 347.627 920.634 346.944 918.302 346.039 916.972 344.004 914.763 342.941 912.118 341.661 912.04 342.323 909.237 342.002 908.081 341.873 906.934 341.326 905.817 341.029 904.747 340.732 901.72 340.479 900.598 340.751 899.818 340.935 899.023 341.211 898.249 341.448 896.614 341.937 894.496 342.3 894.084 340.09 894.117 339.975 894.347 339.175 894.382 339.115 894.599 338.724 897.191 335.948 897.494 335.73 898.513 334.988 901.82 332.914 901.615 331.291 901.546 330.777 901.241 330.334 901.18 329.863 903.337 329.654 904.616 328.515 906.342 327.271 906.716 327.001 907.158 326.812 907.521 326.506 908.748 325.478 909.652 323.914 910.583 322.626 910.894 322.191 911.141 321.449 911.533 321.113 912.288 320.452 914.516 320.782 915.482 320.13 916.221 319.625 916.621 318.529 917.335 317.911 917.682 317.605 918.109 317.353 918.474 317.066 918.935 316.72 919.253 316.256 919.727 315.899 921.658 314.457 922.318 313.942 922.954 311.496 923.041 311.139 923.249 310.27 923.189 309.92 923.066 309.293 922.661 308.683 922.374 308.127 922.2 307.796 921.947 307.499 921.791 307.144 921.286 306.021 921.034 304.717 920.467 303.638 920.263 303.247 919.93 302.893 919.747 302.458 919.652 302.171 919.568 301.881 919.495 301.588 919.301 300.055 919.975 298.586 920.529 297.212 921.59 294.585 922.147 294.272 924.695 295.177 925.895 295.603 926.835 296.046 927.931 296.664 928.447 296.951 928.975 297.368 929.514 297.593 930.236 297.906 931.001 298.117 931.723 298.411 933.506 299.141 933.481 299.298 934.802 298.034 935.672 297.208 936.577 296.442 937.534 295.712 938.169 295.233 939.099 294.589 939.873 294.372 940.674 294.146 941.523 294.172 942.248 293.694 943.347 292.972 944.336 291.971 945.571 291.475 947.467 290.727 949.789 291.702 950.65 291.502 951.155 291.389 951.773 291.302 952.251 291.128 953.373 290.71 954.312 289.788 955.574 289.753 957.461 289.701 962.837 291.101 964.246 290.31 966.185 289.223 967.839 287.814 969.717 286.674 970.518 286.178 971.517 285.856 972.361 285.43 973.431 284.891 974.388 284.352 975.51 283.891 975.668 283.83 975.945 283.812 976.188 283.812L977.058 283.421C976.919 283.578 976.78 283.743 976.623 283.908 976.736 283.952 977.18 285.639 979.52 286.152 980.468 286.37 983.834 286.109 984.98 286.135 985.551 286.143 986.013 286.326 986.556 286.413 988.034 286.65 989.339 286.822 990.706 287.509 990.869 287.596 991.017 287.787 991.195 287.857 992.561 288.431 993.796 288.683 994.962 289.631 995.707 290.24 996.136 291.067 996.754 291.78 996.998 292.058 997.355 292.284 997.615 292.554 998.12 293.076 998.59 293.694 999.084 294.233 999.211 294.372 999.371 294.381 999.465 294.607 998.656 294.85 997.177 295.129 996.342 295.024 994.176 294.763 993.498 294.172 992.845 296.581 992.741 296.955 992.193 298.698 992.294 299.182 992.494 300.156 992.672 301.115 993.254 301.955 993.576 302.435 994.079 302.677 994.296 303.269 994.354 303.428 995.29 308.306 995.29 308.681 995.29 309.176 995.029 309.733 995.018 310.203 994.983 312.151 994.777 312.83 995.66 314.517 995.695 314.587 995.715 314.691 995.73 314.769L995.295 314.943C994.651 316.291 996.06 316.377 995.878 317.387 995.617 318.64 992.503 317.414 992.024 317.296 991.865 317.26 988.718 317.191 988.673 317.2 986.096 317.941 987.022 317.385 984.957 317.366 984.078 317.583 984.6 318.807 984.626 319.304 984.67 320.035 984.435 321.382 984 321.992 983.026 323.367 981.469 322.974 980.269 323.674 979.501 324.117 979.016 324.803 978.398 325.422 978.138 325.693 977.781 325.892 977.607 326.238 977.19 327.055 977.172 328.012 976.807 328.859 976.476 329.614 975.676 330.025 975.502 330.86 975.38 331.478 976.65 333.174 976.885 333.643 977.068 333.997 977.346 334.557 977.468 334.922 977.755 335.792 977.445 336.385 978.016 337.21 978.225 337.523 978.967 337.986 979.356 337.888 980.18 337.708 981.001 337.23 981.653 337.986Z" stroke="#000000" stroke-width="1.73964" fill="#FFFFFF" transform="matrix(1 0 0 1 -205.559 -92.9062)"/><text fill="#6A0707" font-family="Arial,Arial_MSFontService,sans-serif" font-weight="400" font-size="9" transform="matrix(0.869819 0 0 0.869822 733.344 244)">Malatya</text><path d="M1046.5 380.728C1044.93 380.711 1043.36 380.598 1041.79 380.633 1041.17 380.642 1040.61 380.728 1039.98 380.608 1038.82 380.391 1035.76 377.746 1034.85 377.085L1034.68 377.154C1035.24 376.145 1036.71 376.363 1037.34 375.423 1037.37 375.325 1037.5 374.787 1037.5 374.702 1037.5 374.455 1037.35 374.074 1037.31 373.814 1037.19 373.136 1037.3 372.44 1037.34 371.762 1037.4 370.911 1038.99 370.082 1039.09 368.592 1039.12 368.25 1039.07 367.905 1039.07 367.563 1039.14 365.662 1039.27 365.684 1037.62 364.53 1037.14 364.197 1036.75 363.704 1036.21 363.475 1034.27 362.687 1033.73 366.574 1030.63 365.661 1030.03 365.487 1029.55 365.148 1029.14 364.666 1029.12 364.162 1029.7 363.788 1029.87 363.409 1030.58 361.832 1030.64 360.648 1030.95 358.929 1031.58 355.405 1032.16 355.224 1029.58 352.327 1032.28 351.5 1035.02 350.953 1037.8 350.44 1038.76 350.256 1039.44 349.422 1040.46 349.247 1042.79 348.83 1043.21 351.465 1044.68 351.857 1046.06 352.222 1047.86 352.326 1049.27 352.326 1051.07 352.326 1052.58 350.882 1054.32 350.497 1055.88 350.167 1057.66 350.949 1059.07 350.588 1059.97 350.362 1060.38 349.484 1061.05 348.979 1061.84 348.388 1062.89 348.736 1063.76 348.744 1064.21 348.753 1064.67 348.656 1065.12 348.649 1066.42 348.63 1067.75 348.901 1069.03 349.075 1069.65 349.153 1071.48 348.962 1072.06 348.812 1072.81 348.63 1073.45 348.116 1074.12 347.786 1075.01 347.351 1076.29 347.168 1076.96 346.368 1077.67 345.522 1077.49 344.568 1078.07 343.678 1078.51 343.017 1079.37 342.738 1079.74 342.137 1080.18 341.44 1080.26 339.676 1080.66 338.797 1080.82 338.452 1081.26 338.126 1081.6 338.006L1082.34 337.73C1083.55 337.385 1086.1 339.344 1086.87 339.948 1089.46 341.96 1089.78 341.234 1092.53 340.739 1093.89 340.294 1099.97 340.348 1100.85 340.339 1101.19 340.339 1101.53 340.245 1101.87 340.245 1102.26 340.263 1102.64 340.437 1103.05 340.393 1104.26 340.265 1105.32 340.219 1106.51 340.245 1107.74 340.28 1109.02 340.487 1110.25 340.463 1110.99 340.437 1111.68 340.367 1112.43 340.437 1114.53 340.456 1116.6 340.314 1118.67 340.245 1119.38 340.227 1120.1 340.176 1120.81 340.176 1123.15 340.193 1123.06 340.358 1124.48 338.313 1124.82 337.819 1125.2 337.279 1125.23 336.651 1125.28 335.075 1125.57 333.607 1125.68 332.041 1125.75 331.024 1125.94 329.738 1126.85 329.09 1129.74 327.055 1129.69 330.029 1131.86 330.489 1133.14 330.76 1134.2 329.419 1135.22 328.897 1138.73 327.662 1140.21 329.906 1143.45 330.089 1144.7 330.158 1146.05 329.68 1147.26 329.462 1149.08 329.132 1151.62 329.818 1153.39 330.115 1154.6 330.314 1155.78 329.897 1156.89 329.549 1157.49 329.368 1158.11 329.253 1158.7 329.062 1160.38 328.523 1161.91 327.234 1163.39 326.328 1164.33 325.766 1165.37 325.458 1166.31 324.954 1167.26 324.449 1167.7 323.486 1169.29 322.756 1170.28 322.311 1171.22 322.266 1172.22 321.945 1173.15 321.639 1174.02 321.129 1174.93 320.822 1175.42 320.659 1176.01 320.64 1176.52 320.516 1177.61 320.255 1178.93 319.3 1179.61 318.456 1179.96 320.16 1180.41 320.353 1181.72 321.518 1183.06 322.72 1187.25 324.825 1187.92 326.052 1188.36 326.831 1189.1 328.087 1189.01 329.035 1188.83 331.107 1187.24 332.401 1188.21 334.463 1188.31 334.662 1188.37 334.872 1188.59 334.991 1189.3 335.381 1189.97 335.791 1190.81 335.852L1190.71 335.687 1190.9 335.782 1191.68 336.924C1192.02 337.427 1192.18 338.568 1192.06 339.153 1191.43 342.222 1187.97 339.552 1186.37 339.642 1185.27 339.697 1184.32 340.842 1183.35 341.292 1182.49 341.702 1181.52 342.013 1180.63 342.369 1180.54 342.404 1180.48 342.494 1180.39 342.528 1176.85 344.059 1178.89 344.648 1178.28 347.336 1177.92 348.938 1177.08 350.207 1176.6 351.729 1176.31 352.668 1176.41 353.564 1176.31 354.532 1176.26 355.027 1176.13 355.525 1176.08 356.019 1175.76 359.341 1176.26 360.423 1177.04 363.394 1177.1 363.657 1176.8 364.438 1176.74 364.709 1176.65 365.126 1176.87 365.831 1176.91 366.275 1176.99 366.997 1176.41 367.634 1176.43 368.301 1176.44 368.782 1176.59 369.344 1176.66 369.815 1176.62 370.594 1176.3 371.212 1175.97 371.772 1175.4 372.685 1174.68 373.512 1174.13 374.416 1172.87 376.53 1172.27 379.435 1171.53 381.764 1171.21 382.785 1171.07 383.858 1170.7 384.867 1169.92 386.963 1168.95 387.293 1167.13 388.346 1166.05 388.973 1164.66 390.069 1163.76 390.897 1163.68 390.987 1163.52 391.399 1163.57 391.526 1163.88 392.178 1164.33 392.9 1164.43 393.622 1164.55 394.535 1164.62 395.483 1164.8 396.379 1164.91 396.971 1165.57 398.474 1165.2 399.067 1165.39 399.443 1165.88 400.154 1166.29 400.328 1166.29 400.328 1166.35 400.528 1166.44 400.855 1165.21 402.071 1164.74 402.116 1162.88 402.203 1162.26 402.238 1161.67 402.116 1161.07 402.147 1160.66 402.164 1160.2 402.337 1159.8 402.329 1158.32 402.303 1156.87 402.007 1155.36 402.052 1154.57 402.077 1152.11 402.542 1151.26 402.704 1150.46 402.869 1149.68 403.207 1148.87 403.268 1148.51 403.293 1148.15 403.233 1147.8 403.242 1147.04 403.261 1146.11 403.564 1145.38 403.338 1143.77 402.825 1143.42 400.967 1142 400.398 1139.81 399.51 1138.06 400.833 1136 400.58 1134.72 400.42 1133.44 399.128 1132.23 399.319 1131.1 399.502 1130.71 399.989 1130.11 400.895 1128.24 403.722 1130.05 407.836 1127.81 409.272 1125.83 410.543 1123.34 408.619 1121.26 409.34 1119.26 410.027 1117.53 411.715 1115.85 412.935 1115.32 413.316 1114.71 413.611 1114.2 414.004 1113.3 414.7 1112.59 415.544 1111.59 416.127 1110.92 416.527 1110.24 416.535 1109.49 416.62 1107.17 416.863 1104.8 416.062 1102.59 415.475 1102.25 415.385 1101.94 415.212 1101.57 415.152 1100.97 415.048 1100.39 415.126 1099.78 415.126 1099.52 415.126 1099.37 414.97 1099.16 414.935 1098.99 414.917 1097.62 414.699 1097.54 414.709 1096.66 414.766 1093.93 416.689 1092.92 417.065 1091.45 417.593 1090.19 418.028 1088.62 417.9 1088.02 417.855 1083.32 417.665 1083.23 417.524 1083.21 417.489 1083.08 417.324 1083.08 417.297 1082.9 416.556 1082.77 415.687 1082.52 414.984 1082.05 413.662 1081.33 412.922 1081.33 411.435 1081.33 410.965 1081.44 410.487 1081.45 410.008 1081.47 408.678 1081.34 407.338 1081.41 405.998 1081.48 404.572 1081.63 403.128 1081.74 401.703 1081.81 400.694 1082.5 399.033 1081.91 398.108 1080.93 396.563 1078.73 397.619 1077.85 396.358 1077.07 395.248 1077.26 393.861 1075.47 393.27 1074.36 393.409 1073.73 395.079 1073.24 395.904 1072.21 397.626 1069.27 397.566 1068.46 395.695 1068.09 394.878 1068.63 393.851 1068.65 393.016 1067.84 392.129 1064.95 391.633 1063.71 391.051 1062.26 390.38 1060.93 389.381 1059.58 388.511 1058.97 388.099 1058.55 387.31 1058.05 386.771 1056.41 385.005 1053.23 381.596 1050.97 380.993 1049.45 380.608 1048.02 380.736 1046.5 380.728Z" stroke="#000000" stroke-width="1.73964" fill="#FFFFFF" transform="matrix(1 0 0 1 -205.559 -92.9062)"/><text fill="#6A0707" font-family="Arial,Arial_MSFontService,sans-serif" font-weight="400" font-size="9" transform="matrix(0.869819 0 0 0.869822 890.728 280)">Diyarbakır</text><text font-family="Century Gothic,Century Gothic_MSFontService,sans-serif" font-weight="700" font-size="8" transform="matrix(0.712624 0 0 0.712627 253.039 607)">Created with mapchart</text><text font-family="Century Gothic,Century Gothic_MSFontService,sans-serif" font-weight="700" font-size="8" transform="matrix(0.712624 0 0 0.712627 315.75 607)">.</text><text font-family="Century Gothic,Century Gothic_MSFontService,sans-serif" font-weight="700" font-size="8" transform="matrix(0.712624 0 0 0.712627 317.176 607)">net</text></g></svg>