<svg width="194" height="215" viewBox="0 0 194 215" fill="none" xmlns="http://www.w3.org/2000/svg">
<path d="M97.0836 214.34C150.473 214.34 193.754 171.059 193.754 117.67C193.754 64.2806 150.473 21 97.0836 21C43.6942 21 0.413574 64.2806 0.413574 117.67C0.413574 171.059 43.6942 214.34 97.0836 214.34Z" fill="#E5EBFA"/>
<path d="M156.624 74.19C156.624 74.19 139.664 64.75 114.764 57.96C89.8636 51.17 64.9736 48.84 64.9736 48.84C64.9736 48.84 91.5136 68.66 109.414 72.36C127.314 76.06 156.624 74.18 156.624 74.18V74.19Z" fill="#8674FC"/>
<path d="M144.104 71.41C143.344 62.69 145.494 53.75 150.134 46.33C151.914 43.48 154.234 40.73 157.424 39.68C158.364 39.37 159.694 39.41 159.994 40.36C160.074 40.63 160.054 40.91 160.004 41.19C159.594 43.56 157.584 45.27 155.854 46.94C148.624 53.9 144.314 63.8 144.144 73.83" stroke="#5700DD" stroke-width="0.53" stroke-miterlimit="10"/>
<path d="M170.434 43.88C172.844 42.99 175.564 42.34 177.924 43.36C178.394 43.56 178.854 43.84 179.124 44.28C179.424 44.76 179.444 45.37 179.354 45.93C178.994 48.03 177.194 49.57 175.384 50.71C170.964 53.49 165.854 55.01 161.294 57.55C157.504 59.67 154.114 62.51 151.344 65.85C149.954 67.53 148.744 69.33 147.664 71.22C146.474 73.3 145.514 73.13 146.174 70.68C148.264 62.95 152.814 55.93 158.884 50.74C162.304 47.81 166.224 45.46 170.444 43.89L170.434 43.88Z" fill="#2C2D40"/>
<path d="M164.584 58.46C168.454 56.28 173.104 54.55 177.264 56.11C177.924 56.36 178.644 56.8 178.724 57.5C178.764 57.89 178.604 58.27 178.404 58.61C177.184 60.72 174.854 61.9 172.594 62.8C168.014 64.62 163.194 65.76 158.604 67.54C155.134 68.89 146.434 75.44 146.434 75.44C146.434 75.44 153.764 66.43 155.094 65.25C158.004 62.66 161.194 60.38 164.594 58.46H164.584Z" stroke="#5700DD" stroke-width="0.53" stroke-miterlimit="10"/>
<path d="M164.684 69.18C166.994 68.96 169.414 68.99 171.494 70.02C172.324 70.43 173.144 71.1 173.244 72.01C173.284 72.42 173.174 72.84 172.994 73.21C172.284 74.69 170.594 75.48 168.954 75.6C167.324 75.72 165.704 75.3 164.104 74.95C161.594 74.4 159.034 74.05 156.464 74.03C153.804 74.02 151.384 74.78 148.834 75.1C149.984 73.17 154.114 71.87 156.184 71.11C158.924 70.11 161.784 69.45 164.684 69.17V69.18Z" fill="#2C2D40"/>
<path d="M138.794 72.85C134.224 66.89 132.834 58.61 135.224 51.49C137.564 44.51 143.024 39.12 147.484 33.26C151.294 28.25 154.444 22.75 156.844 16.94C160.844 25.13 160.084 35.61 155.994 43.75C153.364 48.99 149.254 53.31 145.674 57.95C142.084 62.59 139.094 66.99 138.794 72.85Z" fill="#EEB422"/>
<path d="M156.844 16.93C157.574 19.43 157.304 22.13 156.634 24.64C155.924 27.16 154.794 29.53 153.514 31.8C150.954 36.37 147.384 40.21 144.424 44.38C141.354 48.47 139.144 53.16 137.964 58.13C137.364 60.61 137.034 63.16 137.134 65.72C137.194 68.27 137.734 70.83 138.854 73.16C137.514 70.94 136.844 68.34 136.614 65.75C136.414 63.14 136.654 60.51 137.174 57.96C138.214 52.84 140.494 47.97 143.584 43.77C146.684 39.58 150.174 35.78 152.844 31.4C154.184 29.22 155.364 26.93 156.164 24.5C156.974 22.09 157.354 19.48 156.854 16.93H156.844Z" fill="#5700DD"/>
<path d="M87.0136 62.51C91.5836 56.55 92.9736 48.27 90.5836 41.15C88.2436 34.17 82.7836 28.78 78.3236 22.92C74.5136 17.91 71.3636 12.41 68.9636 6.60001C64.9636 14.79 65.7236 25.27 69.8136 33.41C72.4436 38.65 76.5536 42.97 80.1336 47.61C83.7236 52.25 86.7136 56.65 87.0136 62.51Z" fill="#E47573"/>
<path d="M68.9636 6.59C68.4636 9.14 68.8436 11.75 69.6536 14.16C70.4536 16.59 71.6336 18.88 72.9736 21.06C75.6436 25.44 79.1336 29.24 82.2336 33.43C85.3136 37.63 87.5936 42.5 88.6436 47.62C89.1636 50.18 89.4037 52.81 89.2037 55.41C88.9637 58 88.2936 60.6 86.9636 62.82C88.0836 60.49 88.6236 57.93 88.6836 55.38C88.7836 52.83 88.4536 50.27 87.8536 47.79C86.6736 42.81 84.4636 38.13 81.3936 34.04C78.4336 29.87 74.8636 26.03 72.3036 21.46C71.0236 19.2 69.8936 16.82 69.1836 14.3C68.5136 11.79 68.2436 9.09 68.9736 6.59H68.9636Z" fill="#5700DD"/>
<path d="M78.6037 61.32C80.5237 55.73 79.4937 49.21 75.9237 44.49C72.4337 39.86 67.0137 37.21 62.2237 33.95C58.1337 31.17 54.4037 27.85 51.1637 24.11C50.2237 31.22 53.4137 38.85 58.4937 43.9C61.7637 47.15 65.9137 49.35 69.7437 51.92C73.5737 54.49 76.9137 57.02 78.6037 61.32Z" fill="#EEB422"/>
<path d="M51.1536 24.11C51.4136 26.14 52.3536 27.99 53.5536 29.59C54.7536 31.2 56.2036 32.62 57.7536 33.91C60.8436 36.51 64.3936 38.47 67.7536 40.82C71.1036 43.19 74.0236 46.25 76.0836 49.81C77.1136 51.59 77.9436 53.49 78.4436 55.49C78.9136 57.48 79.0636 59.59 78.6236 61.58C78.8736 59.56 78.6436 57.52 78.0536 55.6C77.4836 53.67 76.6036 51.85 75.5336 50.15C73.4136 46.73 70.5936 43.79 67.2836 41.5C64.0336 39.13 60.4136 37.15 57.3636 34.39C55.8436 33.02 54.4036 31.53 53.2436 29.83C52.1236 28.12 51.2436 26.18 51.1636 24.13L51.1536 24.11Z" fill="#5700DD"/>
<path d="M141.874 18.01C141.874 17.14 141.854 16.22 141.444 15.45C141.314 15.2 141.084 14.95 140.804 14.96C140.424 14.98 140.244 15.42 140.174 15.79C139.414 19.75 140.494 25.01 141.724 28.8C142.004 25.23 141.874 21.58 141.864 18L141.874 18.01Z" fill="#E47573"/>
<path d="M146.484 15.19C146.664 14.33 146.834 13.44 146.594 12.6C146.514 12.33 146.354 12.04 146.074 11.99C145.704 11.93 145.434 12.33 145.284 12.68C143.714 16.4 143.694 21.76 144.114 25.73C145.124 22.3 145.764 18.7 146.494 15.2L146.484 15.19Z" fill="#E47573"/>
<path d="M154.494 22.07C155.314 21.78 156.174 21.46 156.764 20.81C156.954 20.6 157.114 20.31 157.014 20.05C156.874 19.7 156.394 19.68 156.024 19.74C152.034 20.34 147.444 23.11 144.274 25.54C147.734 24.62 151.134 23.28 154.504 22.08L154.494 22.07Z" fill="#E47573"/>
<path d="M152.464 27.29C153.324 27.15 154.224 26.99 154.924 26.46C155.144 26.29 155.364 26.03 155.304 25.75C155.224 25.38 154.754 25.27 154.384 25.26C150.354 25.13 145.334 27.02 141.774 28.83C145.344 28.55 148.924 27.85 152.464 27.28V27.29Z" fill="#E47573"/>
<path d="M151.084 30.71C151.954 30.63 152.864 30.54 153.594 30.06C153.834 29.9 154.064 29.66 154.024 29.38C153.974 29.01 153.514 28.87 153.144 28.83C149.134 28.41 143.994 29.95 140.314 31.5C143.894 31.47 147.524 31.03 151.084 30.72V30.71Z" fill="#E47573"/>
<path d="M148.514 34.66C149.384 34.58 150.294 34.49 151.024 34.01C151.264 33.85 151.494 33.61 151.454 33.33C151.404 32.96 150.944 32.82 150.574 32.78C146.564 32.36 141.424 33.9 137.744 35.45C141.324 35.42 144.954 34.98 148.514 34.67V34.66Z" fill="#E47573"/>
<path d="M146.324 38.74C147.194 38.66 148.104 38.57 148.834 38.09C149.074 37.93 149.304 37.69 149.264 37.41C149.214 37.04 148.754 36.9 148.384 36.86C144.374 36.44 139.234 37.98 135.554 39.53C139.134 39.5 142.764 39.06 146.324 38.75V38.74Z" fill="#E47573"/>
<path d="M144.214 42.96C145.084 42.88 145.994 42.79 146.724 42.31C146.964 42.15 147.194 41.91 147.154 41.63C147.104 41.26 146.644 41.12 146.274 41.08C142.264 40.66 137.124 42.2 133.444 43.75C137.024 43.72 140.654 43.28 144.214 42.97V42.96Z" fill="#E47573"/>
<path d="M142.464 47.54C143.334 47.46 144.244 47.37 144.974 46.89C145.214 46.73 145.444 46.49 145.404 46.21C145.354 45.84 144.894 45.7 144.524 45.66C140.514 45.24 135.374 46.78 131.694 48.33C135.274 48.3 138.904 47.86 142.464 47.55V47.54Z" fill="#E47573"/>
<path d="M140.814 52.4C141.684 52.32 142.594 52.23 143.324 51.75C143.564 51.59 143.794 51.35 143.754 51.07C143.704 50.7 143.244 50.56 142.874 50.52C138.864 50.1 133.724 51.64 130.044 53.19C133.624 53.16 137.254 52.72 140.814 52.41V52.4Z" fill="#E47573"/>
<path d="M139.444 56.71C140.314 56.63 141.224 56.54 141.954 56.06C142.194 55.9 142.424 55.66 142.384 55.38C142.334 55.01 141.874 54.87 141.504 54.83C137.494 54.41 132.354 55.95 128.674 57.5C132.254 57.47 135.884 57.03 139.444 56.72V56.71Z" fill="#E47573"/>
<path d="M138.154 62.13C139.024 62.05 139.934 61.96 140.664 61.48C140.904 61.32 141.134 61.08 141.094 60.8C141.044 60.43 140.584 60.29 140.214 60.25C136.204 59.83 131.064 61.37 127.384 62.92C130.964 62.89 134.594 62.45 138.154 62.14V62.13Z" fill="#E47573"/>
<path d="M137.244 68.45C138.114 68.37 139.024 68.28 139.754 67.8C139.994 67.64 140.224 67.4 140.184 67.12C140.134 66.75 139.674 66.61 139.304 66.57C135.294 66.15 130.154 67.69 126.474 69.24C130.054 69.21 133.684 68.77 137.244 68.46V68.45Z" fill="#E47573"/>
<path d="M137.374 21.34C137.114 20.5 136.834 19.63 136.204 19.02C136.004 18.82 135.714 18.65 135.454 18.74C135.104 18.87 135.064 19.35 135.104 19.72C135.544 23.73 138.124 28.43 140.424 31.69C139.644 28.2 138.444 24.75 137.384 21.33L137.374 21.34Z" fill="#E47573"/>
<path d="M134.764 25.02C134.504 24.18 134.224 23.31 133.594 22.7C133.394 22.5 133.104 22.33 132.844 22.42C132.494 22.55 132.454 23.03 132.494 23.4C132.934 27.41 135.514 32.11 137.814 35.37C137.034 31.88 135.834 28.43 134.774 25.01L134.764 25.02Z" fill="#E47573"/>
<path d="M131.734 29.5C131.414 28.69 131.054 27.84 130.394 27.28C130.174 27.1 129.874 26.95 129.624 27.06C129.284 27.21 129.274 27.7 129.344 28.07C130.094 32.03 133.034 36.52 135.574 39.59C134.524 36.17 133.064 32.82 131.734 29.5Z" fill="#E47573"/>
<path d="M128.914 33.94C128.534 33.15 128.124 32.33 127.424 31.82C127.194 31.65 126.884 31.52 126.634 31.66C126.304 31.84 126.334 32.32 126.424 32.68C127.444 36.58 130.694 40.86 133.434 43.75C132.154 40.41 130.464 37.17 128.904 33.95L128.914 33.94Z" fill="#E47573"/>
<path d="M127.134 38.56C126.754 37.77 126.344 36.95 125.634 36.44C125.404 36.27 125.094 36.14 124.844 36.28C124.514 36.46 124.544 36.94 124.634 37.3C125.654 41.2 128.904 45.48 131.644 48.37C130.364 45.03 128.674 41.79 127.114 38.57L127.134 38.56Z" fill="#E47573"/>
<path d="M125.354 43.19C124.974 42.4 124.564 41.58 123.864 41.07C123.634 40.9 123.324 40.77 123.074 40.91C122.744 41.09 122.774 41.57 122.864 41.93C123.884 45.83 127.134 50.11 129.874 53C128.594 49.66 126.904 46.42 125.344 43.2L125.354 43.19Z" fill="#E47573"/>
<path d="M123.574 47.81C123.194 47.02 122.784 46.2 122.074 45.69C121.844 45.52 121.534 45.39 121.284 45.53C120.954 45.71 120.984 46.19 121.074 46.55C122.094 50.45 125.344 54.73 128.084 57.62C126.804 54.28 125.114 51.04 123.554 47.82L123.574 47.81Z" fill="#E47573"/>
<path d="M121.674 59.79C121.294 59 120.884 58.18 120.174 57.67C119.944 57.5 119.634 57.37 119.384 57.51C119.054 57.69 119.084 58.17 119.174 58.53C120.194 62.43 123.444 66.71 126.184 69.6C124.904 66.26 123.214 63.02 121.654 59.8L121.674 59.79Z" fill="#E47573"/>
<path d="M122.624 53.74C122.244 52.95 121.834 52.13 121.134 51.62C120.904 51.45 120.594 51.32 120.344 51.46C120.014 51.64 120.044 52.12 120.134 52.48C121.154 56.38 124.404 60.66 127.144 63.55C125.864 60.21 124.174 56.97 122.614 53.75L122.624 53.74Z" fill="#E47573"/>
<path d="M148.334 19.97C147.634 20.98 146.914 21.99 146.194 22.99L144.134 26.05L142.124 29.14L140.214 32.29C137.724 36.52 135.434 40.87 133.524 45.38C131.544 49.86 129.954 54.51 128.714 59.25L127.864 62.83L127.184 66.45L126.644 70.1L126.274 73.78C126.294 72.55 126.324 71.31 126.364 70.08L126.674 66.39L127.214 62.72L127.934 59.08C129.014 54.25 130.634 49.54 132.564 44.98C134.574 40.45 136.874 36.06 139.534 31.89L141.574 28.8L143.714 25.78L145.974 22.85C146.754 21.89 147.544 20.94 148.334 20V19.97Z" fill="#5700DD"/>
<path d="M99.3037 14.67C99.4637 13.81 99.6437 12.91 100.194 12.23C100.374 12.01 100.634 11.8 100.914 11.87C101.284 11.95 101.374 12.43 101.384 12.8C101.424 16.83 99.4137 21.81 97.5237 25.32C97.8837 21.76 98.6637 18.19 99.3137 14.67H99.3037Z" fill="#EEB422"/>
<path d="M95.2836 11.07C95.2636 10.2 95.2536 9.28 95.6436 8.5C95.7736 8.25 95.9836 7.99 96.2636 7.99C96.6436 7.99 96.8336 8.44 96.9136 8.81C97.7836 12.75 96.8536 18.03 95.7336 21.86C95.3536 18.3 95.3736 14.65 95.2836 11.07Z" fill="#EEB422"/>
<path d="M86.1637 16.4C85.4037 15.96 84.6236 15.5 84.1536 14.75C84.0036 14.51 83.8937 14.19 84.0437 13.95C84.2437 13.63 84.7236 13.7 85.0836 13.82C88.9036 15.12 92.9237 18.68 95.6037 21.63C92.3737 20.1 89.2637 18.18 86.1637 16.4Z" fill="#EEB422"/>
<path d="M87.2236 21.91C86.4036 21.62 85.5436 21.3 84.9536 20.65C84.7636 20.44 84.6036 20.15 84.7036 19.89C84.8436 19.54 85.3236 19.52 85.6936 19.57C89.6836 20.16 94.2836 22.92 97.4536 25.34C93.9936 24.43 90.5936 23.1 87.2136 21.91H87.2236Z" fill="#EEB422"/>
<path d="M87.9737 25.52C87.1337 25.29 86.2538 25.03 85.6238 24.43C85.4238 24.23 85.2338 23.95 85.3238 23.69C85.4438 23.33 85.9138 23.28 86.2938 23.3C90.3138 23.61 95.1038 26.04 98.4338 28.22C94.9238 27.55 91.4238 26.47 87.9838 25.52H87.9737Z" fill="#EEB422"/>
<path d="M89.7936 29.86C88.9536 29.63 88.0736 29.37 87.4436 28.77C87.2436 28.57 87.0536 28.29 87.1436 28.03C87.2636 27.67 87.7336 27.62 88.1136 27.64C92.1336 27.95 96.9236 30.38 100.254 32.56C96.7436 31.89 93.2436 30.81 89.8036 29.86H89.7936Z" fill="#EEB422"/>
<path d="M91.2237 34.26C90.3837 34.03 89.5038 33.77 88.8738 33.17C88.6738 32.97 88.4838 32.69 88.5738 32.43C88.6938 32.07 89.1638 32.02 89.5438 32.04C93.5638 32.35 98.3538 34.78 101.684 36.96C98.1738 36.29 94.6738 35.21 91.2338 34.26H91.2237Z" fill="#EEB422"/>
<path d="M92.5436 38.79C91.7036 38.56 90.8236 38.3 90.1936 37.7C89.9936 37.5 89.8036 37.22 89.8936 36.96C90.0136 36.6 90.4836 36.55 90.8636 36.57C94.8836 36.88 99.6736 39.31 103.004 41.49C99.4936 40.82 95.9936 39.74 92.5536 38.79H92.5436Z" fill="#EEB422"/>
<path d="M93.4337 43.62C92.5937 43.39 91.7137 43.13 91.0737 42.53C90.8737 42.33 90.6837 42.05 90.7737 41.79C90.8937 41.43 91.3637 41.38 91.7437 41.4C95.7637 41.71 100.554 44.14 103.884 46.32C100.374 45.65 96.8737 44.57 93.4337 43.62Z" fill="#EEB422"/>
<path d="M94.1837 48.7C93.3437 48.47 92.4637 48.21 91.8337 47.61C91.6337 47.41 91.4437 47.13 91.5337 46.87C91.6537 46.51 92.1237 46.46 92.5037 46.48C96.5237 46.79 101.314 49.22 104.644 51.4C101.134 50.73 97.6337 49.65 94.1937 48.7H94.1837Z" fill="#EEB422"/>
<path d="M94.7636 53.18C93.9236 52.95 93.0436 52.69 92.4136 52.09C92.2136 51.89 92.0235 51.61 92.1135 51.35C92.2335 50.99 92.7035 50.94 93.0835 50.96C97.1035 51.27 101.894 53.7 105.224 55.88C101.714 55.21 98.2136 54.13 94.7736 53.18H94.7636Z" fill="#EEB422"/>
<path d="M95.0636 58.74C94.2236 58.51 93.3436 58.25 92.7136 57.65C92.5136 57.45 92.3236 57.17 92.4136 56.91C92.5336 56.55 93.0036 56.5 93.3836 56.52C97.4036 56.83 102.194 59.26 105.524 61.44C102.014 60.77 98.5136 59.69 95.0736 58.74H95.0636Z" fill="#EEB422"/>
<path d="M94.8336 65.13C93.9936 64.9 93.1136 64.64 92.4836 64.04C92.2836 63.84 92.0936 63.56 92.1836 63.3C92.3036 62.94 92.7736 62.89 93.1536 62.91C97.1736 63.22 101.964 65.65 105.294 67.83C101.784 67.16 98.2836 66.08 94.8436 65.13H94.8336Z" fill="#EEB422"/>
<path d="M103.144 18.75C103.554 17.98 103.984 17.17 104.704 16.68C104.934 16.52 105.254 16.4 105.494 16.54C105.824 16.73 105.774 17.21 105.664 17.57C104.514 21.44 101.134 25.6 98.2937 28.4C99.6837 25.11 101.484 21.92 103.144 18.75Z" fill="#EEB422"/>
<path d="M105.044 22.84C105.454 22.07 105.884 21.26 106.604 20.77C106.834 20.61 107.154 20.49 107.394 20.63C107.724 20.82 107.674 21.3 107.564 21.66C106.414 25.53 103.034 29.69 100.194 32.49C101.584 29.2 103.384 26.01 105.044 22.84Z" fill="#EEB422"/>
<path d="M107.224 27.79C107.684 27.05 108.184 26.28 108.944 25.85C109.194 25.71 109.514 25.61 109.744 25.77C110.054 25.98 109.974 26.46 109.834 26.81C108.384 30.57 104.684 34.46 101.644 37.03C103.294 33.85 105.324 30.82 107.224 27.79Z" fill="#EEB422"/>
<path d="M109.204 32.66C109.714 31.95 110.264 31.22 111.054 30.84C111.304 30.72 111.634 30.64 111.854 30.82C112.144 31.05 112.034 31.52 111.874 31.86C110.174 35.52 106.214 39.14 102.994 41.49C104.854 38.44 107.094 35.55 109.204 32.66Z" fill="#EEB422"/>
<path d="M110.134 37.53C110.644 36.82 111.194 36.09 111.984 35.71C112.234 35.59 112.564 35.51 112.784 35.69C113.074 35.92 112.964 36.39 112.804 36.73C111.104 40.39 107.144 44.01 103.924 46.36C105.784 43.31 108.024 40.42 110.134 37.53Z" fill="#EEB422"/>
<path d="M111.054 42.4C111.564 41.69 112.114 40.96 112.904 40.58C113.154 40.46 113.484 40.38 113.704 40.56C113.994 40.79 113.884 41.26 113.724 41.6C112.024 45.26 108.064 48.88 104.844 51.23C106.704 48.18 108.944 45.29 111.054 42.4Z" fill="#EEB422"/>
<path d="M111.974 47.27C112.484 46.56 113.034 45.83 113.824 45.45C114.074 45.33 114.404 45.25 114.624 45.43C114.914 45.66 114.804 46.13 114.644 46.47C112.944 50.13 108.984 53.75 105.764 56.1C107.624 53.05 109.864 50.16 111.974 47.27Z" fill="#EEB422"/>
<path d="M111.694 59.39C112.204 58.68 112.754 57.95 113.544 57.57C113.794 57.45 114.124 57.37 114.344 57.55C114.634 57.78 114.524 58.25 114.364 58.59C112.664 62.25 108.704 65.87 105.484 68.22C107.344 65.17 109.584 62.28 111.694 59.39Z" fill="#EEB422"/>
<path d="M111.844 53.27C112.354 52.56 112.904 51.83 113.694 51.45C113.944 51.33 114.274 51.25 114.494 51.43C114.784 51.66 114.674 52.13 114.514 52.47C112.814 56.13 108.854 59.75 105.634 62.1C107.494 59.05 109.734 56.16 111.844 53.27Z" fill="#EEB422"/>
<path d="M92.6037 15.45C93.2137 16.52 93.8237 17.59 94.4137 18.68L96.1137 21.97L97.6737 25.33L99.1337 28.74C100.994 33.32 102.484 38.06 103.644 42.87C104.724 47.7 105.474 52.62 105.674 57.57L105.724 61.28L105.594 64.99L105.234 68.68C105.054 69.9 104.864 71.12 104.664 72.34L104.964 68.66L105.084 64.98L105.064 61.3L104.864 57.63C104.494 52.74 103.764 47.88 102.614 43.12C101.554 38.34 100.064 33.65 98.3737 29.04L97.0537 25.6L95.6337 22.2L94.1537 18.82C93.6237 17.71 93.1037 16.59 92.5938 15.47L92.6037 15.45Z" fill="#5700DD"/>
<path d="M118.444 72.69C119.414 68.05 118.044 63.22 116.054 58.92C114.064 54.62 111.434 50.62 109.644 46.24C105.454 35.98 106.154 24.22 109.544 13.67C108.544 25.01 110.054 36.95 113.614 47.77C115.024 52.04 116.774 56.2 117.944 60.55C119.114 64.89 119.444 68.31 118.444 72.69Z" fill="#2C2D40"/>
<path d="M121.333 76.18C123.523 67.87 119.713 59.34 117.833 50.95C114.613 36.61 117.283 21.04 125.073 8.59C125.183 13.34 123.343 18.26 122.373 22.91C119.953 34.42 119.463 46.32 120.913 57.99C121.633 63.76 122.533 70.49 121.333 76.18Z" fill="#2C2D40"/>
<path d="M123.573 73.35C126.073 62.88 122.883 51.83 124.333 41.16C125.983 29.02 133.543 18.14 134.253 5.91C136.043 14.16 133.733 22.76 131.093 30.77C128.453 38.79 125.273 46.8 124.933 55.24C124.673 61.83 126.153 67.28 123.563 73.35H123.573Z" fill="#2C2D40"/>
<path d="M181.944 31.74C181.944 33.54 180.484 35 178.684 35C176.884 35 175.424 33.54 175.424 31.74C175.424 29.94 176.884 28.48 178.684 28.48C180.484 28.48 181.944 29.94 181.944 31.74Z" stroke="#5700DD" stroke-width="0.53" stroke-miterlimit="10"/>
<path d="M118.694 16.29C118.694 18.09 117.234 19.55 115.434 19.55C113.634 19.55 112.174 18.09 112.174 16.29C112.174 14.49 113.634 13.03 115.434 13.03C117.234 13.03 118.694 14.49 118.694 16.29Z" stroke="#EEB422" stroke-width="0.53" stroke-miterlimit="10"/>
<path d="M46.9636 45.55C48.7641 45.55 50.2236 44.0904 50.2236 42.29C50.2236 40.4896 48.7641 39.03 46.9636 39.03C45.1632 39.03 43.7036 40.4896 43.7036 42.29C43.7036 44.0904 45.1632 45.55 46.9636 45.55Z" stroke="#BFCDF2" stroke-width="0.53" stroke-miterlimit="10"/>
<path d="M166.994 40.18C166.994 41.08 166.264 41.81 165.364 41.81C164.464 41.81 163.734 41.08 163.734 40.18C163.734 39.28 164.464 38.55 165.364 38.55C166.264 38.55 166.994 39.28 166.994 40.18Z" fill="#2C2D40"/>
<path d="M107.554 2.53C107.554 3.43 106.824 4.16 105.924 4.16C105.024 4.16 104.294 3.43 104.294 2.53C104.294 1.63 105.024 0.900002 105.924 0.900002C106.824 0.900002 107.554 1.63 107.554 2.53Z" fill="#8674FC"/>
<path d="M56.8535 48.64C56.8535 49.54 56.1235 50.27 55.2235 50.27C54.3235 50.27 53.5935 49.54 53.5935 48.64C53.5935 47.74 54.3235 47.01 55.2235 47.01C56.1235 47.01 56.8535 47.74 56.8535 48.64Z" fill="#EEB422"/>
<path d="M127.854 134.26L86.5937 66.79L60.1237 58.23C60.1237 58.23 53.1137 71.46 50.7837 78.99C48.4437 86.52 48.9637 93.26 47.1537 95.08C45.3337 96.9 30.2837 109.87 30.2837 109.87C33.2237 115.62 37.9437 119.85 44.2737 121.16C44.7237 125.2 44.7737 129.31 44.8537 133.41C46.6137 134.15 50.4637 135.9 50.4637 137.03C50.4637 138.16 46.8137 138 44.9637 137.86C45.0937 141.67 45.3737 145.46 46.1337 149.16C47.0137 153.45 48.8237 158.04 52.7737 159.95C54.6537 160.86 56.7937 161.03 58.8837 161.1C65.9537 161.34 73.0537 160.58 79.9137 158.84L102.354 198.78L147.064 167.74L127.864 134.27L127.854 134.26Z" fill="#E47573"/>
<path d="M156.624 74.19C160.214 80.66 161.714 88.28 160.844 95.63C160.774 96.21 160.564 96.93 159.984 97.02C159.684 97.06 159.394 96.91 159.144 96.74C157.754 95.79 156.814 94.21 156.664 92.53C157.744 99.17 156.494 106.02 154.034 112.28C151.584 118.54 147.974 124.27 144.194 129.84C142.464 132.38 140.684 134.93 139.584 137.8C138.484 140.67 138.114 143.95 139.274 146.8C137.794 146.9 136.284 146.18 135.444 144.96C136.474 146.31 137.414 148.45 136.064 149.47C135.164 150.14 133.904 149.74 132.864 149.31C130.104 148.16 127.294 146.98 124.964 145.11C121.904 142.66 119.844 139.18 118.084 135.67C114.034 127.62 111.164 118.99 109.574 110.13C105.594 109.66 101.164 109.35 97.1837 108.88C97.2437 103.72 97.3137 98.42 97.9037 93.3C94.9937 93.17 92.0537 90.8 90.7637 88.19C89.4737 85.58 89.1737 82.61 88.8937 79.71C85.7437 79.76 82.2237 78.91 80.0437 76.64C77.8637 74.37 76.6937 71.17 76.8737 68.03C73.9737 69.73 70.3237 69.7 67.2037 68.46C64.0837 67.22 61.5937 64.48 60.6537 61.25C58.5837 63.17 56.5537 65.57 55.0237 67.95C54.9237 68.1 54.9737 68 54.8737 68.16C52.5837 64.69 53.0537 59.89 55.2537 56.36C57.4537 52.83 61.1137 50.44 64.9537 48.84C64.9537 48.84 80.1937 60.13 109.954 66.95C139.714 73.76 156.604 74.19 156.604 74.19H156.624Z" fill="#2C2D40"/>
<path d="M129.474 104.25C129.124 110.2 126.104 115.94 121.404 119.6C119.934 120.75 118.264 121.71 116.414 122C112.254 122.65 108.194 119.53 106.594 115.64C104.994 111.75 105.374 107.33 106.304 103.23C107.514 97.93 110.214 92.25 115.384 90.58C123.724 87.89 129.904 96.88 129.464 104.25H129.474Z" fill="#E47573"/>
<g style="mix-blend-mode:multiply">
<path d="M111.074 117.3C112.854 116.59 114.434 115.38 115.564 113.83C115.794 113.52 116.014 113.18 116.044 112.79C116.104 112.06 115.484 111.46 114.924 110.99C113.784 110.03 112.644 109.07 111.514 108.11C111.284 107.92 111.054 107.71 110.944 107.44C110.834 107.13 110.894 106.79 110.964 106.47C111.824 102.39 112.884 97.99 116.124 95.36C116.994 94.65 118.034 94.09 119.154 93.98C120.814 93.81 122.454 94.65 123.624 95.84C124.794 97.03 125.574 98.54 126.304 100.04C126.304 100.04 127.884 108.48 122.394 114.1C116.904 119.72 111.074 117.29 111.074 117.29V117.3Z" fill="#E47573"/>
</g>
<path d="M126.304 100.05C125.374 98.6 124.454 97.11 123.194 96.06C121.974 95.01 120.364 94.41 118.964 94.74C117.564 95.08 116.274 96.16 115.334 97.41C114.364 98.66 113.664 100.15 113.154 101.72C112.604 103.28 112.224 104.93 111.844 106.6C111.794 106.81 111.754 106.97 111.754 107.06C111.754 107.16 111.734 107.12 111.764 107.18C111.814 107.29 112.244 107.64 112.544 107.92C113.194 108.49 113.824 109.07 114.464 109.65L115.424 110.53C115.754 110.84 116.114 111.18 116.384 111.69C116.674 112.17 116.714 112.94 116.444 113.44C116.184 113.95 115.884 114.25 115.574 114.59C114.334 115.89 112.764 116.86 111.084 117.31C112.604 116.48 113.914 115.36 114.864 114.01C115.094 113.68 115.354 113.32 115.454 113.03C115.544 112.74 115.494 112.56 115.324 112.3C114.984 111.81 114.194 111.3 113.534 110.77C112.854 110.24 112.174 109.71 111.504 109.17C111.164 108.87 110.864 108.74 110.384 108.16C110.154 107.87 110.014 107.39 110.034 107.06C110.034 106.72 110.094 106.45 110.134 106.24C110.474 104.54 110.844 102.82 111.414 101.12C112.004 99.44 112.794 97.75 113.984 96.31C114.574 95.59 115.274 94.96 116.044 94.41C116.824 93.87 117.734 93.45 118.734 93.31C119.734 93.17 120.754 93.35 121.614 93.75C122.484 94.15 123.234 94.73 123.844 95.4C125.064 96.77 125.754 98.41 126.324 100.04L126.304 100.05Z" fill="#2C2D40"/>
<g style="mix-blend-mode:overlay">
<path d="M132.194 80.91C132.764 82.81 133.414 84.67 134.234 86.46C135.024 88.24 135.934 90.04 137.014 91.6C137.574 92.33 138.254 93.06 139.024 93.24C139.414 93.33 139.724 93.26 139.894 93.02C140.084 92.79 140.154 92.34 140.194 91.86C140.384 89.93 140.334 87.98 140.114 86.05C140.084 85.76 140.284 85.5 140.574 85.47C140.834 85.44 141.064 85.61 141.134 85.85C141.744 88.1 143.074 90.16 144.864 91.67C145.094 91.85 145.314 92.05 145.524 92.16C145.744 92.28 145.984 92.35 146.124 92.34C146.254 92.32 146.324 92.29 146.384 92.08C146.434 91.88 146.444 91.54 146.464 91.26C146.514 90.08 146.384 88.89 146.074 87.74C146.034 87.57 146.124 87.41 146.284 87.37C146.404 87.34 146.534 87.39 146.604 87.49C147.274 88.46 147.934 89.44 148.754 90.26C149.574 91.08 150.594 91.75 151.784 91.92C150.574 91.9 149.444 91.29 148.534 90.51C147.604 89.73 146.834 88.79 146.124 87.83L146.654 87.57C147.034 88.76 147.244 90.01 147.254 91.27C147.254 91.59 147.274 91.87 147.194 92.27C147.154 92.66 146.734 93.17 146.244 93.21C145.324 93.28 144.764 92.73 144.284 92.38C142.314 90.78 140.844 88.58 140.134 86.14L141.144 85.94C141.394 87.94 141.374 89.97 141.144 91.97C141.084 92.46 141.044 93.06 140.614 93.62C140.404 93.89 140.074 94.09 139.734 94.16C139.394 94.24 139.074 94.2 138.784 94.13C137.604 93.8 136.884 92.91 136.314 92.07C135.234 90.33 134.444 88.52 133.724 86.65C133.054 84.77 132.504 82.85 132.174 80.9L132.194 80.91Z" fill="#BFCDF2"/>
<path d="M140.144 104.92C139.714 106.2 139.344 107.48 139.024 108.78C138.704 110.07 138.434 111.38 138.244 112.67C138.164 113.29 138.204 113.9 138.434 114.3C138.564 114.5 138.684 114.57 138.804 114.56C138.934 114.56 139.174 114.44 139.414 114.26C140.434 113.53 141.264 112.54 141.844 111.42V111.4C141.974 111.17 142.264 111.08 142.494 111.2C142.724 111.32 142.814 111.6 142.704 111.83C142.424 112.42 142.204 113.03 142.084 113.64C141.974 114.26 142.004 114.88 142.214 115.46C142.424 116.03 142.824 116.55 143.404 116.8C143.974 117.05 144.704 117.06 145.274 116.66C144.804 117.18 143.984 117.33 143.284 117.14C142.554 116.96 141.954 116.38 141.624 115.71C141.274 115.04 141.184 114.26 141.254 113.52C141.324 112.78 141.554 112.08 141.824 111.43L142.684 111.83C142.104 113.13 141.164 114.26 140.014 115.11C139.714 115.31 139.344 115.57 138.804 115.59C138.234 115.61 137.754 115.19 137.554 114.82C137.104 114.03 137.184 113.22 137.294 112.52C137.554 111.16 137.934 109.86 138.404 108.58C138.874 107.31 139.454 106.08 140.124 104.91L140.144 104.92Z" fill="#BFCDF2"/>
<path d="M123.054 125.37C123.204 126.6 123.484 127.79 123.874 128.93C124.274 130.05 124.784 131.19 125.414 132.12C125.744 132.57 126.134 132.9 126.564 133C127.034 133.09 127.404 132.99 127.614 132.62C127.854 132.24 128.034 131.61 128.154 131.07C128.264 130.51 128.344 129.93 128.334 129.35H129.274C129.214 130.51 129.154 131.67 129.854 132.48C130.194 132.87 130.674 133.15 131.204 133.1C131.744 133.05 132.254 132.69 132.684 132.29C132.364 132.79 131.914 133.26 131.274 133.44C130.624 133.63 129.894 133.36 129.414 132.91C128.904 132.46 128.614 131.8 128.484 131.18C128.344 130.54 128.344 129.92 128.344 129.32C128.344 129.06 128.554 128.85 128.814 128.85C129.064 128.85 129.264 129.05 129.284 129.29V129.31C129.324 129.96 129.284 130.62 129.164 131.26C129.014 131.91 128.894 132.5 128.504 133.18C128.304 133.51 127.934 133.84 127.524 133.96C127.114 134.09 126.704 134.08 126.324 133.99C125.544 133.8 124.984 133.21 124.634 132.65C123.944 131.51 123.544 130.33 123.264 129.09C123.004 127.86 122.934 126.59 123.054 125.36V125.37Z" fill="#BFCDF2"/>
<path d="M93.6138 70.76C94.4038 72.62 95.3938 74.37 96.6338 75.94C97.8438 77.52 99.2638 78.93 100.854 80.1C101.654 80.68 102.464 81.24 103.334 81.7C104.124 82.17 105.164 82.44 105.554 82.01C105.764 81.82 105.864 81.42 105.894 80.94C105.924 80.46 105.934 79.98 105.894 79.5C105.834 78.54 105.644 77.59 105.334 76.69L106.324 76.4C106.584 77.55 107.114 78.64 107.834 79.6C108.554 80.55 109.474 81.36 110.514 81.95C111.544 82.52 112.744 82.99 113.884 82.96C114.164 82.94 114.434 82.89 114.684 82.78C114.804 82.73 114.924 82.65 115.014 82.58C115.084 82.53 115.124 82.44 115.164 82.34C115.274 81.87 115.094 81.22 114.884 80.68V80.65C114.824 80.53 114.884 80.39 115.014 80.35C115.084 80.32 115.164 80.33 115.224 80.37C115.934 80.81 116.684 81.23 117.444 81.59C118.214 81.94 118.994 82.29 119.834 82.42C118.974 82.39 118.144 82.13 117.344 81.83C116.534 81.53 115.764 81.17 114.984 80.78L115.324 80.47C115.604 81.07 115.864 81.69 115.754 82.47C115.704 82.66 115.624 82.88 115.444 83.04C115.294 83.18 115.154 83.27 114.984 83.36C114.664 83.53 114.304 83.62 113.954 83.65C112.554 83.75 111.294 83.3 110.104 82.73C108.934 82.11 107.904 81.24 107.064 80.2C106.234 79.16 105.634 77.93 105.324 76.63C105.254 76.35 105.424 76.07 105.704 76.01C105.964 75.95 106.224 76.09 106.314 76.34C106.664 77.34 106.884 78.39 106.934 79.44C106.964 79.97 106.954 80.5 106.914 81.02C106.864 81.53 106.794 82.21 106.254 82.73C105.714 83.25 104.934 83.29 104.394 83.16C103.824 83.04 103.314 82.79 102.864 82.52C101.974 82 101.124 81.42 100.324 80.77C98.7338 79.47 97.3338 77.94 96.1838 76.25C95.0538 74.55 94.1638 72.7 93.6038 70.76H93.6138Z" fill="#BFCDF2"/>
<path d="M70.0137 56.07C69.7837 57.07 69.7437 58.1 70.0237 59.04C70.2737 59.98 70.8237 60.8 71.5637 61.35C72.3037 61.91 73.2137 62.18 74.0737 62.03C74.9437 61.9 75.7437 61.37 76.1437 60.64C76.2837 60.38 76.5937 60.29 76.8437 60.43C76.9737 60.5 77.0637 60.63 77.0937 60.77C77.4537 62.33 78.6937 63.63 80.1637 64.44C80.9137 64.85 81.7237 65.16 82.5737 65.41C83.4137 65.67 84.2937 65.83 85.1637 66.03C84.2637 66.05 83.3737 65.99 82.4637 65.88C81.5637 65.75 80.6637 65.53 79.8137 65.15C78.9537 64.77 78.1537 64.23 77.4937 63.54C76.8237 62.85 76.3137 61.98 76.0737 61.01L77.0437 61.13C76.4737 62.23 75.3437 62.88 74.1937 63.04C73.0237 63.21 71.8237 62.76 70.9937 62.02C70.1437 61.28 69.6037 60.23 69.4637 59.15C69.3437 58.08 69.5137 57 69.9837 56.07H70.0137Z" fill="#BFCDF2"/>
</g>
<path d="M67.4236 97.61C66.3536 98.52 65.1536 99.27 63.8936 99.95C62.6336 100.61 61.2936 101.14 59.9036 101.54C58.5236 101.94 57.0936 102.45 55.6236 102.3C54.1736 102.17 52.7136 101.79 51.4436 100.87L51.4836 100.61C52.9436 100.09 54.2436 99.88 55.5536 99.67C56.8436 99.44 58.1636 99.63 59.4836 99.48C60.7936 99.32 62.1136 99.07 63.4136 98.73C64.7236 98.41 66.0036 97.93 67.2836 97.39L67.4236 97.61Z" fill="#2C2D40"/>
<path d="M53.9436 100.49L56.7036 89.99L54.9736 100.7L53.9436 100.49Z" fill="#2C2D40"/>
<path d="M52.3737 74.62C52.3737 74.62 51.3837 76.87 50.5437 79.77C55.6737 78.97 60.5837 79.79 65.1237 82.31C69.6637 84.84 73.9237 89.01 75.9537 93.79C75.9537 93.79 73.3937 82.74 65.7037 78.04C57.0037 72.72 52.3737 74.61 52.3737 74.61V74.62Z" fill="#2C2D40"/>
<path d="M79.6538 158.98C88.1738 154.55 95.7038 148.23 101.544 140.61C97.5138 150.18 91.3838 159.06 83.8738 166.24" fill="#2C2D40"/>
<path d="M190.294 219.69C190.294 219.69 155.594 166.16 144.024 162.06C132.454 157.96 108.604 176.04 92.9336 188.81C77.2736 201.58 58.9536 223.3 58.9536 223.3L190.294 219.69Z" fill="#8674FC"/>
<g style="mix-blend-mode:multiply" opacity="0.32">
<path d="M77.6637 115.3C77.3037 119.06 72.2037 121.65 66.2737 121.08C60.3437 120.51 55.8337 117 56.1937 113.25C56.5537 109.49 61.6537 106.9 67.5837 107.47C73.5137 108.04 78.0237 111.54 77.6637 115.3Z" fill="#FF7673"/>
</g>
<path d="M43.1638 118.16C45.3138 118.24 47.4038 118.89 49.3238 119.84L48.5838 120.16C49.1838 118.16 49.1938 116.04 48.7438 113.85C50.0038 115.72 50.2638 118.25 49.5838 120.46L49.3938 121.06L48.8438 120.77C47.0038 119.82 45.1138 119.02 43.1538 118.15L43.1638 118.16Z" fill="#2C2D40"/>
</svg>
