<svg width="12" height="12" viewBox="0 0 12 12" fill="none" xmlns="http://www.w3.org/2000/svg">
<path fill-rule="evenodd" clip-rule="evenodd" d="M10 2H2C1.86739 2 1.74021 2.05268 1.64645 2.14645C1.55268 2.24021 1.5 2.36739 1.5 2.5V9.5C1.5 9.63261 1.55268 9.75979 1.64645 9.85355C1.74021 9.94732 1.86739 10 2 10H10C10.1326 10 10.2598 9.94732 10.3536 9.85355C10.4473 9.75979 10.5 9.63261 10.5 9.5V2.5C10.5 2.36739 10.4473 2.24021 10.3536 2.14645C10.2598 2.05268 10.1326 2 10 2ZM2 1C1.60218 1 1.22064 1.15804 0.93934 1.43934C0.658035 1.72064 0.5 2.10218 0.5 2.5V9.5C0.5 9.89782 0.658035 10.2794 0.93934 10.5607C1.22064 10.842 1.60218 11 2 11H10C10.3978 11 10.7794 10.842 11.0607 10.5607C11.342 10.2794 11.5 9.89782 11.5 9.5V2.5C11.5 2.10218 11.342 1.72064 11.0607 1.43934C10.7794 1.15804 10.3978 1 10 1H2ZM3 3.5H4V4.5H3V3.5ZM5.5 3.5C5.36739 3.5 5.24021 3.55268 5.14645 3.64645C5.05268 3.74021 5 3.86739 5 4C5 4.13261 5.05268 4.25979 5.14645 4.35355C5.24021 4.44732 5.36739 4.5 5.5 4.5H8.5C8.63261 4.5 8.75979 4.44732 8.85355 4.35355C8.94732 4.25979 9 4.13261 9 4C9 3.86739 8.94732 3.74021 8.85355 3.64645C8.75979 3.55268 8.63261 3.5 8.5 3.5H5.5ZM4 5.5H3V6.5H4V5.5ZM5 6C5 5.86739 5.05268 5.74021 5.14645 5.64645C5.24021 5.55268 5.36739 5.5 5.5 5.5H8.5C8.63261 5.5 8.75979 5.55268 8.85355 5.64645C8.94732 5.74021 9 5.86739 9 6C9 6.13261 8.94732 6.25979 8.85355 6.35355C8.75979 6.44732 8.63261 6.5 8.5 6.5H5.5C5.36739 6.5 5.24021 6.44732 5.14645 6.35355C5.05268 6.25979 5 6.13261 5 6ZM4 7.5H3V8.5H4V7.5ZM5 8C5 7.86739 5.05268 7.74021 5.14645 7.64645C5.24021 7.55268 5.36739 7.5 5.5 7.5H8.5C8.63261 7.5 8.75979 7.55268 8.85355 7.64645C8.94732 7.74021 9 7.86739 9 8C9 8.13261 8.94732 8.25979 8.85355 8.35355C8.75979 8.44732 8.63261 8.5 8.5 8.5H5.5C5.36739 8.5 5.24021 8.44732 5.14645 8.35355C5.05268 8.25979 5 8.13261 5 8Z" fill="black"/>
</svg>
