<svg width="270" height="392" viewBox="0 0 270 392" fill="none" xmlns="http://www.w3.org/2000/svg">
<g clip-path="url(#clip0_452_640)">
<rect width="270" height="392" rx="25" fill="#F6BE31" fill-opacity="0.3"/>
<g clip-path="url(#clip1_452_640)">
<g clip-path="url(#clip2_452_640)">
<path d="M52.0547 166.385C0.842087 303.011 -62.0973 292.169 -54.3488 363.515C-48.6341 416.077 -7.16806 400.981 41.0325 402.952C89.2331 404.923 233.549 403.119 233.549 403.119C233.549 403.119 215.061 328.095 252.281 252.789C322.14 111.393 86.9318 73.3387 52.0547 166.385Z" fill="#EDE4DD"/>
<path d="M49.213 380.82C49.213 380.82 116.06 341.812 129.963 331.32C144.329 320.479 181.147 315.66 212.236 324.669C243.326 333.679 295.904 353.578 310.42 367.822C318.588 375.826 317.609 380.834 317.609 380.834L49.213 380.82Z" fill="#565697"/>
<path d="M191.49 321.457L207.676 326.402C207.676 326.402 174.673 353.94 163.28 359.696C151.221 365.793 137.747 370.675 126.776 364.728C113.463 357.51 132.581 337.424 132.581 337.424L191.49 321.457Z" fill="#1D1E40"/>
<path d="M121.363 307.885C121.363 307.885 131.525 314.456 130.214 345.205C128.903 375.955 197.845 326.545 197.845 326.545C197.845 326.545 182.691 322.139 179.191 281.138C175.691 240.136 173.111 255.038 173.111 255.038C173.111 255.038 116.269 300.341 121.363 307.885Z" fill="#EFB6AB"/>
<path opacity="0.64" d="M168.865 256.847C168.865 256.847 174.701 318.325 129.963 331.32C128.324 322.519 128.635 317.553 124.786 313.29C129.492 286.159 168.865 256.847 168.865 256.847Z" fill="#EFB6AB"/>
<path d="M174.589 250.628C174.589 250.628 169.747 286.991 182.74 285.463C195.733 283.936 207.565 221.574 208.21 216.319C208.855 211.064 213.265 176.504 211.989 173.201C210.713 169.899 164.797 154.406 89.2515 163.304C51.1443 166.61 53.0896 176.18 53.0896 176.18C53.0896 176.18 65.8245 223.529 71.4268 230.719C77.029 237.909 174.589 250.628 174.589 250.628Z" fill="#A16D4B"/>
<path d="M326.586 367.943H-57.2543V396.709H326.586V367.943Z" fill="#989CB7"/>
<path d="M65.9152 177.2C65.9152 177.2 64.8694 237.752 78.5421 273.423C92.2148 309.093 105.881 313.29 105.881 313.29C105.881 313.29 111.587 315.806 124.8 313.29C140.533 310.297 163.315 292.062 173.122 255.326C173.122 255.326 195.206 258.657 197.734 231.408C199.418 213.277 183.298 212.143 175.816 215.132C170.671 217.185 165.835 223.136 163.043 226.512C157.284 233.472 156.479 221.086 158.476 205.353C160.272 191.277 142.907 183.102 142.907 183.102" fill="#EFB6AB"/>
<path fill-rule="evenodd" clip-rule="evenodd" d="M178.531 226.347C180.987 225.442 183.891 225.308 187.251 226.5C187.586 226.619 187.762 226.987 187.642 227.323C187.523 227.658 187.154 227.833 186.819 227.714C183.73 226.618 181.137 226.759 178.977 227.555C176.804 228.355 175.021 229.836 173.602 231.488C172.215 233.102 171.196 234.857 170.515 236.235C171.179 235.761 171.974 235.264 172.857 234.85C174.159 234.239 175.686 233.791 177.285 233.886C178.902 233.983 180.546 234.635 182.056 236.142C182.308 236.393 182.308 236.801 182.056 237.052C181.804 237.304 181.396 237.304 181.144 237.052C179.853 235.763 178.504 235.249 177.208 235.172C175.894 235.093 174.588 235.46 173.406 236.015C172.226 236.569 171.204 237.293 170.473 237.885C170.109 238.179 169.82 238.438 169.624 238.622C169.526 238.714 169.451 238.787 169.401 238.836C169.377 238.861 169.358 238.879 169.346 238.891L169.334 238.904L169.331 238.907L169.331 238.907L169.331 238.907L169.331 238.907C169.123 239.125 168.791 239.169 168.533 239.014C168.274 238.859 168.158 238.546 168.253 238.26L168.865 238.462C168.253 238.26 168.253 238.26 168.253 238.26L168.253 238.259L168.254 238.255L168.258 238.245C168.261 238.236 168.265 238.223 168.271 238.207C168.282 238.174 168.299 238.127 168.321 238.066C168.364 237.945 168.43 237.769 168.517 237.55C168.691 237.11 168.954 236.49 169.311 235.762C170.021 234.309 171.111 232.409 172.623 230.649C174.134 228.89 176.088 227.246 178.531 226.347Z" fill="#4C1C17"/>
<path d="M101.952 210.587C102.07 207.535 109.273 204.556 115.548 204.897C121.823 205.238 124.685 207.427 126.522 209.157C128.032 210.587 126.871 213.43 123.28 211.687C119.32 209.756 115.987 208.555 110.381 209.829C104.552 211.155 101.844 213.323 101.952 210.587Z" fill="#E69766"/>
<path fill-rule="evenodd" clip-rule="evenodd" d="M82.8358 221.007C83.186 221.071 83.4174 221.407 83.3526 221.757L82.7185 221.64L82.0843 221.523C82.1491 221.173 82.4855 220.942 82.8358 221.007ZM97.2435 270.581C97.2424 270.582 97.2393 270.586 97.234 270.593C97.2233 270.607 97.2038 270.631 97.1746 270.665C97.1161 270.732 97.0189 270.836 96.8761 270.968C96.5907 271.23 96.1218 271.603 95.4145 272.002C94.0015 272.799 91.6219 273.711 87.83 274.055C84.1097 274.393 81.6172 273.417 79.9508 271.982C78.2675 270.532 77.3615 268.557 76.9379 266.802L76.9377 266.801C76.8233 266.331 76.8065 265.285 76.9056 263.712C77.0024 262.173 77.2025 260.217 77.4757 257.99C78.022 253.536 78.8567 248.027 79.7278 242.656C80.5986 237.286 81.5049 232.062 82.1935 228.178C82.5378 226.237 82.8276 224.631 83.0314 223.511C83.1332 222.951 83.2136 222.512 83.2684 222.214C83.2959 222.064 83.3169 221.95 83.3311 221.873L83.3525 221.757C83.3525 221.757 83.3526 221.757 82.7185 221.64C82.0843 221.523 82.0842 221.523 82.0842 221.523L82.0626 221.64C82.0483 221.717 82.0272 221.832 81.9997 221.982C81.9447 222.281 81.8643 222.72 81.7622 223.281C81.5582 224.403 81.268 226.011 80.9234 227.954C80.2341 231.841 79.3267 237.072 78.4545 242.45C77.5825 247.826 76.7447 253.355 76.1954 257.833C75.9209 260.072 75.7174 262.056 75.6183 263.631C75.5214 265.17 75.5161 266.412 75.6839 267.104M97.7682 270.955C98.296 271.325 98.2954 271.326 98.2954 271.326L98.2933 271.329L98.2897 271.334C98.2871 271.338 98.2839 271.342 98.2801 271.347C98.2726 271.357 98.2628 271.37 98.2506 271.386C98.2262 271.417 98.1923 271.459 98.1479 271.51C98.0592 271.611 97.929 271.75 97.7505 271.914C97.3932 272.243 96.844 272.674 96.0492 273.123C94.458 274.02 91.8977 274.979 87.9468 275.337C83.9245 275.703 81.0727 274.648 79.1082 272.957C77.1609 271.28 76.1495 269.032 75.6841 267.105M97.2435 270.581C97.4491 270.294 97.8488 270.225 98.1388 270.428C98.4303 270.633 98.5007 271.034 98.296 271.325L97.7682 270.955" fill="#4C1C17"/>
<path d="M101.146 281.475C101.146 281.475 111.437 285.568 116.137 274.759L101.146 281.475Z" fill="#EFB6AB"/>
<path fill-rule="evenodd" clip-rule="evenodd" d="M116.779 273.282C117.596 273.636 117.97 274.584 117.616 275.4C115.013 281.385 110.731 283.389 107.046 283.771C105.256 283.957 103.65 283.76 102.501 283.522C101.922 283.402 101.45 283.27 101.116 283.166C100.949 283.114 100.815 283.068 100.72 283.034C100.672 283.017 100.634 283.003 100.605 282.992C100.591 282.987 100.579 282.982 100.57 282.978L100.558 282.974L100.553 282.972L100.551 282.971C100.55 282.971 100.55 282.971 101.138 281.497L100.55 282.971C99.7223 282.642 99.3189 281.705 99.6484 280.88C99.9773 280.056 100.912 279.653 101.738 279.978L101.747 279.981C101.758 279.986 101.778 279.993 101.806 280.003C101.864 280.024 101.956 280.056 102.079 280.094C102.326 280.171 102.695 280.275 103.155 280.37C104.082 280.562 105.342 280.712 106.713 280.57C109.348 280.296 112.561 278.941 114.658 274.118C115.012 273.303 115.962 272.929 116.779 273.282Z" fill="#3A130D"/>
<path fill-rule="evenodd" clip-rule="evenodd" d="M125.091 228.124C125.745 228.728 125.785 229.746 125.181 230.399C120.746 235.192 116.041 235.673 112.436 234.82C110.685 234.406 109.235 233.691 108.228 233.088C107.721 232.785 107.319 232.505 107.038 232.296C106.898 232.192 106.787 232.105 106.708 232.041C106.668 232.009 106.637 231.983 106.614 231.963C106.602 231.954 106.592 231.945 106.585 231.939L106.575 231.931L106.571 231.927L106.57 231.926C106.569 231.925 106.568 231.925 107.611 230.727L106.568 231.925C105.896 231.342 105.825 230.325 106.409 229.654C106.992 228.985 108.007 228.912 108.679 229.491L108.686 229.498C108.695 229.505 108.712 229.518 108.735 229.538C108.783 229.576 108.859 229.636 108.963 229.713C109.171 229.868 109.484 230.087 109.887 230.328C110.699 230.814 111.839 231.371 113.18 231.688C115.758 232.298 119.239 232.077 122.812 228.215C123.416 227.562 124.437 227.521 125.091 228.124Z" fill="black"/>
<path fill-rule="evenodd" clip-rule="evenodd" d="M71.0165 230.273C71.0165 230.273 71.0165 230.273 71.0165 230.273L71.0159 230.271L71.0156 230.27C71.0156 230.27 71.0157 230.271 71.0158 230.271C70.7643 229.607 70.0218 229.271 69.3558 229.521C68.6888 229.771 68.3513 230.513 68.6017 231.179L69.8092 230.726C68.6017 231.179 68.6019 231.179 68.602 231.18L68.6031 231.182L68.605 231.188L68.6106 231.202C68.615 231.214 68.621 231.229 68.6284 231.247C68.6434 231.285 68.6643 231.336 68.6913 231.399C68.7451 231.526 68.8234 231.701 68.926 231.909C69.1296 232.321 69.4369 232.88 69.8491 233.447C70.6261 234.516 72.0208 235.943 74.0449 235.943C76.0406 235.943 77.6287 234.974 78.6551 234.11C79.1775 233.671 79.5848 233.234 79.8628 232.905C80.0025 232.74 80.1115 232.601 80.1878 232.499C80.226 232.448 80.2562 232.406 80.2781 232.375C80.2891 232.36 80.298 232.347 80.3048 232.337L80.3135 232.324L80.3167 232.32L80.3185 232.317C80.3188 232.317 80.319 232.316 79.2497 231.596L80.319 232.316C80.7174 231.727 80.5617 230.926 79.9711 230.529C79.3818 230.132 78.5821 230.286 78.1829 230.872C78.1828 230.873 78.1827 230.873 78.1826 230.873C78.1814 230.875 78.1783 230.879 78.1734 230.886C78.1635 230.9 78.1462 230.924 78.1218 230.957C78.0728 231.022 77.9957 231.121 77.8926 231.243C77.6849 231.488 77.3793 231.816 76.9927 232.141C76.2011 232.807 75.1868 233.368 74.0449 233.368C73.3115 233.368 72.5884 232.83 71.9369 231.934C71.6348 231.519 71.4003 231.095 71.2405 230.771C71.1615 230.611 71.1028 230.479 71.065 230.391C71.0462 230.347 71.0327 230.313 71.0246 230.293C71.0205 230.283 71.0178 230.276 71.0165 230.273C71.0161 230.272 71.0159 230.271 71.0158 230.271C71.0158 230.271 71.0158 230.271 71.0158 230.271M71.0165 230.273C71.0165 230.273 71.0165 230.273 71.0165 230.273V230.273ZM78.1809 230.875L78.1821 230.874L78.1826 230.873" fill="black"/>
<path d="M68.0104 208.83C69.9522 208.945 70.6041 206.794 75.3104 208.043C80.0167 209.293 80.5082 210.723 81.5855 210.385C83.8863 209.658 82.3908 206.209 77.3742 204.73C74.2854 203.815 71.1374 203.906 69.3386 205.291C68.3904 206.018 66.0686 208.715 68.0104 208.83Z" fill="#E69766"/>
<path d="M101.952 210.587C102.07 207.535 109.273 204.556 115.548 204.897C121.823 205.238 124.685 207.427 126.522 209.157C128.032 210.587 126.871 213.43 123.28 211.687C119.32 209.756 115.987 208.555 110.381 209.829C104.552 211.155 101.844 213.323 101.952 210.587Z" fill="#A16D4B"/>
<path d="M68.0104 208.83C69.9522 208.945 70.6041 206.794 75.3104 208.043C80.0167 209.293 80.5082 210.723 81.5855 210.385C83.8863 209.658 82.3908 206.209 77.3742 204.73C74.2854 203.815 71.1374 203.906 69.3386 205.291C68.3904 206.018 66.0686 208.715 68.0104 208.83Z" fill="#A16D4B"/>
<path d="M132.686 186.286C176.487 186.286 211.996 180.232 211.996 172.763C211.996 165.294 176.487 159.24 132.686 159.24C88.8838 159.24 53.3755 165.294 53.3755 172.763C53.3755 180.232 88.8838 186.286 132.686 186.286Z" fill="#A16D4B"/>
<path opacity="0.62" d="M212.763 173.073C212.763 180.548 177.329 186.297 133.529 186.297C89.7291 186.297 54.2191 180.241 54.2191 172.773C54.2191 165.305 89.7291 159.246 133.529 159.246C177.329 159.246 212.763 165.601 212.763 173.073Z" fill="#A16D4B"/>
<path fill-rule="evenodd" clip-rule="evenodd" d="M168.52 268.894C168.863 268.988 169.065 269.342 168.971 269.685L168.349 269.515C168.971 269.685 168.971 269.686 168.971 269.686L168.968 269.694L168.962 269.716C168.957 269.735 168.949 269.763 168.938 269.8C168.917 269.873 168.885 269.98 168.843 270.119C168.757 270.397 168.628 270.803 168.451 271.321C168.097 272.357 167.551 273.841 166.78 275.644C165.239 279.248 162.797 284.131 159.194 289.25C151.987 299.489 140.111 310.699 121.484 314.474C121.135 314.545 120.794 314.32 120.724 313.971C120.653 313.623 120.878 313.283 121.227 313.212C139.438 309.522 151.059 298.568 158.139 288.509C161.679 283.479 164.079 278.68 165.593 275.138C166.35 273.368 166.885 271.914 167.23 270.905C167.403 270.401 167.528 270.007 167.609 269.742C167.65 269.609 167.68 269.508 167.699 269.441C167.709 269.408 167.716 269.383 167.721 269.366L167.726 269.348L167.727 269.344L167.727 269.344C167.822 269.001 168.177 268.799 168.52 268.894Z" fill="#4C1C17"/>
<path d="M91.4478 388.897V389.081C91.4451 389.234 91.4123 389.384 91.3513 389.524C91.2902 389.664 91.2021 389.791 91.0921 389.897C90.982 390.003 90.8521 390.086 90.7097 390.142C90.5674 390.198 90.4155 390.225 90.2626 390.223L12.8942 393.744L-36.8986 369.732V359.55L57.3602 368.88L89.9906 376.911C90.1779 376.907 90.3641 376.94 90.5387 377.008C90.7133 377.075 90.8728 377.177 91.0081 377.306C91.1434 377.435 91.252 377.59 91.3274 377.761C91.4028 377.932 91.4438 378.117 91.4478 378.303C91.4451 378.452 91.4131 378.598 91.3536 378.734C91.2941 378.87 91.2083 378.993 91.101 379.096C90.9938 379.199 90.8674 379.279 90.7289 379.333C90.5903 379.387 90.4425 379.413 90.2939 379.41H87.9094V387.832H90.3288C90.4724 387.828 90.6153 387.853 90.7493 387.904C90.8834 387.956 91.0059 388.033 91.1098 388.132C91.2138 388.231 91.2972 388.35 91.3552 388.481C91.4132 388.612 91.4447 388.753 91.4478 388.897Z" fill="#E69766"/>
<path d="M87.9094 387.828L13.5182 391.562V382.003L87.9094 379.323V387.828Z" fill="white"/>
<path fill-rule="evenodd" clip-rule="evenodd" d="M87.9109 382.651C87.9179 382.829 87.7793 382.979 87.6013 382.986L29.2639 385.272C29.086 385.279 28.936 385.141 28.9291 384.963C28.9221 384.785 29.0607 384.636 29.2386 384.629L87.576 382.342C87.754 382.335 87.9039 382.474 87.9109 382.651Z" fill="#5B5B5B"/>
<path fill-rule="evenodd" clip-rule="evenodd" d="M87.8586 386.012C87.8659 386.19 87.7276 386.34 87.5496 386.347L27.8387 388.801C27.6608 388.808 27.5106 388.67 27.5033 388.492C27.4959 388.315 27.6343 388.165 27.8122 388.157L87.5231 385.704C87.7011 385.697 87.8513 385.835 87.8586 386.012Z" fill="#5B5B5B"/>
<path d="M-35.769 368.883L13.5183 391.562V382.003L-35.769 361.579V368.883Z" fill="white"/>
<path fill-rule="evenodd" clip-rule="evenodd" d="M-33.423 363.996C-33.3528 363.832 -33.1632 363.757 -32.9995 363.827L13.6452 383.778C13.809 383.848 13.8848 384.037 13.8147 384.2C13.7445 384.364 13.5549 384.439 13.3912 384.369L-33.2535 364.418C-33.4172 364.348 -33.4931 364.159 -33.423 363.996Z" fill="#5B5B5B"/>
<path fill-rule="evenodd" clip-rule="evenodd" d="M-19.0363 372.112C-18.9627 371.95 -18.7716 371.878 -18.6094 371.952L13.6515 386.568C13.8137 386.641 13.8855 386.832 13.8119 386.994C13.7383 387.156 13.5471 387.228 13.385 387.154L-18.8759 372.538C-19.0381 372.464 -19.1099 372.274 -19.0363 372.112Z" fill="#5B5B5B"/>
<path fill-rule="evenodd" clip-rule="evenodd" d="M-14.0168 376.264C-13.9398 376.104 -13.7472 376.036 -13.5866 376.113L13.6577 389.16C13.8183 389.237 13.886 389.429 13.809 389.589C13.732 389.75 13.5394 389.817 13.3788 389.74L-13.8655 376.694C-14.0261 376.617 -14.0938 376.424 -14.0168 376.264Z" fill="#5B5B5B"/>
<path d="M86.1942 373.518V373.797C86.1942 374.743 85.5423 375.513 84.73 375.513L-2.82139 380.315L-34.1201 360.524V342.428L44.2871 343.298L84.3953 355.426C85.3889 355.426 86.1872 356.372 86.1872 357.514C86.1872 358.433 85.5492 359.181 84.7683 359.181H81.826V371.886H84.7962C85.5702 371.876 86.1942 372.617 86.1942 373.518Z" fill="#E55558"/>
<path d="M81.8365 371.911L-1.70581 376.055V361.168L81.8365 359.08V371.911Z" fill="white"/>
<path fill-rule="evenodd" clip-rule="evenodd" d="M81.7646 364.107C81.7732 364.285 81.6359 364.435 81.458 364.444L9.76866 367.886C9.59077 367.894 9.43963 367.757 9.43107 367.58C9.42252 367.402 9.55979 367.251 9.73768 367.243L81.427 363.801C81.6049 363.792 81.7561 363.929 81.7646 364.107Z" fill="#5B5B5B"/>
<path fill-rule="evenodd" clip-rule="evenodd" d="M81.6984 369.17C81.7074 369.347 81.5704 369.498 81.3926 369.507L8.02287 373.203C7.845 373.212 7.69354 373.075 7.68456 372.898C7.67558 372.72 7.8125 372.569 7.99037 372.56L81.3601 368.864C81.5379 368.855 81.6894 368.992 81.6984 369.17Z" fill="#5B5B5B"/>
<path d="M93.5325 353.996V354.201C93.5031 354.562 93.3336 354.898 93.0602 355.136C92.7868 355.375 92.4309 355.497 92.0684 355.478L4.25203 357.472L-26.7748 344.38L-26.5412 333.276L38.8068 336.874L91.7407 340.601C92.7342 340.601 93.5325 341.297 93.5325 342.167C93.5066 342.518 93.3431 342.844 93.0774 343.076C92.8118 343.307 92.4655 343.424 92.1137 343.402H89.1818V352.798H92.152C92.4941 352.775 92.8317 352.887 93.0906 353.112C93.3494 353.336 93.5084 353.654 93.5325 353.996Z" fill="#1D1E40"/>
<path d="M89.1749 352.805L4.25204 354.298V345.372L89.1749 343.305V352.805Z" fill="white"/>
<path fill-rule="evenodd" clip-rule="evenodd" d="M89.4972 346.102C89.5017 346.279 89.3611 346.427 89.183 346.432L17.6854 348.248C17.5074 348.253 17.3594 348.112 17.3548 347.935C17.3503 347.757 17.491 347.609 17.669 347.605L89.1666 345.788C89.3447 345.784 89.4927 345.924 89.4972 346.102Z" fill="#5B5B5B"/>
<path fill-rule="evenodd" clip-rule="evenodd" d="M89.1486 349.192C89.1531 349.37 89.0125 349.517 88.8344 349.522L15.4613 351.384C15.2832 351.388 15.1352 351.248 15.1307 351.07C15.1262 350.892 15.2668 350.745 15.4449 350.74L88.818 348.878C88.9961 348.874 89.1441 349.014 89.1486 349.192Z" fill="#5B5B5B"/>
<path d="M-25.5442 335.106V342.964L4.25204 354.298V345.372L-25.5442 335.106Z" fill="white"/>
<path fill-rule="evenodd" clip-rule="evenodd" d="M-21.5803 342.316C-21.5146 342.151 -21.3272 342.07 -21.1617 342.136L4.37097 352.249C4.5365 352.314 4.61746 352.501 4.55177 352.667C4.48609 352.832 4.29865 352.913 4.13311 352.847L-21.3995 342.734C-21.5651 342.669 -21.646 342.481 -21.5803 342.316Z" fill="#5B5B5B"/>
<path fill-rule="evenodd" clip-rule="evenodd" d="M-16.049 342.319C-15.9849 342.153 -15.7983 342.071 -15.6321 342.135L4.368 349.829C4.53418 349.893 4.61698 350.079 4.55293 350.245C4.48889 350.411 4.30225 350.494 4.13607 350.43L-15.864 342.735C-16.0302 342.671 -16.113 342.485 -16.049 342.319Z" fill="#5B5B5B"/>
<path fill-rule="evenodd" clip-rule="evenodd" d="M-19.0682 338.091C-19.0044 337.925 -18.8179 337.842 -18.6516 337.906L4.36749 346.718C4.53377 346.781 4.61688 346.967 4.55312 347.133C4.48936 347.299 4.30286 347.382 4.13657 347.319L-18.8825 338.507C-19.0488 338.444 -19.1319 338.257 -19.0682 338.091Z" fill="#5B5B5B"/>
<path d="M84.1513 340.5L-4.26466 341.22L-35.3089 330.147V312.312H30.3529L83.2867 318.099C84.2803 318.099 85.0786 319.188 85.0786 320.535C85.0786 321.579 84.4406 322.453 83.6597 322.453H80.7279V337.069H83.6981C86.2534 337.493 86.1314 340.208 84.1513 340.5Z" fill="#FCCA5F"/>
<path d="M80.7279 322.303H-3.1944V337.069H80.7279V322.303Z" fill="white"/>
<path fill-rule="evenodd" clip-rule="evenodd" d="M39.1886 326.074C39.1912 325.896 39.3376 325.754 39.5157 325.757L80.377 326.345C80.555 326.348 80.6973 326.494 80.6947 326.672C80.6922 326.849 80.5457 326.991 80.3677 326.989L39.5064 326.401C39.3283 326.398 39.186 326.252 39.1886 326.074Z" fill="#5B5B5B"/>
<path fill-rule="evenodd" clip-rule="evenodd" d="M6.67664 331.462C6.67664 331.285 6.82101 331.141 6.99911 331.141H80.3723C80.5504 331.141 80.6948 331.285 80.6948 331.462C80.6948 331.64 80.5504 331.784 80.3723 331.784H6.99911C6.82101 331.784 6.67664 331.64 6.67664 331.462Z" fill="#5B5B5B"/>
<path fill-rule="evenodd" clip-rule="evenodd" d="M35.1376 334.518C35.1376 334.34 35.282 334.196 35.4601 334.196H80.7209C80.899 334.196 81.0434 334.34 81.0434 334.518C81.0434 334.696 80.899 334.84 80.7209 334.84H35.4601C35.282 334.84 35.1376 334.696 35.1376 334.518Z" fill="#5B5B5B"/>
<path d="M75.2895 316.38V316.62C75.2849 317.017 75.1232 317.396 74.8398 317.674C74.5563 317.953 74.1741 318.108 73.7765 318.106H-17.3238L-49.5115 309.789V296.394H18.5557L73.4209 300.741C73.9094 300.736 74.3798 300.925 74.7288 301.266C75.0778 301.608 75.277 302.073 75.2825 302.561C75.283 302.753 75.245 302.944 75.1709 303.122C75.0967 303.3 74.9879 303.461 74.8506 303.597C74.7133 303.732 74.5504 303.839 74.3714 303.911C74.1924 303.983 74.0008 304.018 73.8079 304.015H70.7644V314.998H73.8392C74.2142 314.993 74.5764 315.134 74.8477 315.393C75.1189 315.651 75.2776 316.006 75.2895 316.38Z" fill="#565697"/>
<path d="M70.7749 303.901H-16.2152V314.991H70.7749V303.901Z" fill="white"/>
<path fill-rule="evenodd" clip-rule="evenodd" d="M21.96 307.175C21.96 306.998 22.1043 306.853 22.2824 306.853H70.9771C71.1552 306.853 71.2996 306.998 71.2996 307.175C71.2996 307.353 71.1552 307.497 70.9771 307.497H22.2824C22.1043 307.497 21.96 307.353 21.96 307.175Z" fill="#5B5B5B"/>
<path fill-rule="evenodd" clip-rule="evenodd" d="M-5.96066 310.781C-5.96066 310.603 -5.81629 310.459 -5.63819 310.459H70.4159C70.5939 310.459 70.7383 310.603 70.7383 310.781C70.7383 310.958 70.5939 311.103 70.4159 311.103H-5.63819C-5.81629 311.103 -5.96066 310.958 -5.96066 310.781Z" fill="#5B5B5B"/>
<path d="M6.07877 292.19V300.741H14.3758V296.464L21.1703 300.741H39.511L22.8228 292.1L6.07877 292.19Z" fill="#9D4E49"/>
<path d="M6.07877 292.166V300.713H14.3758V296.439L21.1703 300.713H39.511L22.8228 292.076L6.07877 292.166Z" fill="#9D4E49"/>
<path d="M33.3336 293.499V300.741H40.5569V296.325L49.0596 300.741H67.0691L51.7997 293.499H33.3336Z" fill="#9D4E49"/>
<path fill-rule="evenodd" clip-rule="evenodd" d="M5.75632 299.091C5.75632 298.913 5.90069 298.769 6.07879 298.769H14.1388C14.3169 298.769 14.4613 298.913 14.4613 299.091C14.4613 299.269 14.3169 299.413 14.1388 299.413H6.07879C5.90069 299.413 5.75632 299.269 5.75632 299.091Z" fill="#4C1C17"/>
<path fill-rule="evenodd" clip-rule="evenodd" d="M18.418 299.091C18.418 298.913 18.5624 298.769 18.7405 298.769H33.3336C33.5116 298.769 33.656 298.913 33.656 299.091C33.656 299.269 33.5116 299.413 33.3336 299.413H18.7405C18.5624 299.413 18.418 299.269 18.418 299.091Z" fill="#4C1C17"/>
<path fill-rule="evenodd" clip-rule="evenodd" d="M33.0111 299.091C33.0111 298.913 33.1555 298.769 33.3336 298.769H40.5534C40.7315 298.769 40.8759 298.913 40.8759 299.091C40.8759 299.269 40.7315 299.413 40.5534 299.413H33.3336C33.1555 299.413 33.0111 299.269 33.0111 299.091Z" fill="#4C1C17"/>
<path fill-rule="evenodd" clip-rule="evenodd" d="M45.9134 299.091C45.9134 298.913 46.0577 298.769 46.2358 298.769H63.2274C63.4055 298.769 63.5498 298.913 63.5498 299.091C63.5498 299.269 63.4055 299.413 63.2274 299.413H46.2358C46.0577 299.413 45.9134 299.269 45.9134 299.091Z" fill="#4C1C17"/>
<path d="M0.0791056 200.415C0.0791056 200.415 2.57519 272.619 1.12495 280.477C-0.325289 288.334 -2.22873 293.137 -2.22873 293.137L28.4146 293.575L18.7614 246.999L11.5451 214.005C9.21935 212.566 7.10711 210.809 5.26999 208.785C2.99862 206.358 1.22981 203.508 0.0651579 200.398" fill="#55957C"/>
<path d="M0.0791056 200.339C0.0791056 200.339 2.57519 272.539 1.12495 280.4C-0.325289 288.261 -2.22873 293.06 -2.22873 293.06L28.4216 293.499L18.7614 246.922L11.5451 213.928C9.22047 212.495 7.10829 210.743 5.26999 208.725C2.99862 206.299 1.22981 203.449 0.0651579 200.339" fill="#E59666"/>
<path d="M3.6001 210.438C3.6001 210.438 21.0309 290.377 28.4181 293.575H56.52C56.52 293.575 41.5923 273.068 35.2161 245.363C33.3335 237.178 28.4181 214.739 28.4181 214.739L1.57465 197.642L3.6001 210.438Z" fill="#FCC95F"/>
<path fill-rule="evenodd" clip-rule="evenodd" d="M19.9182 216.89C20.0488 216.861 20.1783 216.943 20.2076 217.073L19.9711 217.126L19.7347 217.179C19.7055 217.049 19.7876 216.919 19.9182 216.89ZM26.7615 247.061C25.6988 243.045 23.9417 235.573 22.4512 229.109C21.7057 225.876 21.0266 222.893 20.5339 220.719C20.2875 219.632 20.0877 218.747 19.9495 218.134C19.8804 217.827 19.8267 217.589 19.7903 217.427L19.7347 217.179C19.7347 217.179 19.7347 217.179 19.9711 217.126C20.2076 217.073 20.2075 217.073 20.2076 217.073L20.2631 217.321C20.2995 217.483 20.3532 217.721 20.4223 218.028C20.5604 218.641 20.7602 219.526 21.0065 220.612C21.4991 222.786 22.1781 225.768 22.9234 229C24.4144 235.466 26.1696 242.931 27.23 246.937C29.3354 254.906 32.6169 265.336 36.3975 274.372C38.2879 278.891 40.3007 283.055 42.3506 286.386C44.4054 289.724 46.4794 292.196 48.4814 293.367C48.5968 293.434 48.6356 293.582 48.568 293.698C48.5003 293.813 48.3519 293.852 48.2364 293.784C46.1265 292.55 44.001 289.991 41.9377 286.639C39.8697 283.278 37.8459 279.09 35.9503 274.559C32.159 265.497 28.8709 255.044 26.7615 247.061Z" fill="white"/>
<path d="M38.1235 152.634C38.1235 152.634 35.6553 155.86 36.5304 158.269C37.5762 161.108 26.0161 155.686 29.0316 154.218C30.9775 153.242 32.7988 152.036 34.4561 150.626L38.1235 152.634Z" fill="#EFB6AB"/>
<path opacity="0.64" d="M34.7001 147.526L36.7186 155.123L40.1804 148.465L34.7001 147.526Z" fill="#EFB6AB"/>
<path d="M52.9467 171.298C53.3685 170.055 56.269 168.677 58.4304 172.669C60.5918 176.661 59.5041 178.08 58.3049 177.778C57.1056 177.475 56.255 176.876 55.7077 175.404C55.3609 174.427 54.7446 173.568 53.9298 172.926C53.9298 172.926 52.5423 172.533 52.9467 171.298Z" fill="#EFB6AB"/>
<path d="M36.37 158.898C36.37 158.898 48.338 155.533 51.9357 152.694C55.5334 149.854 63.44 135.69 66.4242 134.093C69.4083 132.496 71.7196 132.6 75.4185 134.789C79.1173 136.978 80.6163 143.266 76.0181 148.549C71.4198 153.832 61.5296 161.334 61.5296 161.334L40.1804 175.397C40.1804 175.397 41.6236 167.118 36.37 158.898Z" fill="#E55558"/>
<path d="M21.6689 157.827C21.6689 157.827 16.9033 161.881 15.589 173.167C14.3026 184.372 0.908803 193.493 -0.447313 193.184C-1.80343 192.874 -0.680887 218.428 24.7262 215.487C39.6261 213.747 35.2161 200.412 35.2161 200.412C35.2161 200.412 43.412 201.365 49.6906 190.469C55.1011 181.073 55.9273 179.636 56.5026 177.196C57.1405 174.472 54.4388 169.993 48.2404 171.601C46.0406 172.175 41.2402 177.485 41.2402 177.485C41.54 176.758 41.5156 163.074 36.3595 158.902C33.717 158.902 33.3161 158.279 30.2657 156.734C26.7691 154.959 21.6689 157.827 21.6689 157.827Z" fill="#E55558"/>
<path d="M33.717 149.631C33.717 149.631 36.1852 154.239 41.5818 152.161C45.9534 149.652 45.6397 146.534 46.33 144.766C47.0388 144.435 47.7196 144.048 48.3659 143.607C48.5035 143.513 48.6067 143.376 48.6601 143.218C48.7136 143.06 48.7143 142.889 48.6622 142.73C48.4809 142.163 47.7976 141.237 46.9017 140.294C46.7099 136.205 45.2004 134.483 45.2004 134.483C45.2004 134.483 40.7521 130.188 36.8337 135.474C32.9152 140.761 33.717 149.631 33.717 149.631Z" fill="#EFB6AB"/>
<path d="M45.3684 142.05C45.555 141.535 45.4802 141.036 45.2015 140.936C44.9228 140.835 44.5456 141.171 44.3591 141.686C44.1725 142.201 44.2472 142.7 44.5259 142.8C44.8046 142.901 45.1818 142.565 45.3684 142.05Z" fill="black"/>
<path fill-rule="evenodd" clip-rule="evenodd" d="M45.7006 138.66C45.7038 138.838 45.5619 138.984 45.3839 138.987C44.83 138.997 44.4068 139.342 44.1024 139.74C43.9529 139.935 43.8417 140.132 43.7678 140.28C43.731 140.354 43.704 140.415 43.6865 140.457C43.6778 140.477 43.6715 140.493 43.6675 140.503L43.6634 140.514L43.6628 140.515C43.6628 140.516 43.6628 140.516 43.6628 140.516C43.6628 140.516 43.6628 140.515 43.3597 140.406L43.0566 140.296C42.9958 140.463 43.0823 140.648 43.2497 140.708C43.417 140.769 43.6019 140.683 43.6628 140.516M43.3597 140.406C43.0566 140.296 43.0567 140.296 43.0567 140.296L43.0568 140.295L43.057 140.295L43.0577 140.293L43.0597 140.287C43.0614 140.283 43.0637 140.277 43.0666 140.269C43.0725 140.254 43.081 140.233 43.092 140.207C43.1141 140.155 43.1467 140.081 43.1903 139.994C43.2769 139.82 43.4089 139.586 43.5897 139.349C43.9459 138.884 44.5319 138.358 45.3726 138.344C45.5506 138.341 45.6975 138.482 45.7006 138.66" fill="#91461C"/>
<path fill-rule="evenodd" clip-rule="evenodd" d="M44.2795 145.386C44.2238 145.217 44.0419 145.125 43.8729 145.181C43.7037 145.236 43.6114 145.418 43.6669 145.587L43.9733 145.486C43.6669 145.587 43.6669 145.587 43.6669 145.587L43.667 145.587L43.6672 145.588L43.6677 145.589L43.6692 145.593L43.6739 145.607C43.6779 145.618 43.6835 145.634 43.6908 145.653C43.7054 145.691 43.7268 145.744 43.7552 145.806C43.8114 145.928 43.898 146.094 44.0179 146.254C44.2494 146.563 44.6817 146.941 45.2958 146.759C45.4665 146.708 45.5638 146.529 45.513 146.359C45.4623 146.188 45.2828 146.091 45.1121 146.142C44.8929 146.207 44.71 146.103 44.5345 145.868C44.4508 145.757 44.386 145.635 44.3417 145.538C44.3198 145.49 44.3036 145.45 44.2932 145.423C44.288 145.41 44.2843 145.399 44.2821 145.393L44.2798 145.386L44.2795 145.386Z" fill="#4C1C17"/>
<path d="M40.027 136.797C40.027 136.797 43.1297 148.11 32.9013 155.175C22.6729 162.239 17.2658 155.38 16.7743 153.17C16.2827 150.961 15.8714 147.982 18.6429 145.981C21.4144 143.98 24.3881 139.076 24.3881 135.76C24.3881 132.443 34.721 130.14 36.7883 128.894C38.8556 127.648 48.087 121.607 50.6144 127.676C53.6056 134.858 46.9714 136.473 44.172 136.473C41.3726 136.473 40.8706 135.676 40.027 136.797Z" fill="#9D4E49"/>
<path fill-rule="evenodd" clip-rule="evenodd" d="M41.7143 126.534L41.6296 126.308C41.5042 126.354 41.4405 126.494 41.4873 126.619C41.534 126.744 41.6735 126.807 41.7988 126.761L41.8 126.76L41.8057 126.758C41.811 126.757 41.8195 126.754 41.8308 126.75C41.8535 126.742 41.8877 126.731 41.9322 126.717C42.0213 126.689 42.1512 126.653 42.3111 126.616C42.632 126.543 43.0688 126.473 43.5384 126.482C44.4746 126.498 45.5072 126.822 46.0609 128.027L46.0611 128.028C46.6883 129.385 46.5853 130.921 45.6118 132.313C44.8085 133.462 43.403 134.525 41.3016 135.292C41.6632 135 42.0574 134.646 42.42 134.241C42.9517 133.648 43.4283 132.932 43.6223 132.137C43.8188 131.333 43.7211 130.461 43.1284 129.583L43.1281 129.583C42.6457 128.872 41.9226 128.518 41.1383 128.38C40.3583 128.242 39.5034 128.314 38.7211 128.464C37.9364 128.614 37.2099 128.846 36.6809 129.039C36.4159 129.136 36.1995 129.224 36.0489 129.287C35.9735 129.319 35.9146 129.345 35.8742 129.363C35.854 129.372 35.8384 129.379 35.8277 129.384L35.8154 129.389L35.8121 129.391L35.8111 129.391C35.811 129.391 35.8107 129.391 35.9133 129.611L35.8107 129.391C35.6895 129.448 35.6371 129.592 35.6938 129.713C35.7505 129.834 35.8947 129.886 36.0159 129.83M36.0159 129.83L36.0164 129.829L36.0188 129.828L36.0292 129.824C36.0386 129.819 36.0529 129.813 36.0717 129.804C36.1094 129.788 36.1654 129.763 36.2375 129.733C36.382 129.672 36.591 129.587 36.8474 129.493C37.3612 129.306 38.0614 129.083 38.8124 128.939C39.5657 128.795 40.3554 128.733 41.054 128.856C41.7482 128.979 42.3376 129.281 42.7268 129.854C43.2407 130.615 43.3168 131.346 43.1515 132.023C42.9837 132.71 42.5629 133.356 42.0588 133.919C41.5563 134.479 40.9839 134.944 40.5346 135.269C40.3104 135.431 40.1183 135.558 39.9826 135.643C39.9148 135.686 39.8612 135.719 39.8249 135.741C39.8068 135.752 39.793 135.76 39.7839 135.765L39.7738 135.771L39.7715 135.772L39.7711 135.772C39.7711 135.772 39.7711 135.772 39.7711 135.772C39.6655 135.832 39.6208 135.961 39.6666 136.074C39.7125 136.186 39.8347 136.247 39.9523 136.217C42.9562 135.433 44.9445 134.113 46.0092 132.59C47.0786 131.06 47.2022 129.342 46.5013 127.825C45.8418 126.39 44.591 126.017 43.5471 125.998C43.0267 125.989 42.5492 126.066 42.2034 126.144C42.03 126.184 41.8883 126.224 41.7893 126.255C41.7397 126.27 41.7007 126.283 41.6737 126.292C41.6602 126.297 41.6496 126.3 41.6422 126.303L41.6335 126.306L41.6309 126.307L41.6301 126.307C41.63 126.307 41.6296 126.308 41.7143 126.534" fill="#772220"/>
<path fill-rule="evenodd" clip-rule="evenodd" d="M39.7002 136.243C39.8246 136.283 39.8949 136.414 39.8591 136.539C36.5498 148.129 31.2234 152.943 26.6768 154.838C24.409 155.783 22.3495 155.996 20.8557 155.972C20.1088 155.959 19.5027 155.888 19.0817 155.82C18.8712 155.785 18.7068 155.751 18.5942 155.726C18.5379 155.713 18.4945 155.703 18.4647 155.695C18.4498 155.691 18.4383 155.688 18.4302 155.686L18.4208 155.684L18.4181 155.683L18.4172 155.683C18.4169 155.683 18.4167 155.683 18.4825 155.45L18.4167 155.683C18.2879 155.646 18.213 155.513 18.2493 155.384C18.2856 155.256 18.4194 155.181 18.5481 155.217M18.5483 155.217L18.5495 155.217L18.5559 155.219C18.5619 155.221 18.5714 155.223 18.5843 155.226C18.6099 155.233 18.649 155.243 18.7009 155.254C18.8047 155.278 18.9595 155.309 19.1599 155.342C19.5606 155.408 20.1431 155.476 20.8636 155.488C22.3046 155.511 24.2956 155.306 26.4901 154.392C30.364 152.777 34.9172 148.932 38.1865 140.109C37.342 141.653 36.1613 143.533 34.6115 145.394C30.9783 149.757 25.2967 154.037 17.1552 153.6C17.0216 153.593 16.9191 153.479 16.9263 153.345C16.9335 153.212 17.0476 153.11 17.1812 153.117C25.1144 153.543 30.6617 149.38 34.2388 145.085C36.0272 142.937 37.3181 140.762 38.162 139.122C38.5838 138.303 38.8935 137.618 39.0974 137.139C39.1994 136.9 39.2749 136.712 39.3247 136.584C39.3496 136.521 39.3681 136.472 39.3803 136.439C39.3864 136.423 39.3909 136.411 39.3939 136.403L39.3971 136.394L39.3979 136.392L39.398 136.391C39.398 136.391 39.398 136.391 39.401 136.393L39.398 136.391C39.4422 136.269 39.5759 136.203 39.7002 136.243M18.5483 155.217C18.5483 155.217 18.5483 155.217 18.5483 155.217C18.5483 155.217 18.5482 155.217 18.5482 155.217" fill="#772220"/>
<path fill-rule="evenodd" clip-rule="evenodd" d="M24.8264 171.071C24.9518 171.025 25.0913 171.088 25.138 171.213L24.911 171.298C25.138 171.213 25.138 171.213 25.138 171.213L25.1383 171.214L25.1387 171.215L25.1399 171.219L25.1444 171.231C25.1482 171.242 25.1536 171.257 25.1605 171.277C25.1743 171.318 25.1939 171.377 25.2179 171.455C25.266 171.611 25.3319 171.841 25.4049 172.143C25.5508 172.747 25.725 173.639 25.841 174.796C26.073 177.112 26.0721 180.489 25.1478 184.757C24.245 188.927 25.3523 192.793 27.3968 195.615C29.446 198.442 32.4151 200.194 35.2149 200.18C35.3487 200.18 35.4577 200.287 35.4583 200.421C35.459 200.555 35.351 200.663 35.2172 200.664C32.2196 200.678 29.1175 198.814 27.0042 195.898C24.8863 192.975 23.7398 188.97 24.6742 184.655C25.5871 180.439 25.5861 177.113 25.3588 174.845C25.2452 173.71 25.0749 172.841 24.9338 172.256C24.8633 171.964 24.8 171.744 24.7548 171.597C24.7322 171.524 24.7141 171.469 24.7018 171.433C24.6957 171.415 24.691 171.402 24.688 171.393L24.6847 171.384L24.684 171.382C24.684 171.382 24.684 171.382 24.684 171.382M24.8264 171.071C24.7011 171.118 24.6374 171.257 24.684 171.382L24.8264 171.071Z" fill="#93242A"/>
<path fill-rule="evenodd" clip-rule="evenodd" d="M32.7357 158.276C32.8431 158.197 32.9948 158.219 33.0747 158.326C36.2625 162.602 37.8472 167.858 37.5532 173.18C37.379 176.36 37.2919 178.613 37.2484 180.069C37.2291 180.715 37.2184 181.204 37.2124 181.548L40.7678 177.633C40.8577 177.534 41.0109 177.526 41.11 177.616C41.2092 177.705 41.2167 177.858 41.1268 177.957L37.1422 182.346C37.0749 182.42 36.9689 182.445 36.8754 182.409C36.782 182.373 36.7204 182.283 36.7204 182.183H36.9627C36.7204 182.183 36.7204 182.183 36.7204 182.183L36.7204 182.175L36.7205 182.151C36.7205 182.13 36.7207 182.098 36.7211 182.055C36.7217 181.969 36.7231 181.84 36.7258 181.666C36.7313 181.316 36.7422 180.785 36.764 180.055C36.8077 178.594 36.8949 176.338 37.0693 173.153C37.3571 167.945 35.806 162.8 32.686 158.615C32.6061 158.508 32.6284 158.356 32.7357 158.276Z" fill="#93242A"/>
<path fill-rule="evenodd" clip-rule="evenodd" d="M37.129 182.032C37.2298 182.12 37.2401 182.273 37.1521 182.374C35.2385 184.562 34.1197 187.33 33.9764 190.231C33.9699 190.364 33.8562 190.467 33.7225 190.46C33.5889 190.454 33.4859 190.34 33.4925 190.207C33.6411 187.197 34.8018 184.325 36.7871 182.056C36.8751 181.955 37.0282 181.945 37.129 182.032Z" fill="#93242A"/>
<path fill-rule="evenodd" clip-rule="evenodd" d="M56.2658 147.827C56.3802 147.897 56.4166 148.045 56.3471 148.159C52.3856 154.666 49.685 158.1 47.9675 159.911C47.1084 160.817 46.4921 161.319 46.0836 161.598C45.8791 161.737 45.7258 161.821 45.6192 161.871C45.5659 161.896 45.5242 161.913 45.4936 161.924C45.4783 161.929 45.4657 161.933 45.4558 161.936C45.4509 161.938 45.4466 161.939 45.443 161.94L45.4381 161.941L45.436 161.942L45.4351 161.942C45.4347 161.942 45.4342 161.942 45.3782 161.707L45.4342 161.942C45.304 161.973 45.1734 161.893 45.1425 161.763C45.112 161.634 45.1902 161.506 45.3176 161.473C45.3191 161.472 45.3235 161.471 45.3307 161.468C45.3457 161.463 45.3729 161.452 45.4129 161.434C45.493 161.396 45.624 161.326 45.8103 161.199C46.1831 160.944 46.7734 160.466 47.6156 159.578C49.3005 157.802 51.9809 154.399 55.933 147.908C56.0025 147.794 56.1515 147.758 56.2658 147.827Z" fill="#93242A"/>
<path fill-rule="evenodd" clip-rule="evenodd" d="M38.8316 161.484C38.955 161.432 39.097 161.49 39.1488 161.613C40.8235 165.6 41.6422 169.893 41.5521 174.216C41.5493 174.349 41.4386 174.455 41.3048 174.452C41.171 174.45 41.0648 174.339 41.0676 174.206C41.1563 169.951 40.3504 165.725 38.7019 161.8C38.6501 161.677 38.7082 161.535 38.8316 161.484Z" fill="#93242A"/>
<path d="M90.9528 130.077V127.752L88.4497 126.593L88.1464 124.697L90.2381 122.609L89.4642 120.712L86.6752 121.14L85.1971 119.668L86.1837 116.675L84.3395 115.36L82.077 117.163L80.2328 116.306L79.7448 113.919L77.2347 113.554L76.1889 116.306H74.1565L72.6191 114.292L70.2938 115.148L70.5308 117.963L69.1364 119.129L66.6298 118.273L65.0925 120.114L66.7449 122.616L66.0755 124.328L63.1995 124.631L62.9589 127.018L65.7967 128.243V130.206L63.705 131.977L64.6915 134.242L67.5084 133.874L68.7982 135.464L67.8779 137.9L69.8964 139.376L72.0648 137.601L73.8462 138.7L74.1495 141.206H76.9663L77.9529 138.7H79.7901L81.5715 140.6L83.7748 139.501L83.3425 137.065L84.7544 135.906L87.6305 136.522L88.9203 134.51L87.3272 132.489L88.122 130.529L90.9528 130.077ZM76.9454 132.607C75.9111 132.607 74.9001 132.301 74.0402 131.727C73.1802 131.154 72.51 130.338 72.1142 129.384C71.7184 128.431 71.6149 127.381 71.8166 126.368C72.0184 125.356 72.5164 124.426 73.2478 123.696C73.9791 122.966 74.9109 122.469 75.9252 122.267C76.9396 122.066 77.991 122.169 78.9465 122.564C79.902 122.959 80.7187 123.628 81.2933 124.487C81.8679 125.345 82.1746 126.354 82.1746 127.387C82.1746 128.771 81.6237 130.099 80.643 131.078C79.6624 132.057 78.3323 132.607 76.9454 132.607Z" fill="#565697"/>
<path d="M72.6853 129.169C72.6853 129.169 70.6529 132.753 72.8457 134.242C75.0385 135.732 77.0779 134.023 77.9738 133.101C78.8698 132.179 78.6048 131.048 77.5973 130.22C76.5898 129.391 73.2606 127.804 72.6853 129.169Z" fill="#EFB6AB"/>
</g>
</g>
<g filter="url(#filter0_d_452_640)">
<path d="M32 46C32 40.4772 36.4772 36 42 36H233C238.523 36 243 40.4772 243 46V70C243 75.5228 238.523 80 233 80H42C36.4772 80 32 75.5228 32 70V46Z" fill="#F8CB4E"/>
</g>
<path d="M96.2302 57.6816V61.7695C96.0616 61.9564 95.8018 62.1569 95.4509 62.3711C95.1046 62.5807 94.6671 62.7607 94.1384 62.9111C93.6098 63.0615 92.9877 63.1367 92.2722 63.1367C91.6114 63.1367 91.0121 63.0319 90.4744 62.8223C89.9366 62.6081 89.474 62.2959 89.0867 61.8857C88.7039 61.471 88.4076 60.9652 88.198 60.3682C87.9929 59.7666 87.8904 59.0785 87.8904 58.3037V57.75C87.8904 56.9753 87.9952 56.2871 88.2048 55.6855C88.4145 55.084 88.7084 54.5781 89.0867 54.168C89.4695 53.7533 89.9184 53.4388 90.4334 53.2246C90.9529 53.0104 91.5225 52.9033 92.1423 52.9033C93.0584 52.9033 93.8035 53.0492 94.3777 53.3408C94.9519 53.6279 95.3871 54.0267 95.6834 54.5371C95.9796 55.043 96.1596 55.6286 96.2234 56.2939H93.9197C93.8741 55.9658 93.7875 55.6878 93.6599 55.46C93.5369 55.2275 93.3591 55.0521 93.1267 54.9336C92.8943 54.8105 92.5935 54.749 92.2244 54.749C91.9373 54.749 91.6752 54.8105 91.4382 54.9336C91.2058 55.0566 91.0076 55.2435 90.8435 55.4941C90.6794 55.7402 90.5518 56.0501 90.4607 56.4238C90.3741 56.7975 90.3308 57.235 90.3308 57.7363V58.3037C90.3308 58.8005 90.3718 59.2357 90.4539 59.6094C90.5404 59.9831 90.6681 60.2952 90.8367 60.5459C91.0099 60.792 91.2286 60.9788 91.4929 61.1064C91.7618 61.2295 92.0785 61.291 92.4431 61.291C92.6983 61.291 92.9171 61.2705 93.0994 61.2295C93.2817 61.1839 93.4321 61.1292 93.5505 61.0654C93.6736 60.9971 93.767 60.9333 93.8308 60.874V59.3291H92.1628V57.6816H96.2302ZM107.453 57.8252V58.2285C107.453 58.9896 107.346 59.6732 107.132 60.2793C106.923 60.8809 106.624 61.3958 106.237 61.8242C105.849 62.248 105.391 62.5739 104.863 62.8018C104.334 63.0251 103.751 63.1367 103.113 63.1367C102.47 63.1367 101.882 63.0251 101.349 62.8018C100.82 62.5739 100.36 62.248 99.9681 61.8242C99.5807 61.3958 99.28 60.8809 99.0658 60.2793C98.8561 59.6732 98.7513 58.9896 98.7513 58.2285V57.8252C98.7513 57.0641 98.8561 56.3805 99.0658 55.7744C99.28 55.1683 99.5785 54.6533 99.9613 54.2295C100.349 53.8011 100.807 53.4753 101.335 53.252C101.869 53.0241 102.456 52.9102 103.099 52.9102C103.737 52.9102 104.32 53.0241 104.849 53.252C105.382 53.4753 105.842 53.8011 106.23 54.2295C106.617 54.6533 106.918 55.1683 107.132 55.7744C107.346 56.3805 107.453 57.0641 107.453 57.8252ZM105.02 58.2285V57.8115C105.02 57.3193 104.977 56.8864 104.89 56.5127C104.808 56.1344 104.685 55.8177 104.521 55.5625C104.357 55.3073 104.154 55.1159 103.912 54.9883C103.675 54.8561 103.404 54.79 103.099 54.79C102.78 54.79 102.502 54.8561 102.265 54.9883C102.028 55.1159 101.83 55.3073 101.67 55.5625C101.511 55.8177 101.39 56.1344 101.308 56.5127C101.23 56.8864 101.192 57.3193 101.192 57.8115V58.2285C101.192 58.7161 101.23 59.1491 101.308 59.5273C101.39 59.901 101.511 60.2178 101.67 60.4775C101.834 60.7373 102.035 60.9333 102.272 61.0654C102.513 61.1976 102.794 61.2637 103.113 61.2637C103.418 61.2637 103.689 61.1976 103.926 61.0654C104.163 60.9333 104.361 60.7373 104.521 60.4775C104.685 60.2178 104.808 59.901 104.89 59.5273C104.977 59.1491 105.02 58.7161 105.02 58.2285ZM100.262 51.5498C100.262 51.2946 100.365 51.0804 100.57 50.9072C100.775 50.7295 101.016 50.6406 101.294 50.6406C101.577 50.6406 101.818 50.7295 102.019 50.9072C102.224 51.0804 102.327 51.2946 102.327 51.5498C102.327 51.805 102.224 52.0215 102.019 52.1992C101.818 52.3724 101.577 52.459 101.294 52.459C101.016 52.459 100.775 52.3724 100.57 52.1992C100.365 52.0215 100.262 51.805 100.262 51.5498ZM103.81 51.5498C103.81 51.2946 103.912 51.0804 104.118 50.9072C104.323 50.7295 104.564 50.6406 104.842 50.6406C105.125 50.6406 105.366 50.7295 105.567 50.9072C105.772 51.0804 105.874 51.2946 105.874 51.5498C105.874 51.805 105.772 52.0215 105.567 52.1992C105.366 52.3724 105.125 52.459 104.842 52.459C104.564 52.459 104.323 52.3724 104.118 52.1992C103.912 52.0215 103.81 51.805 103.81 51.5498ZM118.41 53.0469V63H116.018L112.497 56.8066V63H110.098V53.0469H112.497L116.018 59.2402V53.0469H118.41ZM126.728 53.0469H129.127V59.5479C129.127 60.3226 128.966 60.9788 128.642 61.5166C128.319 62.0498 127.865 62.4531 127.282 62.7266C126.698 63 126.013 63.1367 125.224 63.1367C124.445 63.1367 123.759 63 123.167 62.7266C122.579 62.4531 122.118 62.0498 121.786 61.5166C121.458 60.9788 121.294 60.3226 121.294 59.5479V53.0469H123.7V59.5479C123.7 59.958 123.759 60.293 123.877 60.5527C123.996 60.8079 124.169 60.9948 124.397 61.1133C124.625 61.2318 124.901 61.291 125.224 61.291C125.552 61.291 125.828 61.2318 126.051 61.1133C126.275 60.9948 126.443 60.8079 126.557 60.5527C126.671 60.293 126.728 59.958 126.728 59.5479V53.0469ZM122.353 51.5498C122.353 51.2946 122.456 51.0804 122.661 50.9072C122.866 50.7295 123.107 50.6406 123.385 50.6406C123.668 50.6406 123.909 50.7295 124.11 50.9072C124.315 51.0804 124.418 51.2946 124.418 51.5498C124.418 51.805 124.315 52.0215 124.11 52.1992C123.909 52.3724 123.668 52.459 123.385 52.459C123.107 52.459 122.866 52.3724 122.661 52.1992C122.456 52.0215 122.353 51.805 122.353 51.5498ZM125.901 51.5498C125.901 51.2946 126.003 51.0804 126.209 50.9072C126.414 50.7295 126.655 50.6406 126.933 50.6406C127.216 50.6406 127.457 50.7295 127.658 50.9072C127.863 51.0804 127.965 51.2946 127.965 51.5498C127.965 51.805 127.863 52.0215 127.658 52.1992C127.457 52.3724 127.216 52.459 126.933 52.459C126.655 52.459 126.414 52.3724 126.209 52.1992C126.003 52.0215 125.901 51.805 125.901 51.5498ZM138.614 61.1543V63H133.583V61.1543H138.614ZM134.438 53.0469V63H132.038V53.0469H134.438ZM147.602 61.1543V63H142.571V61.1543H147.602ZM143.426 53.0469V63H141.026V53.0469H143.426ZM155.25 53.0469H157.65V59.5479C157.65 60.3226 157.488 60.9788 157.164 61.5166C156.841 62.0498 156.387 62.4531 155.804 62.7266C155.221 63 154.535 63.1367 153.746 63.1367C152.967 63.1367 152.281 63 151.689 62.7266C151.101 62.4531 150.641 62.0498 150.308 61.5166C149.98 60.9788 149.816 60.3226 149.816 59.5479V53.0469H152.222V59.5479C152.222 59.958 152.281 60.293 152.4 60.5527C152.518 60.8079 152.691 60.9948 152.919 61.1133C153.147 61.2318 153.423 61.291 153.746 61.291C154.075 61.291 154.35 61.2318 154.574 61.1133C154.797 60.9948 154.966 60.8079 155.079 60.5527C155.193 60.293 155.25 59.958 155.25 59.5479V53.0469ZM150.875 51.5498C150.875 51.2946 150.978 51.0804 151.183 50.9072C151.388 50.7295 151.63 50.6406 151.908 50.6406C152.19 50.6406 152.432 50.7295 152.632 50.9072C152.837 51.0804 152.94 51.2946 152.94 51.5498C152.94 51.805 152.837 52.0215 152.632 52.1992C152.432 52.3724 152.19 52.459 151.908 52.459C151.63 52.459 151.388 52.3724 151.183 52.1992C150.978 52.0215 150.875 51.805 150.875 51.5498ZM154.423 51.5498C154.423 51.2946 154.526 51.0804 154.731 50.9072C154.936 50.7295 155.177 50.6406 155.455 50.6406C155.738 50.6406 155.98 50.7295 156.18 50.9072C156.385 51.0804 156.488 51.2946 156.488 51.5498C156.488 51.805 156.385 52.0215 156.18 52.1992C155.98 52.3724 155.738 52.459 155.455 52.459C155.177 52.459 154.936 52.3724 154.731 52.1992C154.526 52.0215 154.423 51.805 154.423 51.5498ZM173.869 57.8252V58.2285C173.869 58.9896 173.762 59.6732 173.547 60.2793C173.338 60.8809 173.039 61.3958 172.652 61.8242C172.265 62.248 171.807 62.5739 171.278 62.8018C170.749 63.0251 170.166 63.1367 169.528 63.1367C168.885 63.1367 168.297 63.0251 167.764 62.8018C167.236 62.5739 166.775 62.248 166.383 61.8242C165.996 61.3958 165.695 60.8809 165.481 60.2793C165.271 59.6732 165.167 58.9896 165.167 58.2285V57.8252C165.167 57.0641 165.271 56.3805 165.481 55.7744C165.695 55.1683 165.994 54.6533 166.377 54.2295C166.764 53.8011 167.222 53.4753 167.751 53.252C168.284 53.0241 168.872 52.9102 169.514 52.9102C170.152 52.9102 170.736 53.0241 171.264 53.252C171.797 53.4753 172.258 53.8011 172.645 54.2295C173.032 54.6533 173.333 55.1683 173.547 55.7744C173.762 56.3805 173.869 57.0641 173.869 57.8252ZM171.435 58.2285V57.8115C171.435 57.3193 171.392 56.8864 171.305 56.5127C171.223 56.1344 171.1 55.8177 170.936 55.5625C170.772 55.3073 170.569 55.1159 170.328 54.9883C170.091 54.8561 169.82 54.79 169.514 54.79C169.195 54.79 168.917 54.8561 168.68 54.9883C168.443 55.1159 168.245 55.3073 168.085 55.5625C167.926 55.8177 167.805 56.1344 167.723 56.5127C167.646 56.8864 167.607 57.3193 167.607 57.8115V58.2285C167.607 58.7161 167.646 59.1491 167.723 59.5273C167.805 59.901 167.926 60.2178 168.085 60.4775C168.25 60.7373 168.45 60.9333 168.687 61.0654C168.929 61.1976 169.209 61.2637 169.528 61.2637C169.833 61.2637 170.104 61.1976 170.341 61.0654C170.578 60.9333 170.777 60.7373 170.936 60.4775C171.1 60.2178 171.223 59.901 171.305 59.5273C171.392 59.1491 171.435 58.7161 171.435 58.2285ZM183.089 61.1543V63H178.058V61.1543H183.089ZM178.912 53.0469V63H176.513V53.0469H178.912Z" fill="#000C5C"/>
</g>
<defs>
<filter id="filter0_d_452_640" x="2" y="6" width="271" height="104" filterUnits="userSpaceOnUse" color-interpolation-filters="sRGB">
<feFlood flood-opacity="0" result="BackgroundImageFix"/>
<feColorMatrix in="SourceAlpha" type="matrix" values="0 0 0 0 0 0 0 0 0 0 0 0 0 0 0 0 0 0 127 0" result="hardAlpha"/>
<feOffset/>
<feGaussianBlur stdDeviation="15"/>
<feComposite in2="hardAlpha" operator="out"/>
<feColorMatrix type="matrix" values="0 0 0 0 0 0 0 0 0 0 0 0 0 0 0 0 0 0 0.1 0"/>
<feBlend mode="normal" in2="BackgroundImageFix" result="effect1_dropShadow_452_640"/>
<feBlend mode="normal" in="SourceGraphic" in2="effect1_dropShadow_452_640" result="shape"/>
</filter>
<clipPath id="clip0_452_640">
<rect width="270" height="392" rx="25" fill="white"/>
</clipPath>
<clipPath id="clip1_452_640">
<rect y="101" width="270" height="296" rx="25" fill="white"/>
</clipPath>
<clipPath id="clip2_452_640">
<rect width="385" height="296" fill="white" transform="translate(-57.5 101)"/>
</clipPath>
</defs>
</svg>
