<svg width="272" height="291" viewBox="0 0 272 291" fill="none" xmlns="http://www.w3.org/2000/svg">
<rect x="1" y="0.875" width="270" height="290.125" rx="25" fill="#F6BE31" fill-opacity="0.2"/>
<g filter="url(#filter0_d_452_470)">
<path d="M30.5 40.875C30.5 35.3522 34.9772 30.875 40.5 30.875H231.5C237.023 30.875 241.5 35.3522 241.5 40.875V64.875C241.5 70.3978 237.023 74.875 231.5 74.875H40.5C34.9772 74.875 30.5 70.3978 30.5 64.875V40.875Z" fill="#F8CB4E"/>
</g>
<path d="M53.6217 58H51.4137L51.4273 56.1543H53.6217C54.0774 56.1543 54.4625 56.0449 54.777 55.8262C55.096 55.6074 55.3375 55.2816 55.5016 54.8486C55.6702 54.4111 55.7545 53.8734 55.7545 53.2354V52.8047C55.7545 52.3262 55.7066 51.9069 55.6109 51.5469C55.5198 51.1823 55.3831 50.8792 55.2008 50.6377C55.0185 50.3916 54.7906 50.207 54.5172 50.084C54.2483 49.9609 53.9384 49.8994 53.5875 49.8994H51.3727V48.0469H53.5875C54.262 48.0469 54.8795 48.1631 55.44 48.3955C56.0051 48.6234 56.4928 48.9515 56.9029 49.3799C57.3176 49.8037 57.6367 50.3073 57.86 50.8906C58.0878 51.4694 58.2018 52.112 58.2018 52.8184V53.2354C58.2018 53.9372 58.0878 54.5798 57.86 55.1631C57.6367 55.7464 57.3199 56.25 56.9098 56.6738C56.4996 57.0977 56.0143 57.4258 55.4537 57.6582C54.8977 57.8861 54.287 58 53.6217 58ZM52.7877 48.0469V58H50.3883V48.0469H52.7877ZM67.7023 56.1543V58H62.3977V56.1543H67.7023ZM63.2521 48.0469V58H60.8527V48.0469H63.2521ZM67.0188 51.998V53.7822H62.3977V51.998H67.0188ZM67.7229 48.0469V49.8994H62.3977V48.0469H67.7229ZM75.2137 55.3545C75.2137 55.1995 75.1909 55.0605 75.1453 54.9375C75.0997 54.8099 75.0154 54.6914 74.8924 54.582C74.7693 54.4727 74.5916 54.3633 74.3592 54.2539C74.1313 54.14 73.8305 54.0215 73.4568 53.8984C73.0193 53.7526 72.5978 53.5885 72.1922 53.4062C71.7866 53.2194 71.4243 53.0029 71.1053 52.7568C70.7863 52.5062 70.5333 52.2145 70.3465 51.8818C70.1596 51.5446 70.0662 51.1527 70.0662 50.7061C70.0662 50.2777 70.1619 49.8926 70.3533 49.5508C70.5447 49.2044 70.8113 48.9105 71.1531 48.6689C71.4995 48.4229 71.9051 48.236 72.3699 48.1084C72.8348 47.9762 73.3429 47.9102 73.8943 47.9102C74.6235 47.9102 75.2661 48.0378 75.8221 48.293C76.3826 48.5436 76.8201 48.9014 77.1346 49.3662C77.4536 49.8265 77.6131 50.3711 77.6131 51H75.2273C75.2273 50.7493 75.1749 50.5283 75.0701 50.3369C74.9699 50.1455 74.8172 49.9951 74.6121 49.8857C74.407 49.7764 74.1495 49.7217 73.8396 49.7217C73.5389 49.7217 73.2859 49.7673 73.0809 49.8584C72.8758 49.9495 72.7208 50.0726 72.616 50.2275C72.5112 50.3779 72.4588 50.5443 72.4588 50.7266C72.4588 50.877 72.4998 51.0137 72.5818 51.1367C72.6684 51.2552 72.7892 51.3669 72.9441 51.4717C73.1036 51.5765 73.2951 51.6768 73.5184 51.7725C73.7462 51.8682 74.0014 51.9616 74.284 52.0527C74.8126 52.2214 75.282 52.4105 75.6922 52.6201C76.1069 52.8252 76.4555 53.0599 76.7381 53.3242C77.0252 53.584 77.2417 53.8802 77.3875 54.2129C77.5379 54.5456 77.6131 54.9215 77.6131 55.3408C77.6131 55.7874 77.5265 56.1839 77.3533 56.5303C77.1801 56.8766 76.9318 57.1706 76.6082 57.4121C76.2846 57.6491 75.8973 57.8291 75.4461 57.9521C74.9949 58.0752 74.4913 58.1367 73.9354 58.1367C73.4249 58.1367 72.9214 58.0729 72.4246 57.9453C71.9324 57.8132 71.4858 57.6126 71.0848 57.3438C70.6837 57.0703 70.3624 56.7217 70.1209 56.2979C69.8839 55.8695 69.7654 55.3613 69.7654 54.7734H72.1717C72.1717 55.0651 72.2104 55.3112 72.2879 55.5117C72.3654 55.7122 72.4793 55.874 72.6297 55.9971C72.7801 56.1156 72.9646 56.2021 73.1834 56.2568C73.4021 56.307 73.6528 56.332 73.9354 56.332C74.2407 56.332 74.4868 56.2887 74.6736 56.2021C74.8605 56.111 74.9972 55.9925 75.0838 55.8467C75.1704 55.6963 75.2137 55.5322 75.2137 55.3545ZM85.0697 48.0469V58H82.6703V48.0469H85.0697ZM88.0639 48.0469V49.8994H79.7445V48.0469H88.0639ZM97.332 56.1543V58H92.0273V56.1543H97.332ZM92.8818 48.0469V58H90.4824V48.0469H92.8818ZM96.6484 51.998V53.7822H92.0273V51.998H96.6484ZM97.3525 48.0469V49.8994H92.0273V48.0469H97.3525ZM102.116 48.0469V58H99.7164V48.0469H102.116ZM108.056 48.0469L104.201 53.0918L101.945 55.5596L101.507 53.3584L102.95 51.1709L105.096 48.0469H108.056ZM105.219 58L102.649 53.5156L104.515 52.1416L108.056 58H105.219ZM117.508 48.0469V58H115.115V48.0469H117.508ZM115.163 46.3037C115.163 46.0075 115.268 45.766 115.477 45.5791C115.692 45.3923 115.965 45.2988 116.298 45.2988C116.635 45.2988 116.908 45.3923 117.118 45.5791C117.328 45.766 117.432 46.0075 117.432 46.3037C117.432 46.5954 117.328 46.8346 117.118 47.0215C116.908 47.2083 116.635 47.3018 116.298 47.3018C115.965 47.3018 115.692 47.2083 115.477 47.0215C115.268 46.8346 115.163 46.5954 115.163 46.3037ZM125.723 55.3545C125.723 55.1995 125.7 55.0605 125.655 54.9375C125.609 54.8099 125.525 54.6914 125.402 54.582C125.279 54.4727 125.101 54.3633 124.869 54.2539C124.641 54.14 124.34 54.0215 123.966 53.8984C123.529 53.7526 123.107 53.5885 122.702 53.4062C122.296 53.2194 121.934 53.0029 121.615 52.7568C121.296 52.5062 121.043 52.2145 120.856 51.8818C120.669 51.5446 120.576 51.1527 120.576 50.7061C120.576 50.2777 120.671 49.8926 120.863 49.5508C121.054 49.2044 121.321 48.9105 121.662 48.6689C122.009 48.4229 122.414 48.236 122.879 48.1084C123.344 47.9762 123.852 47.9102 124.404 47.9102C125.133 47.9102 125.775 48.0378 126.331 48.293C126.892 48.5436 127.329 48.9014 127.644 49.3662C127.963 49.8265 128.122 50.3711 128.122 51H125.737C125.737 50.7493 125.684 50.5283 125.579 50.3369C125.479 50.1455 125.327 49.9951 125.121 49.8857C124.916 49.7764 124.659 49.7217 124.349 49.7217C124.048 49.7217 123.795 49.7673 123.59 49.8584C123.385 49.9495 123.23 50.0726 123.125 50.2275C123.021 50.3779 122.968 50.5443 122.968 50.7266C122.968 50.877 123.009 51.0137 123.091 51.1367C123.178 51.2552 123.299 51.3669 123.454 51.4717C123.613 51.5765 123.804 51.6768 124.028 51.7725C124.256 51.8682 124.511 51.9616 124.793 52.0527C125.322 52.2214 125.791 52.4105 126.202 52.6201C126.616 52.8252 126.965 53.0599 127.247 53.3242C127.535 53.584 127.751 53.8802 127.897 54.2129C128.047 54.5456 128.122 54.9215 128.122 55.3408C128.122 55.7874 128.036 56.1839 127.863 56.5303C127.69 56.8766 127.441 57.1706 127.118 57.4121C126.794 57.6491 126.407 57.8291 125.955 57.9521C125.504 58.0752 125.001 58.1367 124.445 58.1367C123.934 58.1367 123.431 58.0729 122.934 57.9453C122.442 57.8132 121.995 57.6126 121.594 57.3438C121.193 57.0703 120.872 56.7217 120.63 56.2979C120.393 55.8695 120.275 55.3613 120.275 54.7734H122.681C122.681 55.0651 122.72 55.3112 122.797 55.5117C122.875 55.7122 122.989 55.874 123.139 55.9971C123.289 56.1156 123.474 56.2021 123.693 56.2568C123.912 56.307 124.162 56.332 124.445 56.332C124.75 56.332 124.996 56.2887 125.183 56.2021C125.37 56.111 125.507 55.9925 125.593 55.8467C125.68 55.6963 125.723 55.5322 125.723 55.3545ZM135.579 48.0469V58H133.18V48.0469H135.579ZM138.573 48.0469V49.8994H130.254V48.0469H138.573ZM147.841 56.1543V58H142.537V56.1543H147.841ZM143.391 48.0469V58H140.992V48.0469H143.391ZM147.158 51.998V53.7822H142.537V51.998H147.158ZM147.862 48.0469V49.8994H142.537V48.0469H147.862ZM150.226 48.0469H154.143C154.908 48.0469 155.574 48.1608 156.139 48.3887C156.704 48.6165 157.139 48.9538 157.445 49.4004C157.754 49.847 157.909 50.3984 157.909 51.0547C157.909 51.6243 157.821 52.1006 157.643 52.4834C157.465 52.8662 157.217 53.1829 156.898 53.4336C156.583 53.6797 156.216 53.8825 155.797 54.042L155.011 54.4863H151.723L151.709 52.6338H154.143C154.448 52.6338 154.701 52.5791 154.902 52.4697C155.102 52.3604 155.252 52.2054 155.353 52.0049C155.458 51.7998 155.51 51.556 155.51 51.2734C155.51 50.9863 155.458 50.7402 155.353 50.5352C155.248 50.3301 155.093 50.1729 154.888 50.0635C154.687 49.9541 154.439 49.8994 154.143 49.8994H152.625V58H150.226V48.0469ZM155.674 58L153.473 53.5977L156.016 53.584L158.244 57.8975V58H155.674ZM166.834 48.0469H168.789L171.011 54.9717L173.233 48.0469H175.188L171.804 58H170.218L166.834 48.0469ZM165.645 48.0469H167.668L168.044 55.6758V58H165.645V48.0469ZM174.354 48.0469H176.384V58H173.978V55.6758L174.354 48.0469ZM181.872 48.0469V58H179.479V48.0469H181.872ZM179.527 46.3037C179.527 46.0075 179.632 45.766 179.842 45.5791C180.056 45.3923 180.329 45.2988 180.662 45.2988C180.999 45.2988 181.273 45.3923 181.482 45.5791C181.692 45.766 181.797 46.0075 181.797 46.3037C181.797 46.5954 181.692 46.8346 181.482 47.0215C181.273 47.2083 180.999 47.3018 180.662 47.3018C180.329 47.3018 180.056 47.2083 179.842 47.0215C179.632 46.8346 179.527 46.5954 179.527 46.3037ZM190.087 55.3545C190.087 55.1995 190.065 55.0605 190.019 54.9375C189.974 54.8099 189.889 54.6914 189.766 54.582C189.643 54.4727 189.465 54.3633 189.233 54.2539C189.005 54.14 188.704 54.0215 188.331 53.8984C187.893 53.7526 187.472 53.5885 187.066 53.4062C186.66 53.2194 186.298 53.0029 185.979 52.7568C185.66 52.5062 185.407 52.2145 185.22 51.8818C185.033 51.5446 184.94 51.1527 184.94 50.7061C184.94 50.2777 185.036 49.8926 185.227 49.5508C185.419 49.2044 185.685 48.9105 186.027 48.6689C186.373 48.4229 186.779 48.236 187.244 48.1084C187.709 47.9762 188.217 47.9102 188.768 47.9102C189.497 47.9102 190.14 48.0378 190.696 48.293C191.256 48.5436 191.694 48.9014 192.008 49.3662C192.327 49.8265 192.487 50.3711 192.487 51H190.101C190.101 50.7493 190.049 50.5283 189.944 50.3369C189.844 50.1455 189.691 49.9951 189.486 49.8857C189.281 49.7764 189.023 49.7217 188.713 49.7217C188.413 49.7217 188.16 49.7673 187.955 49.8584C187.75 49.9495 187.595 50.0726 187.49 50.2275C187.385 50.3779 187.333 50.5443 187.333 50.7266C187.333 50.877 187.374 51.0137 187.456 51.1367C187.542 51.2552 187.663 51.3669 187.818 51.4717C187.977 51.5765 188.169 51.6768 188.392 51.7725C188.62 51.8682 188.875 51.9616 189.158 52.0527C189.686 52.2214 190.156 52.4105 190.566 52.6201C190.981 52.8252 191.329 53.0599 191.612 53.3242C191.899 53.584 192.115 53.8802 192.261 54.2129C192.412 54.5456 192.487 54.9215 192.487 55.3408C192.487 55.7874 192.4 56.1839 192.227 56.5303C192.054 56.8766 191.806 57.1706 191.482 57.4121C191.158 57.6491 190.771 57.8291 190.32 57.9521C189.869 58.0752 189.365 58.1367 188.809 58.1367C188.299 58.1367 187.795 58.0729 187.298 57.9453C186.806 57.8132 186.36 57.6126 185.959 57.3438C185.558 57.0703 185.236 56.7217 184.995 56.2979C184.758 55.8695 184.639 55.3613 184.639 54.7734H187.046C187.046 55.0651 187.084 55.3112 187.162 55.5117C187.239 55.7122 187.353 55.874 187.504 55.9971C187.654 56.1156 187.838 56.2021 188.057 56.2568C188.276 56.307 188.527 56.332 188.809 56.332C189.115 56.332 189.361 56.2887 189.547 56.2021C189.734 56.111 189.871 55.9925 189.958 55.8467C190.044 55.6963 190.087 55.5322 190.087 55.3545ZM197.674 48.0469V58H195.281V48.0469H197.674ZM195.329 46.3037C195.329 46.0075 195.434 45.766 195.644 45.5791C195.858 45.3923 196.131 45.2988 196.464 45.2988C196.801 45.2988 197.075 45.3923 197.284 45.5791C197.494 45.766 197.599 46.0075 197.599 46.3037C197.599 46.5954 197.494 46.8346 197.284 47.0215C197.075 47.2083 196.801 47.3018 196.464 47.3018C196.131 47.3018 195.858 47.2083 195.644 47.0215C195.434 46.8346 195.329 46.5954 195.329 46.3037ZM209.075 48.0469V58H206.682L203.162 51.8066V58H200.763V48.0469H203.162L206.682 54.2402V48.0469H209.075ZM215.547 54.8486H213.585C213.585 54.4476 213.613 54.0944 213.667 53.7891C213.727 53.4792 213.827 53.2012 213.968 52.9551C214.109 52.709 214.301 52.4811 214.542 52.2715C214.757 52.0938 214.941 51.9229 215.096 51.7588C215.251 51.5947 215.37 51.4284 215.452 51.2598C215.534 51.0911 215.575 50.9111 215.575 50.7197C215.575 50.4827 215.54 50.2891 215.472 50.1387C215.408 49.9883 215.31 49.8766 215.178 49.8037C215.051 49.7262 214.889 49.6875 214.693 49.6875C214.533 49.6875 214.383 49.7262 214.242 49.8037C214.105 49.8812 213.993 50.002 213.907 50.166C213.82 50.3255 213.772 50.5374 213.763 50.8018H211.446C211.459 50.1227 211.61 49.5713 211.897 49.1475C212.189 48.7191 212.576 48.4069 213.059 48.2109C213.547 48.0104 214.091 47.9102 214.693 47.9102C215.358 47.9102 215.93 48.0127 216.409 48.2178C216.887 48.4229 217.254 48.7282 217.509 49.1338C217.764 49.5348 217.892 50.0293 217.892 50.6172C217.892 51.0091 217.817 51.3509 217.666 51.6426C217.521 51.9297 217.322 52.1986 217.072 52.4492C216.826 52.6953 216.55 52.9596 216.245 53.2422C215.98 53.4746 215.8 53.7116 215.704 53.9531C215.609 54.1901 215.556 54.4886 215.547 54.8486ZM213.305 56.9268C213.305 56.5986 213.424 56.3252 213.661 56.1064C213.898 55.8831 214.205 55.7715 214.583 55.7715C214.962 55.7715 215.269 55.8831 215.506 56.1064C215.743 56.3252 215.862 56.5986 215.862 56.9268C215.862 57.2549 215.743 57.5306 215.506 57.7539C215.269 57.9727 214.962 58.082 214.583 58.082C214.205 58.082 213.898 57.9727 213.661 57.7539C213.424 57.5306 213.305 57.2549 213.305 56.9268Z" fill="#000C5C"/>
<path d="M223.622 253.854C217.238 255.955 209.463 256.525 203.288 256.086C203.288 256.086 89.7506 267.329 48.7105 255.802C18.3363 247.273 22.0034 216.906 31.2986 197.469C40.7002 177.811 16.0212 139.813 55.6924 117.778C78.5105 105.104 98.977 125.385 138.424 110.412C174.038 96.8944 219.977 108.986 231.212 137.337C238.94 156.84 229.197 177.864 238.94 188.053C254.74 204.58 247.474 246.003 223.622 253.854Z" fill="#DAE6FF"/>
<path d="M190.584 238.198C190.584 243.505 156.949 247.809 115.457 247.809C73.9651 247.809 40.3307 243.505 40.3307 238.198C40.3307 232.89 73.966 228.588 115.457 228.588C156.948 228.588 190.584 232.891 190.584 238.198Z" fill="#C1CFEA"/>
<path d="M109.504 190.635C101.086 179.394 89.9788 193.173 89.9788 193.173C89.9788 193.173 78.872 179.394 70.454 190.635C62.036 201.875 89.9788 223.51 89.9788 223.51C89.9788 223.51 117.922 201.875 109.504 190.635Z" fill="#FF6760"/>
<path d="M153.466 142.812C153.466 142.812 156.003 150.32 155.247 152.93C154.49 155.541 151.335 162.813 151.505 165.719C151.558 166.624 152.446 173.622 153.955 174.775C154.975 175.555 157.758 173.355 157.372 169.787C156.7 163.586 158.951 160.313 160.258 157.908C162.487 153.805 163.47 151.311 163.236 153.425C163.236 153.425 161.587 159.804 161.503 162.675C161.48 163.451 162.324 169.549 163.826 170.315C164.639 170.728 167.512 169.653 167.192 164.114C166.982 160.473 169.229 158.427 170.978 156.183C172.493 154.241 179.203 149.728 179.203 149.728L171.976 142.235L153.466 142.813V142.812Z" fill="#E96F5F"/>
<path d="M224.827 156.795C222.16 155.754 195.689 162.606 193.854 163.903C189.307 167.116 176.001 168.853 165.338 168.501C159.523 168.311 152.391 169.789 149.676 170.512C147.54 171.082 139.279 174.227 137.433 173.588C136.345 173.21 135.998 169.104 136.752 167.473C138.367 163.976 143.206 161.663 151.558 158.9C159.514 156.268 164.433 149.669 159.736 148.658C147.353 145.996 138.037 170.254 132.26 168.781C130.707 168.385 132.143 162.665 133.978 157.849C134.731 155.869 140.862 144.274 144.594 139.987C146.93 137.304 165.409 123.008 173.981 121.144C177.927 120.286 203.911 128.721 204.675 129.089L204.677 129.091C209.467 128.9 219.561 123.644 220.207 123.792C221.611 137.001 226.46 146.983 224.827 156.795Z" fill="#FFA089"/>
<path d="M74.2398 176.401C75.3602 176.611 76.4717 176.954 77.5698 177.429C78.853 175.527 80.2864 173.946 81.8601 172.697C79.6568 173.443 77.5635 174.388 75.6678 175.503C75.1805 175.79 74.7039 176.09 74.2389 176.401H74.2398ZM67.9929 182.113C68.7941 181.693 69.6203 181.32 70.4707 180.996C72.3065 180.294 74.2469 179.817 76.2669 179.565C76.3698 179.378 76.4744 179.193 76.5799 179.011C76.782 178.663 76.9886 178.324 77.1996 177.994C75.9629 177.47 74.711 177.122 73.4493 176.95C71.3873 178.431 69.5613 180.159 67.992 182.114L67.9929 182.113ZM68.4963 177.174C65.1923 179.838 61.4617 183.872 59.6715 189.391C60.3082 188.524 60.9806 187.71 61.687 186.952C63.1553 185.379 64.7792 184.038 66.5425 182.942C66.5506 182.931 66.5586 182.92 66.5667 182.908C68.22 180.602 70.198 178.574 72.4702 176.85C71.6001 176.794 70.7256 176.821 69.8502 176.933C69.3986 176.99 68.947 177.071 68.4954 177.173L68.4963 177.174ZM86.7809 170.726C87.7896 170.537 88.8054 170.389 89.8212 170.285C91.0749 170.156 92.3232 170.094 93.559 170.095C91.2475 169.774 88.9324 169.991 86.7809 170.726ZM78.4157 179.383C78.633 179.262 78.853 179.146 79.0756 179.03C79.106 179.014 79.1364 178.998 79.1668 178.982C78.9138 178.834 78.6589 178.693 78.4041 178.561C78.2047 178.457 78.0053 178.358 77.805 178.264C77.5519 178.659 77.3069 179.064 77.0717 179.476C77.5161 179.434 77.9641 179.403 78.4157 179.382V179.383ZM76.6783 180.188C76.613 180.309 76.5486 180.432 76.4851 180.554C76.6953 180.415 76.9081 180.277 77.1245 180.141C76.9751 180.155 76.8267 180.17 76.6783 180.187V180.188ZM63.5362 179.202C63.1741 179.775 62.8235 180.366 62.4855 180.975C60.766 184.067 59.3684 187.577 58.3186 191.405C58.3919 191.286 58.4661 191.167 58.5403 191.049C58.9034 189.478 59.4354 187.945 60.1365 186.454C61.6664 183.201 63.9449 180.24 66.9324 177.618C65.7896 178.007 64.6531 178.537 63.5362 179.201V179.202ZM79.8715 178.634C82.9627 177.15 86.3338 176.196 89.527 175.902C91.1822 174.594 92.9777 173.253 94.9423 171.876C95.4582 171.514 95.9742 171.187 96.4884 170.895C94.3307 170.704 92.1175 170.72 89.8847 170.949C87.8727 171.156 85.8617 171.536 83.9114 172.071C81.6277 173.452 79.7373 175.404 78.1734 177.706C78.3477 177.79 78.5221 177.877 78.6965 177.968C79.0899 178.173 79.4807 178.395 79.8706 178.635L79.8715 178.634ZM97.5614 170.336C98.8973 169.703 100.225 169.305 101.538 169.146C98.3063 168.207 94.3307 167.949 90.0027 168.445C83.1335 169.23 76.0487 171.851 70.5637 175.633C70.2651 175.839 69.9575 176.058 69.6427 176.29C69.6856 176.284 69.7285 176.278 69.7715 176.273C70.9473 176.124 72.1205 176.118 73.2848 176.257C73.9492 175.788 74.6359 175.345 75.3468 174.927C77.8461 173.455 80.6861 172.274 83.6646 171.45C84.2173 171.119 84.7842 170.825 85.3663 170.568C88.0221 169.393 90.9783 169.015 93.9175 169.476C94.9637 169.639 96.0019 169.912 96.9811 170.272C97.1751 170.291 97.3691 170.313 97.5623 170.336H97.5614ZM80.999 179.378C82.2786 179.43 83.5824 179.564 84.9031 179.778C86.0423 178.764 87.254 177.732 88.5532 176.681C85.9511 177.033 83.1827 177.83 80.5305 179.056C80.687 179.161 80.8425 179.268 80.9981 179.378H80.999ZM81.9657 180.101C82.4146 180.455 82.8599 180.833 83.3025 181.235C83.6164 180.942 83.9365 180.649 84.262 180.354C83.4894 180.242 82.723 180.157 81.9657 180.102V180.101ZM70.6889 187.381C71.5071 187.137 72.3262 187.06 73.1426 187.148C73.629 185.553 74.1691 184.058 74.7629 182.666C73.5298 183.699 72.463 184.821 71.593 186.006C71.2621 186.458 70.9608 186.915 70.688 187.38L70.6889 187.381ZM85.7347 179.923C86.3794 180.043 87.0286 180.182 87.6814 180.34C89.3893 178.7 91.1777 177.428 93.0376 176.532C92.0102 176.446 90.9139 176.451 89.7765 176.546C88.3279 177.695 86.9875 178.819 85.7347 179.923ZM83.7871 181.684C84.253 182.126 84.7144 182.595 85.1714 183.089C85.8089 182.301 86.4599 181.569 87.1225 180.894C86.4438 180.737 85.7696 180.601 85.0998 180.487C84.6518 180.889 84.2137 181.289 83.7863 181.685L83.7871 181.684ZM73.8007 187.255C74.4589 187.4 75.1143 187.653 75.7644 188.013C75.9486 188.116 76.1328 188.227 76.317 188.346C78.2878 186.184 80.3892 183.976 82.8205 181.686C82.149 181.08 81.4712 180.531 80.7853 180.037C80.0458 180.011 79.3153 180.013 78.5936 180.043C77.6306 180.58 76.7239 181.165 75.8788 181.788C75.0651 183.529 74.3793 185.373 73.7998 187.255L73.8007 187.255ZM94.2511 176.006C94.6445 175.853 95.0407 175.717 95.4395 175.598C97.4997 174.98 99.6029 174.801 101.731 175.059C101.22 173.91 100.632 173.08 99.9784 172.595C99.2336 172.043 98.3581 171.555 97.4067 171.154C96.7101 171.512 96.0109 171.936 95.3098 172.427C93.6582 173.585 92.1282 174.716 90.7002 175.824C91.97 175.772 93.161 175.834 94.2511 176.006ZM73.6076 187.898C73.1408 189.491 72.7474 191.106 72.4183 192.704C72.6579 192.435 72.8985 192.164 73.1399 191.892C74.0368 190.883 74.9382 189.868 75.8663 188.843C75.7295 188.756 75.5936 188.675 75.4568 188.6C74.8443 188.26 74.2273 188.026 73.6085 187.898H73.6076ZM98.8338 170.513C101.394 170.92 103.857 171.622 106.16 172.612C106.966 172.958 107.752 173.339 108.517 173.752C107.938 172.881 107.192 172.098 106.282 171.413C105.413 170.76 104.4 170.202 103.267 169.742C101.815 169.681 100.333 169.939 98.8338 170.513ZM70.2141 188.255C69.1196 190.447 68.6573 192.775 68.8361 195.204C68.8665 195.614 68.9264 196.034 69.0159 196.462C69.8779 195.535 70.7202 194.604 71.5617 193.663C71.9533 191.585 72.4156 189.63 72.9468 187.801C72.0821 187.728 71.2147 187.861 70.35 188.2C70.3035 188.219 70.2579 188.237 70.2123 188.255H70.2141ZM76.8598 188.726C77.8604 189.473 78.8512 190.48 79.8294 191.741C80.8756 189.489 82.1069 187.34 83.5198 185.3C83.9266 184.711 84.3398 184.149 84.7583 183.61C84.2781 183.089 83.7934 182.597 83.3052 182.134C80.8971 184.4 78.8127 186.585 76.8598 188.726ZM69.0972 188.8C64.7944 191.256 63.6194 196.512 64.3517 201.17C65.8245 199.79 67.1792 198.416 68.482 197.033C68.33 196.424 68.2317 195.831 68.1887 195.254C68.0206 192.97 68.3899 190.774 69.2904 188.692C69.2251 188.727 69.1598 188.763 69.0963 188.8H69.0972ZM95.1623 182.353C96.0922 181.822 97.0615 181.435 98.0657 181.194C98.7122 181.04 99.3722 180.948 100.041 180.918C99.855 180.034 99.4616 179.225 98.7578 178.6C97.6714 177.634 96.1352 177.001 94.319 176.693C92.274 177.513 90.3085 178.796 88.437 180.533C89.2588 180.75 90.085 180.997 90.9166 181.273C92.1586 181.687 93.3908 182.161 94.6052 182.691C94.7894 182.573 94.9754 182.461 95.1623 182.353ZM66.9887 183.447C64.8784 186.429 63.3207 189.878 62.3577 193.699C61.543 196.93 61.1594 200.384 61.2041 203.986C61.3356 203.864 61.4697 203.746 61.6056 203.63C62.363 202.983 63.0864 202.34 63.7839 201.699C62.811 196.367 64.2346 190.141 69.7482 187.732C70.1247 187.008 70.5673 186.299 71.0752 185.606C72.2037 184.067 73.6505 182.633 75.3513 181.359C75.5239 180.996 75.7 180.639 75.8806 180.292C74.0779 180.55 72.3441 180.994 70.6979 181.622C69.4022 182.117 68.1646 182.727 66.9896 183.448L66.9887 183.447ZM85.6167 183.58C86.3419 184.395 87.0563 185.275 87.7583 186.219C88.2886 186.931 88.8009 187.658 89.2954 188.396C89.5681 187.971 89.8632 187.534 90.1789 187.088C91.3413 185.449 92.6048 184.129 93.9587 183.135C92.8892 182.68 91.8063 182.269 90.7163 181.907C89.7613 181.589 88.8126 181.312 87.871 181.075C87.1028 181.833 86.3517 182.668 85.6167 183.581V183.58ZM59.1412 191.325C58.4169 194.539 58.357 198.204 59.354 202.338C59.5856 203.297 59.8485 204.205 60.1445 205.06C60.2822 204.906 60.4226 204.754 60.5666 204.606C60.4682 200.724 60.8536 197.003 61.729 193.532C62.5723 190.186 63.8635 187.119 65.5741 184.39C64.3553 185.271 63.2143 186.28 62.1556 187.415C61.0655 188.584 60.0596 189.89 59.1412 191.325ZM100.702 180.909C101.572 180.924 102.454 181.043 103.341 181.263C103.334 181.223 103.328 181.182 103.322 181.142C102.995 178.987 102.556 177.185 102.022 175.77C99.8532 175.454 97.7125 175.609 95.621 176.237C95.5879 176.247 95.5548 176.256 95.5217 176.267C97.0052 176.649 98.2481 177.265 99.1826 178.095C99.9748 178.8 100.483 179.748 100.702 180.909ZM80.2774 192.327C81.0348 191.944 81.8575 191.603 82.7365 191.311C84.5025 190.727 86.3705 190.395 88.1669 190.337C88.3905 189.905 88.6409 189.461 88.9154 189.006C88.3798 188.197 87.8218 187.403 87.2423 186.624C86.5726 185.724 85.893 184.883 85.2027 184.104C84.8119 184.609 84.4265 185.137 84.0465 185.686C82.5934 187.785 81.3353 190.001 80.2765 192.327H80.2774ZM69.2037 197.225C69.5005 198.282 69.9646 199.385 70.5816 200.516C70.6514 199.784 70.7372 199.029 70.8382 198.25C70.9876 197.101 71.1548 195.98 71.3417 194.893C70.6371 195.675 69.928 196.452 69.2037 197.225ZM60.4003 205.767C60.4798 205.976 60.5612 206.183 60.6453 206.386C60.6274 206.102 60.6122 205.819 60.5997 205.537C60.5326 205.612 60.4664 205.69 60.4003 205.767ZM102.476 175.167C103.81 175.392 105.153 175.788 106.5 176.355C107.734 176.874 108.907 177.519 109.993 178.236C109.909 177.018 109.626 175.892 109.146 174.868C108.108 174.255 107.028 173.707 105.91 173.227C103.756 172.302 101.459 171.632 99.0717 171.227C99.5304 171.482 99.9614 171.759 100.358 172.053C100.999 172.529 101.767 173.438 102.476 175.167ZM88.9082 190.329C89.2033 190.333 89.4957 190.343 89.7845 190.361C89.6298 190.111 89.4725 189.862 89.3133 189.615C89.1702 189.856 89.0361 190.095 88.9082 190.329ZM95.3366 183.018C96.8389 183.707 98.3107 184.479 99.737 185.328C100.043 184.177 100.265 182.834 100.141 181.581C99.4875 181.605 98.8428 181.692 98.2133 181.843C97.218 182.082 96.2586 182.474 95.3366 183.018ZM57.7203 193.786C56.9281 197.242 56.405 200.926 56.1707 204.77C56.05 206.755 56.236 208.888 56.7108 211.107C57.3975 209.044 58.3919 207.2 59.6581 205.633C59.3049 204.656 58.9937 203.611 58.7254 202.498C57.9269 199.185 57.7499 195.98 58.1934 192.912C58.0333 193.199 57.8759 193.491 57.7212 193.786H57.7203ZM109.654 174.4C111.732 175.648 113.647 177.156 115.388 178.912C113.825 176.306 112.045 174.137 110.166 172.6C108.658 171.366 107.088 170.525 105.479 170.088C105.898 170.333 106.293 170.596 106.664 170.875C107.985 171.868 108.984 173.05 109.654 174.399V174.4ZM71.0752 202.578C71.0377 203.227 71.0144 203.857 71.0046 204.466C71.3274 204.269 71.6564 204.075 71.9936 203.882C71.6681 203.446 71.3622 203.011 71.0752 202.578ZM72.5641 203.562C73.5092 203.041 74.5089 202.536 75.5614 202.048C74.948 200.929 74.7495 199.602 74.9999 198.15C75.3405 196.173 76.9224 194.285 79.3358 192.844C79.3984 192.7 79.4619 192.556 79.5254 192.412C78.498 191.049 77.4598 189.982 76.4145 189.216C75.4622 190.266 74.5376 191.308 73.6192 192.342C73.1337 192.889 72.6517 193.431 72.1697 193.97C71.8907 195.46 71.6654 196.927 71.4821 198.339C71.3399 199.434 71.2299 200.486 71.1503 201.494C71.5697 202.176 72.0418 202.867 72.5649 203.562H72.5641ZM76.1525 201.778C76.2911 201.716 76.4288 201.655 76.5692 201.593C77.1325 198.928 77.9078 196.363 78.8923 193.91C77.0807 195.164 75.9101 196.69 75.6392 198.267C75.4103 199.598 75.5873 200.783 76.1534 201.778H76.1525ZM64.4921 201.941C64.552 202.234 64.62 202.524 64.6951 202.81C65.1333 204.479 65.8406 206.108 66.7893 207.507C67.8489 206.593 69.0347 205.716 70.3455 204.877C70.3527 203.858 70.3992 202.781 70.485 201.645C69.6865 200.316 69.082 199.016 68.6913 197.77C67.3714 199.162 65.9935 200.547 64.4921 201.941ZM62.2852 180.008C61.1326 180.806 60.005 181.75 58.915 182.83C55.8309 185.888 53.1098 190.016 51.2517 194.453C49.5295 198.567 49.5563 204.323 51.3259 210.661C51.8186 212.424 52.4383 214.195 53.1644 215.936C52.8273 214.535 52.635 213.061 52.5885 211.524C52.4669 207.517 53.3343 202.961 55.1656 197.981C55.7433 196.412 56.3916 194.933 57.1087 193.547C58.2139 188.758 59.8342 184.4 61.9222 180.644C62.0411 180.429 62.1618 180.217 62.2843 180.007L62.2852 180.008ZM104.025 181.453C104.763 181.68 105.501 181.978 106.233 182.346C107.219 182.84 108.183 183.452 109.107 184.166C109.204 183.798 109.307 183.426 109.414 183.047C109.816 181.631 110.017 180.293 110.02 179.045C108.94 178.301 107.681 177.573 106.255 176.973C105.083 176.479 103.916 176.12 102.754 175.895C103.213 177.189 103.634 178.867 103.964 181.039C103.984 181.176 104.005 181.314 104.025 181.453ZM74.6413 203.814C75.159 203.518 75.6911 203.25 76.2365 203.011C76.1239 202.883 76.0174 202.749 75.9182 202.613C74.8836 203.089 73.9009 203.583 72.9718 204.092C73.1068 204.263 73.2436 204.434 73.3849 204.606C73.7918 204.323 74.2112 204.059 74.6413 203.814ZM77.3024 201.277C78.5927 200.731 79.9564 200.207 81.3907 199.706C82.0667 199.471 82.7365 199.257 83.4009 199.065C82.309 196.751 81.2011 194.787 80.0807 193.178C80.002 193.221 79.9242 193.265 79.8464 193.309C78.7662 195.844 77.9176 198.504 77.3033 201.277H77.3024ZM71.0001 205.245C71.0019 205.702 71.0117 206.148 71.0305 206.582C71.601 206.006 72.2126 205.474 72.8573 204.987C72.7009 204.795 72.548 204.604 72.3986 204.412C71.9167 204.685 71.4517 204.963 71.0001 205.245ZM61.434 208.082C62.025 209.214 62.693 210.215 63.437 211.081C64.2417 209.992 65.1958 208.947 66.2966 207.945C65.3192 206.523 64.5538 204.828 64.0692 202.984C64.0227 202.807 63.9788 202.63 63.9386 202.451C63.3216 203.012 62.684 203.577 62.0205 204.143C61.746 204.377 61.4813 204.622 61.2247 204.877C61.2578 205.934 61.3275 207.002 61.434 208.082ZM100.318 185.677C101.558 186.439 102.762 187.257 103.918 188.125C103.85 185.942 103.693 183.864 103.443 181.977C102.553 181.736 101.668 181.602 100.796 181.578C100.901 182.758 100.746 184.124 100.324 185.655C100.322 185.663 100.32 185.67 100.318 185.677ZM90.5983 190.435C92.908 190.707 94.8949 191.487 96.407 192.711C97.8377 190.324 98.9242 188.019 99.5501 185.985C97.9745 185.041 96.339 184.189 94.6696 183.444C93.2469 184.417 91.9217 185.767 90.7056 187.482C90.3372 188 90 188.505 89.6924 188.994C90.0018 189.47 90.3041 189.95 90.5983 190.435ZM84.0357 198.887C85.1553 198.585 86.2569 198.346 87.3398 198.171C87.1511 197.801 87.0009 197.412 86.8918 197.001C86.4447 195.307 86.7523 193.33 87.8334 191.019C86.2077 191.104 84.5302 191.419 82.9377 191.946C82.1248 192.216 81.363 192.527 80.661 192.876C81.8038 194.529 82.9305 196.535 84.0357 198.887ZM61.6217 209.717C61.7657 210.821 61.9472 211.935 62.1663 213.056C62.4328 212.573 62.7261 212.098 63.0462 211.63C62.5374 211.05 62.0626 210.413 61.6226 209.717H61.6217ZM67.1756 208.043C67.6191 208.63 68.1091 209.167 68.6421 209.639C69.074 208.925 69.5622 208.243 70.1041 207.597C70.2043 207.478 70.3062 207.359 70.409 207.244C70.3768 206.734 70.3572 206.206 70.35 205.661C69.1858 206.424 68.127 207.219 67.1756 208.043ZM57.0112 212.367C57.3814 213.795 57.867 215.253 58.4634 216.726C59.0089 215.48 59.8038 214.69 60.8348 214.371C61.0736 214.297 61.3231 214.249 61.5806 214.224C61.6164 214.144 61.6539 214.064 61.6915 213.984C61.2873 212.06 60.9913 210.154 60.8018 208.279C60.4897 207.671 60.1991 207.028 59.9299 206.349C58.619 208.054 57.63 210.086 57.0104 212.367H57.0112ZM91.0355 191.167C92.0674 192.928 92.9983 194.746 93.821 196.601C94.6302 195.492 95.3804 194.379 96.0609 193.28C94.7474 192.198 93.0332 191.477 91.0355 191.167ZM77.0118 202.696C77.7459 202.418 78.4989 202.191 79.267 202.021C81.118 201.611 82.9681 201.561 84.6429 201.863C84.3255 201.104 84.0062 200.374 83.6852 199.676C82.9967 199.873 82.3019 200.093 81.5999 200.338C80.0226 200.888 78.5337 201.466 77.1343 202.071C77.0923 202.279 77.0511 202.487 77.0109 202.696H77.0118ZM73.8124 205.115C74.4007 205.806 75.0365 206.498 75.7179 207.189C75.7859 206.475 75.869 205.765 75.9674 205.06C76.0273 204.629 76.0917 204.201 76.1623 203.774C75.3441 204.155 74.5581 204.603 73.8132 205.115H73.8124ZM88.0283 198.067C89.6996 197.834 91.3252 197.754 92.9035 197.826C93.0627 197.619 93.2201 197.411 93.3757 197.205C92.46 195.101 91.403 193.047 90.2155 191.064C89.6781 191.013 89.1264 190.991 88.5658 190.996C87.4355 193.288 87.093 195.214 87.5186 196.827C87.634 197.265 87.8066 197.677 88.0274 198.067H88.0283ZM69.1527 210.06C69.7142 210.492 70.3187 210.852 70.9634 211.127C70.7453 210.221 70.5861 209.235 70.4833 208.168C69.9905 208.768 69.547 209.4 69.1527 210.06ZM63.8867 211.576C64.2444 211.952 64.6182 212.299 65.0081 212.617C65.583 213.085 66.1965 213.492 66.8465 213.838C67.1953 212.565 67.6844 211.354 68.3095 210.217C68.246 210.163 68.1825 210.107 68.1199 210.05C67.6084 209.585 67.1282 209.06 66.6865 208.48C65.6045 209.469 64.6701 210.502 63.8867 211.576ZM88.4352 198.685C88.9816 199.417 89.7112 200.068 90.567 200.668C91.1983 199.947 91.809 199.215 92.3956 198.476C91.108 198.443 89.7872 198.512 88.4352 198.685ZM56.5472 196.277C56.2771 196.908 56.0205 197.555 55.7764 198.218C53.9754 203.115 53.1224 207.585 53.2413 211.504C53.345 214.909 54.1856 217.983 55.7415 220.646C55.4866 218.124 55.6136 215.625 56.1278 213.254C56.1931 212.952 56.2646 212.654 56.3415 212.36C55.6637 209.682 55.382 207.104 55.5278 204.729C55.7057 201.811 56.0482 198.985 56.548 196.277H56.5472ZM104.586 188.635C105.714 189.514 106.794 190.44 107.814 191.407C107.951 189.463 108.323 187.286 108.93 184.862C107.975 184.105 106.975 183.459 105.952 182.945C105.345 182.641 104.736 182.387 104.126 182.184C104.376 184.164 104.53 186.345 104.586 188.635ZM85.4191 202.032C85.8045 202.131 86.1782 202.249 86.5386 202.388C87.1315 202.616 87.6841 202.895 88.192 203.221C88.6784 202.728 89.1649 202.218 89.6486 201.692C89.8087 201.518 89.9679 201.342 90.1252 201.166C89.1336 200.463 88.3011 199.686 87.7037 198.788C86.5967 198.958 85.4691 199.195 84.3219 199.5C84.6894 200.306 85.056 201.15 85.4191 202.032ZM62.4086 214.225C63.6042 214.329 64.9651 214.855 66.4468 215.679C66.5112 215.281 66.589 214.888 66.6793 214.5C65.9443 214.12 65.2522 213.666 64.6048 213.139C64.2221 212.827 63.8546 212.489 63.5022 212.125C63.0757 212.759 62.6992 213.408 62.3755 214.071C62.3863 214.122 62.3979 214.174 62.4086 214.225ZM77.4419 203.246C77.5403 203.323 77.6422 203.397 77.7477 203.47C78.9281 204.281 81.3809 205.353 85.91 205.07C85.5916 204.217 85.2715 203.395 84.9505 202.604C83.2533 202.226 81.3326 202.246 79.4056 202.673C78.7385 202.821 78.0831 203.013 77.4419 203.246ZM85.7356 202.813C85.9976 203.468 86.2587 204.144 86.518 204.84C86.9151 204.473 87.313 204.093 87.71 203.701C87.2763 203.434 86.8095 203.204 86.3106 203.012C86.1228 202.941 85.9314 202.873 85.7356 202.813ZM71.711 211.4C72.7974 211.732 73.9876 211.825 75.269 211.61C75.3396 211.598 75.4103 211.585 75.4818 211.572C75.497 210.389 75.5507 209.211 75.6428 208.042C74.7897 207.196 74.001 206.346 73.2812 205.496C72.4916 206.087 71.7548 206.75 71.0824 207.479C71.1521 208.442 71.2666 209.338 71.4257 210.165C71.508 210.593 71.6028 211.005 71.7101 211.4H71.711ZM58.8283 217.594C59.2396 218.545 59.6965 219.5 60.1982 220.455C60.2169 219.164 60.3868 217.906 60.7088 216.684C60.8643 216.094 61.0539 215.514 61.2784 214.943C61.1916 214.961 61.1067 214.983 61.0235 215.009C60.0193 215.321 59.3004 216.167 58.8283 217.594ZM109.666 184.61C111.418 186.062 113.012 187.872 114.323 189.914C115.634 188.418 116.381 187.36 116.444 186.952C116.557 186.23 115.783 184.478 113.82 182.336C113.162 181.618 112.098 180.567 110.667 179.505C110.618 180.68 110.41 181.926 110.039 183.234C109.907 183.7 109.782 184.159 109.666 184.61ZM76.1328 211.423C76.8544 211.232 77.619 210.948 78.4148 210.58C77.6565 209.937 76.934 209.287 76.2499 208.632C76.1865 209.558 76.1471 210.488 76.1319 211.423H76.1328ZM79.0631 210.265C81.0759 209.24 83.2703 207.703 85.5022 205.753C82.0694 205.905 79.2768 205.324 77.3865 204.024C77.196 203.894 77.0163 203.756 76.8473 203.611C76.7605 204.122 76.6809 204.636 76.6085 205.155C76.4878 206.023 76.3903 206.901 76.3152 207.784C77.1683 208.617 78.0857 209.446 79.0631 210.265ZM94.3941 197.94C95.9957 198.114 97.5453 198.452 99.0386 198.953C99.0279 198.874 99.0163 198.795 99.0037 198.717C98.6908 196.715 97.8923 195.059 96.6296 193.796C96.6091 193.775 96.5876 193.753 96.5662 193.733C95.8311 194.915 95.0147 196.112 94.1286 197.306C94.2189 197.517 94.3074 197.728 94.3941 197.94ZM87.3845 204.936C87.9023 204.875 88.4441 204.798 89.0093 204.703C88.7777 204.48 88.53 204.271 88.268 204.077C87.9729 204.371 87.6787 204.656 87.3845 204.936ZM58.6002 218.684C58.5573 219.548 58.873 220.351 59.5418 221.08C59.6947 221.246 59.8646 221.408 60.0524 221.563C59.5239 220.603 59.0402 219.643 58.6002 218.684ZM67.4394 214.133C69.0087 214.855 70.7766 215.238 72.7259 215.28C72.074 214.339 71.5563 213.22 71.1727 211.916C70.3527 211.623 69.5658 211.195 68.8236 210.635C68.2299 211.732 67.7658 212.902 67.4385 214.133H67.4394ZM108.434 192.008C109.103 192.669 109.745 193.347 110.356 194.04C111.743 192.696 112.926 191.469 113.87 190.423C112.635 188.469 111.135 186.729 109.486 185.321C108.88 187.808 108.528 190.046 108.434 192.008ZM89.7917 204.562C90.2316 204.477 90.685 204.383 91.1527 204.276C92.1577 204.047 93.187 203.773 94.2377 203.455C92.9527 202.851 91.7366 202.228 90.6716 201.538C90.4883 201.743 90.3041 201.946 90.1172 202.149C89.6576 202.65 89.1971 203.134 88.7365 203.604C89.1175 203.894 89.4698 204.213 89.7908 204.562H89.7917ZM117.273 180.994C117.337 181.07 117.399 181.146 117.461 181.223C119.056 183.186 120.466 185.394 121.685 187.833C122.099 187.449 122.509 187.057 122.915 186.657C121.451 183.804 119.798 181.038 118.148 178.353C110.872 166.513 97.9924 162.69 79.8679 166.993C76.08 167.891 72.6427 169.613 69.6499 172.109C67.6898 173.744 65.9067 175.722 64.3249 178.011C65.6027 177.357 66.9002 176.871 68.2021 176.561C68.8415 176.053 69.5086 175.559 70.2034 175.08C75.7715 171.241 82.9627 168.581 89.9321 167.783C95.114 167.19 99.8175 167.663 103.398 169.083C103.41 169.083 103.422 169.083 103.434 169.084C105.91 169.223 108.311 170.23 110.57 172.079C113.066 174.12 115.387 177.234 117.272 180.995L117.273 180.994ZM95.1801 203.16C95.291 203.124 95.4037 203.088 95.5155 203.051C95.0639 201.541 94.539 200.043 93.9444 198.566C93.7011 198.544 93.4552 198.524 93.2084 198.51C92.5432 199.359 91.8448 200.203 91.116 201.036C92.3124 201.8 93.7092 202.486 95.1801 203.16ZM108.409 192.914C108.408 193.128 108.41 193.34 108.415 193.548C108.435 194.306 108.499 195.022 108.61 195.693C109.05 195.286 109.475 194.887 109.882 194.496C109.41 193.959 108.918 193.431 108.409 192.914ZM118.522 183.735C118.925 184.712 119.299 185.721 119.639 186.755C119.895 187.528 120.125 188.298 120.33 189.055C120.617 188.804 120.902 188.55 121.185 188.292C120.382 186.668 119.494 185.148 118.522 183.735ZM73.5414 215.277C73.6416 215.275 73.7426 215.271 73.8445 215.267C74.3989 215.242 74.9677 215.193 75.5507 215.118C75.5015 214.162 75.4765 213.204 75.4765 212.25C75.4416 212.256 75.4067 212.263 75.3727 212.268C74.1897 212.467 73.0353 212.424 71.9345 212.148C72.3387 213.375 72.8761 214.421 73.5423 215.277H73.5414ZM96.1316 202.843C97.1143 202.505 98.1122 202.131 99.1254 201.722C99.1674 201.01 99.1638 200.33 99.1146 199.681C97.6884 199.181 96.2085 198.836 94.6776 198.645C95.2231 200.029 95.7095 201.43 96.1316 202.843ZM99.7844 201.452C100.358 201.213 100.937 200.963 101.519 200.702C100.949 200.416 100.367 200.157 99.7737 199.926C99.8014 200.408 99.8058 200.916 99.7844 201.452ZM114.681 190.492C114.892 190.843 115.095 191.2 115.289 191.562C115.475 191.908 115.649 192.255 115.814 192.604C117.167 191.651 118.49 190.626 119.78 189.528C119.56 188.685 119.308 187.828 119.025 186.969C118.373 184.99 117.6 183.11 116.734 181.371C114.785 179.026 112.565 177.049 110.102 175.458C110.454 176.462 110.644 177.544 110.672 178.701C114.699 181.565 117.351 185.339 117.083 187.059C116.975 187.746 115.85 189.171 114.681 190.493V190.492ZM102.287 200.352C102.685 200.169 103.086 199.98 103.486 199.787C103.857 196.177 104.01 192.457 103.94 188.97C102.719 188.032 101.443 187.151 100.123 186.335C99.4625 188.432 98.3626 190.758 96.9167 193.158C96.973 193.211 97.0276 193.264 97.0812 193.319C98.2508 194.489 99.3963 196.337 99.7128 199.192C100.594 199.52 101.452 199.908 102.287 200.352ZM104.178 199.449C104.314 199.382 104.45 199.314 104.587 199.246C105.814 198.211 106.968 197.194 108.037 196.219C107.805 195.041 107.715 193.728 107.766 192.275C106.768 191.303 105.71 190.372 104.601 189.488C104.647 192.706 104.507 196.11 104.178 199.449ZM110.783 194.535C111.028 194.822 111.266 195.111 111.497 195.4C112.448 194.82 113.403 194.216 114.362 193.589C114.667 193.389 114.969 193.187 115.27 192.98C115.099 192.614 114.916 192.248 114.721 191.884C114.561 191.586 114.396 191.291 114.224 191.002C113.583 191.708 112.967 192.349 112.539 192.787C111.978 193.362 111.391 193.946 110.783 194.535ZM107.118 197.925C107.509 197.714 107.9 197.498 108.294 197.277C108.263 197.171 108.233 197.061 108.204 196.952C107.846 197.277 107.484 197.602 107.118 197.925ZM108.883 196.944C109.564 196.558 110.246 196.156 110.931 195.743C110.729 195.492 110.522 195.241 110.31 194.99C109.805 195.474 109.286 195.96 108.758 196.446C108.796 196.615 108.838 196.782 108.883 196.944ZM99.7397 202.189C99.7128 202.52 99.6771 202.86 99.6306 203.21C100.232 202.755 100.837 202.288 101.444 201.809C101.736 201.578 102.024 201.35 102.31 201.12C102.294 201.111 102.279 201.102 102.263 201.094C101.414 201.482 100.572 201.847 99.7397 202.189ZM76.1945 215.026C78.0276 214.735 79.9895 214.201 82.0703 213.426C81.4765 213.002 80.889 212.564 80.3087 212.115C79.8554 211.765 79.4136 211.412 78.9817 211.055C77.9838 211.535 77.027 211.891 76.1239 212.112C76.1212 213.081 76.1444 214.053 76.1936 215.026H76.1945ZM96.3811 203.704C96.5018 203.759 96.6234 203.813 96.7441 203.868C97.1581 204.054 97.5739 204.239 97.9888 204.429C98.2893 204.21 98.5915 203.987 98.8938 203.763C98.9662 203.319 99.0243 202.885 99.0663 202.461C98.1373 202.831 97.2216 203.171 96.3185 203.482C96.3399 203.556 96.3605 203.63 96.3811 203.704ZM74.1003 215.922C74.2156 216.04 74.3346 216.154 74.4562 216.264C74.8425 216.611 75.2565 216.909 75.6938 217.161C75.6526 216.702 75.6177 216.244 75.5891 215.785C75.083 215.849 74.5867 215.895 74.1012 215.922H74.1003ZM96.6055 204.532C96.6708 204.783 96.7343 205.033 96.796 205.283C96.9864 205.149 97.1778 205.013 97.3683 204.876C97.1143 204.761 96.8595 204.646 96.6055 204.532ZM82.8125 213.141C84.3666 212.528 85.9842 211.786 87.6608 210.914C87.7306 210.877 87.7994 210.841 87.8692 210.804C87.3684 209.213 86.8265 207.592 86.2453 205.986C83.9562 208.03 81.7117 209.639 79.6282 210.732C79.9788 211.016 80.3355 211.3 80.7004 211.583C81.3952 212.12 82.1007 212.641 82.8134 213.141H82.8125ZM90.2799 205.144C90.7324 205.74 91.1062 206.404 91.395 207.129C91.5765 207.586 91.7455 208.047 91.9011 208.51C93.3202 207.643 94.7626 206.7 96.2237 205.684C96.2103 205.626 96.196 205.567 96.1816 205.51C96.0743 205.069 95.9608 204.629 95.841 204.19C95.6058 204.084 95.3715 203.978 95.139 203.872C93.8245 204.291 92.5405 204.644 91.2931 204.927C90.9515 205.005 90.6144 205.077 90.2799 205.144ZM88.4531 210.494C89.4 209.984 90.3595 209.438 91.3306 208.856C91.167 208.361 90.9881 207.87 90.7941 207.381C90.4847 206.601 90.0671 205.899 89.5503 205.283C88.6069 205.453 87.6948 205.579 86.8194 205.661C87.4042 207.271 87.9496 208.897 88.4531 210.494ZM61.2649 222.374C62.3577 222.972 63.7472 223.453 65.347 223.786C64.2954 222.34 63.5165 220.789 63.0167 219.141C62.6018 217.776 62.2396 216.416 61.9293 215.066C61.6924 215.653 61.493 216.251 61.3338 216.858C60.9252 218.41 60.7731 220.028 60.876 221.698C60.9931 221.906 61.112 222.113 61.2337 222.319C61.2444 222.338 61.2551 222.356 61.2658 222.374H61.2649ZM98.6774 204.743C98.6881 204.748 98.6979 204.752 98.7078 204.758C98.7104 204.743 98.7131 204.729 98.7167 204.714C98.7033 204.724 98.6908 204.734 98.6774 204.743ZM56.5561 221.916C57.8107 223.694 59.3728 225.221 61.1532 226.536C60.724 225.188 60.4387 223.864 60.2974 222.568C59.8235 222.254 59.4113 221.91 59.0697 221.538C58.0369 220.412 57.7087 219.075 58.1218 217.672C58.1254 217.658 58.1299 217.644 58.1344 217.631C57.5683 216.299 57.0899 214.977 56.7019 213.674C56.1662 216.311 56.1206 219.111 56.557 221.916H56.5561ZM66.3055 223.963C66.5881 224.009 66.8761 224.05 67.1685 224.088C66.6006 222.786 66.2796 221.254 66.2152 219.508C66.1759 218.442 66.2197 217.4 66.3431 216.389C64.9437 215.588 63.6632 215.056 62.5589 214.912C62.8656 216.248 63.2241 217.592 63.6346 218.943C64.18 220.737 65.0725 222.414 66.3047 223.963H66.3055ZM76.3778 217.511C76.8553 217.727 77.3579 217.897 77.8801 218.025C79.2974 217.015 80.8917 216.004 82.6605 214.994C82.9716 214.816 83.2882 214.649 83.6101 214.489C83.3141 214.292 83.0199 214.092 82.7266 213.888C80.4214 214.776 78.2521 215.379 76.233 215.694C76.2714 216.3 76.3197 216.906 76.3778 217.511ZM76.4565 218.268C76.4842 218.518 76.5137 218.769 76.5441 219.018C76.7552 218.854 76.9698 218.692 77.1906 218.528C76.9412 218.451 76.6961 218.365 76.4565 218.268ZM84.3103 214.16C85.6328 213.569 87.0277 213.118 88.4701 212.766C88.3395 212.33 88.2063 211.891 88.0695 211.448C88.031 211.468 87.9926 211.488 87.9541 211.508C86.4089 212.311 84.9121 213.008 83.467 213.595C83.7478 213.787 84.0286 213.974 84.3112 214.16H84.3103ZM67.0486 216.026C69.1831 217.298 71.5482 219.132 74.0261 221.181C74.6118 220.617 75.2538 220.054 75.9504 219.489C75.8833 218.979 75.8234 218.468 75.7707 217.957C75.1501 217.642 74.5671 217.249 74.0296 216.766C73.7498 216.514 73.4869 216.243 73.2392 215.95C71.035 215.969 69.0418 215.581 67.2784 214.789C67.1872 215.196 67.1112 215.609 67.0486 216.026ZM96.9596 205.976C97.176 206.916 97.3629 207.854 97.5221 208.789C97.7858 208.12 98.0183 207.433 98.2186 206.729C98.3456 206.285 98.4592 205.848 98.5602 205.42C98.3948 205.343 98.2285 205.267 98.0622 205.191C97.6937 205.457 97.3262 205.719 96.9596 205.976ZM89.105 212.618C90.1109 212.394 91.1375 212.215 92.1765 212.066C92.0075 211.21 91.7947 210.355 91.5363 209.505C90.5643 210.085 89.603 210.63 88.6543 211.138C88.8081 211.635 88.9583 212.129 89.1041 212.618H89.105ZM67.9106 224.17C69.0203 224.279 70.1721 224.323 71.3453 224.305C71.9417 223.422 72.6785 222.535 73.5539 221.647C71.2415 219.739 68.9873 217.993 66.9565 216.752C66.8617 217.64 66.8304 218.551 66.8644 219.483C66.9315 221.317 67.2811 222.881 67.9106 224.17ZM99.3122 205.04C100.394 205.551 101.46 206.087 102.478 206.678C102.792 205.079 103.056 203.403 103.272 201.687C103.156 201.614 103.04 201.544 102.924 201.474C102.563 201.765 102.201 202.053 101.84 202.339C101.051 202.96 100.266 203.562 99.4866 204.145C99.4356 204.436 99.3775 204.735 99.3122 205.04ZM66.9485 224.725C67.4725 225.312 68.0475 225.878 68.6734 226.426C68.2272 225.94 67.84 225.395 67.5127 224.792C67.3223 224.771 67.1345 224.748 66.9476 224.725H66.9485ZM62.0581 227.173C63.014 227.816 64.0244 228.405 65.0769 228.944C63.6194 227.185 62.2602 225.281 61.0477 223.283C61.2435 224.553 61.5797 225.85 62.0581 227.173ZM57.6917 224.344C58.4205 225.42 59.185 226.448 59.9782 227.412C60.8769 228.504 61.8077 229.509 62.7583 230.418C62.3818 229.676 62.0295 228.902 61.7138 228.103C61.6495 227.941 61.5878 227.78 61.5278 227.618C60.0757 226.622 58.7952 225.528 57.6917 224.344ZM92.8212 211.978C93.9229 211.834 95.0371 211.721 96.153 211.624C96.4749 211.067 96.7718 210.495 97.0428 209.909C96.8702 208.737 96.6511 207.558 96.3855 206.376C94.9405 207.376 93.5143 208.303 92.1113 209.158C92.4001 210.093 92.637 211.036 92.8212 211.978ZM68.2943 224.866C68.761 225.621 69.3405 226.264 70.0317 226.793C70.2615 226.187 70.5593 225.577 70.9232 224.968C70.0236 224.969 69.1437 224.935 68.2934 224.866H68.2943ZM96.9408 211.558C97.0454 211.549 97.1492 211.54 97.2529 211.532C97.2359 211.38 97.218 211.227 97.1992 211.073C97.1152 211.236 97.0293 211.397 96.9408 211.558ZM74.5322 221.601C75.2136 222.168 75.903 222.75 76.5978 223.34C76.3885 222.317 76.2079 221.285 76.0568 220.25C75.5113 220.701 75.0034 221.151 74.5322 221.601ZM72.1527 224.283C73.4958 224.23 74.8612 224.097 76.2213 223.885C75.4988 223.272 74.7763 222.662 74.0583 222.065C73.3214 222.807 72.6857 223.547 72.1536 224.283H72.1527ZM78.7725 218.206C81.5973 218.651 84.9183 218.087 88.234 217.265C86.899 216.549 85.5684 215.764 84.2575 214.914C83.8211 215.118 83.3937 215.339 82.977 215.577C81.439 216.456 80.0378 217.331 78.7725 218.206ZM89.1908 217.022C89.3419 216.982 89.493 216.943 89.6433 216.902C89.3419 215.784 89.0137 214.611 88.6605 213.406C87.3881 213.715 86.1559 214.101 84.9818 214.594C86.3714 215.479 87.7797 216.29 89.1917 217.022H89.1908ZM92.9402 212.635C93.102 213.595 93.2102 214.556 93.2639 215.508C94.1912 214.516 95.0111 213.457 95.7238 212.332C94.7903 212.417 93.8612 212.516 92.9402 212.635ZM109.083 197.591C109.325 198.289 109.632 198.92 110.003 199.483C111.278 201.419 113.191 202.409 115.239 202.967C114.358 200.721 113.053 198.476 111.345 196.267C110.588 196.724 109.833 197.165 109.083 197.591ZM90.2701 216.733C90.9828 216.539 91.6901 216.341 92.3876 216.145C92.4725 216.122 92.5566 216.098 92.6415 216.074C92.6031 214.966 92.4877 213.845 92.2964 212.722C91.2796 212.868 90.2764 213.042 89.2936 213.259C89.6451 214.457 89.9705 215.621 90.2701 216.733ZM97.8994 211.482C98.3528 211.447 98.8052 211.414 99.2568 211.38C99.9739 211.326 100.684 211.273 101.385 211.217C101.738 210.01 102.057 208.719 102.338 207.364C101.322 206.765 100.251 206.22 99.1611 205.702C99.0663 206.097 98.9599 206.502 98.8419 206.916C98.5361 207.988 98.1596 209.019 97.7125 210.011C97.7832 210.503 97.8449 210.993 97.8994 211.482ZM90.5249 217.689C90.6063 217.728 90.6895 217.768 90.7717 217.807C90.7896 217.792 90.8084 217.777 90.8263 217.763C91.1241 217.524 91.4147 217.279 91.6963 217.03C91.2814 217.146 90.863 217.263 90.4427 217.377C90.4704 217.481 90.4981 217.585 90.5249 217.689ZM116.007 203.157C116.227 203.205 116.448 203.249 116.669 203.291C117.438 200.49 117.025 197.035 115.546 193.593C115.268 193.782 114.989 193.968 114.71 194.151C113.772 194.764 112.839 195.355 111.909 195.924C113.738 198.304 115.113 200.728 116.007 203.157ZM77.3346 223.693C77.9874 223.571 78.6375 223.431 79.2795 223.272C83.3374 222.27 87.0322 220.584 90.0313 218.374C90.0126 218.302 89.9938 218.23 89.975 218.158C89.6889 218.018 89.4027 217.875 89.1166 217.729C85.2375 218.73 81.2914 219.46 78.0097 218.742C77.5322 219.087 77.0771 219.431 76.6425 219.774C76.8249 221.09 77.0556 222.398 77.3337 223.693H77.3346ZM93.9792 215.702C95.2025 215.366 96.3864 215.057 97.4961 214.822C97.4639 213.954 97.4058 213.078 97.3209 212.196C97.0597 212.217 96.7978 212.238 96.5367 212.26C95.8043 213.481 94.9512 214.628 93.9792 215.702ZM66.5479 229.654C67.5091 230.091 68.4999 230.491 69.5095 230.858C69.4048 230.041 69.429 229.218 69.5819 228.389C69.6025 228.28 69.6248 228.169 69.649 228.06C68.2084 226.985 66.9762 225.822 65.9568 224.575C64.442 224.316 63.0685 223.93 61.9025 223.426C63.2921 225.653 64.865 227.755 66.5479 229.654ZM116.264 203.893C116.299 204.003 116.334 204.111 116.368 204.221C116.403 204.126 116.438 204.031 116.471 203.933C116.401 203.92 116.332 203.906 116.264 203.893ZM102.081 211.159C103.625 211.026 105.116 210.866 106.522 210.631C105.496 209.508 104.269 208.562 102.93 207.723C102.672 208.942 102.387 210.089 102.081 211.159ZM91.437 218.117C91.8224 218.293 92.2078 218.463 92.5923 218.626C92.6308 218.105 92.6522 217.579 92.6549 217.048C92.2651 217.415 91.8582 217.771 91.437 218.117ZM98.1399 214.694C98.8964 214.552 99.6127 214.452 100.276 214.41C100.596 213.634 100.897 212.794 101.177 211.902C100.557 211.951 99.931 211.998 99.3033 212.045C98.8589 212.078 98.4136 212.111 97.9683 212.145C98.0505 213.001 98.1078 213.851 98.1399 214.694ZM117.312 203.4C118.124 203.527 118.93 203.614 119.702 203.692C119.742 202.517 119.956 201.332 120.409 200.139C121.162 198.158 120.964 194.404 119.959 190.241C118.7 191.3 117.41 192.293 116.092 193.216C117.657 196.807 118.103 200.436 117.312 203.4ZM107.28 210.496C108.365 210.289 109.394 210.028 110.351 209.692C110.551 209.621 110.747 209.549 110.938 209.472C110.838 209.316 110.737 209.162 110.635 209.007C108.75 206.16 106.46 203.82 103.879 202.082C103.653 203.831 103.383 205.485 103.072 207.032C104.656 208.004 106.102 209.122 107.28 210.496ZM111.547 209.212C113.609 208.27 115.051 206.946 115.96 205.152C115.846 204.725 115.715 204.296 115.567 203.863C115.552 203.819 115.537 203.775 115.521 203.731C113.187 203.168 110.952 202.112 109.466 199.857C109.08 199.272 108.759 198.625 108.504 197.919C107.302 198.591 106.111 199.223 104.932 199.814C104.644 200.057 104.355 200.299 104.064 200.54C104.035 200.806 104.004 201.072 103.972 201.337C103.972 201.34 103.972 201.345 103.97 201.349C106.73 203.152 109.173 205.615 111.172 208.632C111.299 208.824 111.424 209.017 111.547 209.212ZM70.5825 227.177C71.1718 227.549 71.8308 227.849 72.5578 228.08C74.0905 228.565 75.92 228.713 77.9427 228.539C77.5269 227.224 77.1576 225.858 76.8392 224.458C75.1036 224.752 73.3679 224.917 71.6931 224.957C71.2174 225.702 70.8463 226.441 70.5825 227.177ZM67.6612 230.864C68.4972 231.738 69.3557 232.561 70.2275 233.323C69.9691 232.76 69.775 232.192 69.6445 231.62C68.9631 231.378 68.3023 231.126 67.6612 230.864ZM98.1605 215.367C98.1829 216.322 98.1721 217.268 98.1292 218.201C98.275 218.02 98.4127 217.838 98.5423 217.658C99.0556 216.941 99.5349 216.081 99.9775 215.101C99.4088 215.152 98.8008 215.245 98.1605 215.367ZM78.6053 228.471C79.4208 228.374 80.2649 228.227 81.1305 228.031C79.9752 227.077 78.81 226.087 77.6601 225.109C77.9418 226.262 78.2592 227.386 78.6062 228.471H78.6053ZM93.2218 218.888C94.2967 219.327 95.3644 219.713 96.4141 220.044C96.7781 219.701 97.1188 219.356 97.4335 219.012C97.5113 217.86 97.539 216.687 97.5149 215.499C96.2013 215.781 94.7742 216.169 93.3014 216.581C93.3113 217.358 93.2844 218.128 93.2218 218.888ZM90.7726 218.643C91.1884 220.262 91.5399 221.724 91.8233 222.952C92.1622 221.786 92.3983 220.569 92.5306 219.319C91.9744 219.086 91.4156 218.839 90.8567 218.579C90.829 218.6 90.8004 218.622 90.7726 218.643ZM97.1349 220.262C97.1975 220.28 97.2601 220.298 97.3226 220.317C97.3316 220.228 97.3405 220.139 97.3486 220.05C97.2788 220.121 97.2073 220.192 97.1349 220.262ZM93.1539 219.576C93.0153 220.796 92.7801 221.986 92.4484 223.128C93.6994 222.31 94.8466 221.443 95.849 220.559C94.9593 220.269 94.0597 219.941 93.1539 219.576ZM81.9317 227.837C83.5028 227.431 85.1365 226.869 86.797 226.154C88.3878 225.469 89.9249 224.677 91.353 223.816C91.0606 222.521 90.677 220.898 90.2084 219.062C87.178 221.25 83.4795 222.92 79.4306 223.92C78.8628 224.06 78.2932 224.186 77.7218 224.297C77.7361 224.309 77.7513 224.322 77.7656 224.334C79.1436 225.507 80.5484 226.702 81.9308 227.837H81.9317ZM64.2087 231.718C65.5634 232.849 66.9449 233.782 68.3175 234.484C69.488 235.084 70.6505 235.52 71.7977 235.794C71.7673 235.757 71.7378 235.72 71.7074 235.684C71.5169 235.446 71.3381 235.207 71.1718 234.967C69.4469 233.603 67.7613 232 66.1714 230.219C65.0036 229.684 63.9127 229.112 62.904 228.504C62.7574 228.416 62.6125 228.326 62.4694 228.237C62.98 229.469 63.5774 230.636 64.2087 231.718ZM70.7453 228.034C70.8186 228.085 70.8919 228.135 70.9661 228.185C73.3116 229.773 76.114 231.096 79.2276 232.094C78.844 231.161 78.4845 230.189 78.1519 229.187C75.9826 229.39 74.0144 229.239 72.3664 228.717C71.787 228.534 71.246 228.305 70.7453 228.034ZM100.988 214.388C101.199 214.39 101.404 214.398 101.602 214.414C103.163 214.544 104.373 215.471 105.101 217.096C105.33 217.607 105.508 218.178 105.634 218.799C106.591 218.149 107.522 217.585 108.419 217.114C108.771 214.856 108.294 212.834 107.024 211.218C105.396 211.51 103.662 211.694 101.877 211.845C101.598 212.756 101.301 213.606 100.988 214.388ZM70.2052 231.104C73.3349 232.183 76.6336 232.956 79.8491 233.527C79.7543 233.319 79.6604 233.109 79.5674 232.897C76.1829 231.863 73.1372 230.454 70.6084 228.742C70.4788 228.655 70.3509 228.566 70.2248 228.477C70.2221 228.489 70.2204 228.501 70.2177 228.513C70.0576 229.382 70.0531 230.246 70.2043 231.104H70.2052ZM97.9566 220.491C99.4652 220.893 100.928 221.171 102.323 221.316C103.244 220.543 104.154 219.84 105.045 219.207C104.93 218.526 104.751 217.909 104.512 217.375C103.878 215.962 102.882 215.19 101.55 215.079C101.284 215.057 101.003 215.05 100.709 215.058C100.198 216.234 99.6485 217.24 99.0645 218.053C98.7686 218.465 98.4341 218.879 98.0639 219.293C98.0344 219.695 97.9987 220.095 97.9566 220.491ZM109.122 216.759C110.881 215.909 112.486 215.434 113.855 215.374C113.163 213.512 112.301 211.715 111.29 210.041C110.198 210.487 109.005 210.822 107.74 211.08C108.89 212.685 109.359 214.621 109.122 216.759ZM82.5666 228.354C83.4295 229.053 84.2808 229.723 85.1097 230.345C85.58 230.698 86.0709 230.995 86.577 231.239C88.2841 229.748 89.6558 227.971 90.6609 225.945C90.8692 225.525 91.0624 225.093 91.2376 224.652C89.9106 225.43 88.5005 226.144 87.0474 226.77C85.5255 227.424 84.0223 227.953 82.5666 228.354ZM73.8991 236.114C75.0955 236.191 76.2723 236.085 77.4267 235.795C78.4944 235.527 79.5138 235.207 80.4813 234.834C80.3865 234.649 80.2935 234.461 80.2005 234.271C77.8327 233.865 75.4157 233.351 73.0335 232.687C72.1214 232.433 71.238 232.162 70.3831 231.874C70.6371 232.76 71.0582 233.637 71.6457 234.5C72.3915 235.086 73.1435 235.625 73.8982 236.114H73.8991ZM81.0893 234.591C81.1886 234.55 81.287 234.508 81.3853 234.466C81.2557 234.446 81.1251 234.425 80.9946 234.403C81.0259 234.466 81.0581 234.529 81.0893 234.591ZM82.4852 233.955C82.6122 233.891 82.7383 233.827 82.8625 233.761C82.022 233.575 81.1975 233.369 80.391 233.14C80.4706 233.315 80.551 233.49 80.6333 233.662C81.2557 233.766 81.8727 233.864 82.4852 233.955ZM80.0413 232.346C81.2378 232.701 82.4771 233.01 83.7505 233.269C84.4721 232.845 85.1517 232.384 85.7902 231.888C85.868 231.827 85.9458 231.766 86.0218 231.704C85.5729 231.468 85.141 231.194 84.7261 230.883C83.7657 230.164 82.7749 229.379 81.7734 228.561C80.7585 228.81 79.7686 228.995 78.8145 229.114C79.1928 230.241 79.6041 231.322 80.0405 232.346H80.0413ZM114.549 215.38C114.746 215.394 114.937 215.417 115.122 215.45C115.504 214.666 115.832 213.788 116.091 212.803C116.648 210.688 116.678 208.438 116.182 206.087C115.15 207.779 113.675 208.949 111.893 209.778C112.947 211.536 113.84 213.424 114.549 215.38ZM103.257 221.393C103.893 221.432 104.547 221.443 105.206 221.416C105.211 220.903 105.19 220.41 105.143 219.942C104.521 220.391 103.891 220.875 103.257 221.393ZM97.8788 221.159C97.7778 221.971 97.6508 222.772 97.4979 223.558C97.2949 224.599 97.0472 225.603 96.7575 226.568C97.3906 225.961 98.0318 225.33 98.68 224.677C99.6672 223.681 100.654 222.757 101.631 221.906C100.422 221.75 99.1656 221.498 97.8788 221.159ZM105.86 221.377C106.227 221.348 106.594 221.307 106.959 221.251C107.554 220.139 107.993 219.025 108.252 217.951C107.437 218.401 106.602 218.922 105.752 219.511C105.83 220.098 105.867 220.722 105.86 221.377ZM92.1041 224.197C92.2087 224.669 92.2999 225.089 92.3759 225.448C92.6728 226.837 93.2701 228.014 94.1599 228.967C94.6919 228.496 95.2293 228.007 95.7739 227.499C96.2174 226.219 96.5823 224.858 96.8612 223.427C97.0177 222.627 97.1456 221.813 97.2466 220.986C97.024 220.922 96.7995 220.856 96.576 220.788C95.3089 221.943 93.7995 223.072 92.1345 224.111C92.1247 224.139 92.1139 224.169 92.1041 224.197ZM120.351 204.427C120.427 207.243 121.468 210.04 122.485 212.774C122.499 212.811 122.513 212.849 122.527 212.887C124.335 210.166 125.046 207.906 124.698 206C124.494 204.883 122.684 204.66 120.351 204.427ZM107.769 221.105C110.27 220.574 112.657 219.318 114.346 216.8C114.264 216.545 114.18 216.29 114.092 216.037C112.77 216.049 111.137 216.509 109.307 217.401C109.205 217.451 109.103 217.502 109.001 217.554C108.974 217.694 108.945 217.834 108.912 217.977C108.68 218.996 108.293 220.05 107.769 221.105ZM105.841 222.05C105.822 222.43 105.79 222.818 105.744 223.215C106.031 222.807 106.299 222.396 106.545 221.983C106.314 222.01 106.079 222.033 105.841 222.05ZM87.2432 231.528C88.226 231.906 89.2596 232.103 90.3211 232.142C91.4039 231.315 92.5181 230.403 93.6645 229.403C92.7068 228.368 92.063 227.093 91.7428 225.59C91.7223 225.495 91.7008 225.396 91.6785 225.292C91.5408 225.616 91.3941 225.935 91.2385 226.248C90.2424 228.255 88.902 230.026 87.2432 231.528ZM77.1075 237.871C77.1531 237.875 77.1978 237.878 77.2434 237.88C78.5999 237.954 80.112 237.695 81.7609 237.111C81.456 236.622 81.1546 236.104 80.8595 235.557C80.8363 235.515 80.813 235.47 80.7898 235.427C79.774 235.822 78.7027 236.161 77.5796 236.443C76.7364 236.655 75.8815 236.774 75.0177 236.8C75.7215 237.208 76.4181 237.564 77.1066 237.871H77.1075ZM94.6302 229.426C94.7214 229.507 94.8162 229.587 94.9128 229.664C95.0317 229.401 95.1471 229.134 95.2579 228.863C95.0505 229.051 94.8403 229.238 94.6302 229.426ZM121.987 188.45C123.275 191.139 124.336 194.096 125.162 197.304C126.472 202.39 127.062 207.127 126.935 211.499C128.019 207.609 128.2 203.629 127.496 199.503C126.77 195.253 125.185 191.182 123.226 187.273C122.817 187.673 122.403 188.066 121.987 188.45ZM84.7144 233.454C85.7508 233.642 86.7988 233.795 87.8531 233.914C88.3923 233.552 88.9404 233.167 89.4975 232.758C88.5067 232.648 87.5634 232.401 86.679 232.018C86.5162 232.154 86.3499 232.289 86.1818 232.419C85.7141 232.783 85.225 233.128 84.7144 233.454ZM83.6047 234.114C84.7368 234.27 85.8447 234.404 86.9168 234.522C86.9392 234.508 86.9616 234.494 86.9839 234.48C85.9449 234.346 84.9129 234.177 83.8918 233.977C83.881 233.974 83.8703 233.972 83.8596 233.971C83.7737 234.019 83.6897 234.067 83.6038 234.114H83.6047ZM82.3833 236.879C83.5225 236.429 84.7243 235.832 85.9851 235.091C84.8763 234.962 83.738 234.816 82.5791 234.647C82.1946 234.834 81.8002 235.013 81.397 235.182C81.7171 235.779 82.0461 236.345 82.3824 236.879H82.3833ZM91.4013 232.13C92.2078 232.082 93.0242 231.949 93.8415 231.745C94.1169 231.273 94.3781 230.784 94.624 230.278C94.4532 230.145 94.2886 230.007 94.1304 229.864C93.2397 230.641 92.3276 231.401 91.4013 232.13ZM115.765 215.616C115.979 215.69 116.182 215.781 116.374 215.888C117.071 216.276 117.789 216.985 118.132 218.277C119.618 216.683 120.885 215.194 121.935 213.739C121.983 213.673 122.03 213.607 122.076 213.542C122.011 213.367 121.944 213.189 121.879 213.012C120.829 210.19 119.755 207.304 119.696 204.361C118.866 204.279 117.996 204.185 117.118 204.045C116.981 204.461 116.824 204.852 116.649 205.223C117.336 207.938 117.36 210.54 116.717 212.977C116.467 213.929 116.148 214.809 115.765 215.616ZM94.733 231.492C95.1167 231.371 95.4994 231.234 95.8794 231.084C95.7435 231.012 95.6103 230.937 95.4797 230.859C95.3724 230.795 95.266 230.729 95.1632 230.661C95.0237 230.943 94.8806 231.22 94.733 231.492ZM96.6878 230.742C99.4625 229.488 102.099 227.497 104.172 225.184C104.435 224.891 104.688 224.593 104.931 224.293C105.063 223.533 105.148 222.795 105.184 222.086C104.335 222.117 103.447 222.09 102.522 222.005C101.4 222.958 100.267 224.011 99.1343 225.153C98.2481 226.046 97.3092 226.963 96.331 227.877C96.0645 228.632 95.7703 229.359 95.4493 230.058C95.5655 230.135 95.6836 230.21 95.8052 230.282C96.0851 230.45 96.3793 230.602 96.6878 230.742ZM115.059 216.902C115.429 218.101 115.73 219.318 115.957 220.54C116.526 219.962 117.072 219.4 117.591 218.852C117.392 217.733 116.88 216.928 116.065 216.474C115.878 216.37 115.676 216.285 115.46 216.218C115.333 216.453 115.199 216.681 115.059 216.902ZM78.7251 238.505C79.5978 238.799 80.4545 239.007 81.2914 239.129C81.9701 239.229 82.6301 239.269 83.2721 239.252C82.8858 238.775 82.504 238.25 82.1275 237.682C80.9624 238.106 79.8223 238.392 78.7251 238.505ZM88.8591 234.016C89.9535 234.117 91.0516 234.181 92.1515 234.208C92.5736 233.685 92.9742 233.13 93.3515 232.545C92.3697 232.748 91.4182 232.84 90.5026 232.823C89.958 233.234 89.409 233.634 88.8591 234.016ZM87.9505 234.632C89.1971 234.762 90.3872 234.87 91.5023 234.967C91.5354 234.93 91.5676 234.894 91.5998 234.858C90.3971 234.815 89.1935 234.73 87.9997 234.6C87.9836 234.611 87.9675 234.622 87.9505 234.632ZM84.0796 239.199C85.445 239.056 86.7192 238.637 87.8871 237.946C88.9753 237.302 89.9875 236.511 90.9148 235.584C89.6924 235.477 88.3976 235.356 87.051 235.209C85.6077 236.108 84.1636 236.872 82.7517 237.442C83.1854 238.087 83.6289 238.675 84.0796 239.199ZM65.2218 233.344C66.1598 234.762 67.1103 235.981 67.9196 236.936C71.3077 240.943 77.6672 241.166 84.2414 240.344C84.1001 240.2 83.9597 240.049 83.8193 239.893C82.977 239.956 82.1043 239.922 81.2029 239.79C79.8285 239.59 78.4076 239.167 76.9537 238.528C75.2744 238.385 73.8141 237.75 72.5971 236.635C71.094 236.387 69.5685 235.868 68.0305 235.082C67.0942 234.602 66.1553 234.02 65.2227 233.344H65.2218ZM122.809 213.644C123.374 215.18 123.89 216.673 124.174 218.12C124.948 216.735 125.601 215.343 126.134 213.939C126.611 208.966 126.08 203.469 124.537 197.475C123.738 194.375 122.719 191.515 121.486 188.911C121.165 189.2 120.841 189.486 120.515 189.767C121.633 194.218 121.844 198.198 121.014 200.382C120.586 201.508 120.388 202.634 120.354 203.757C122.988 204.02 125.044 204.268 125.337 205.877C125.772 208.263 124.718 210.88 122.809 213.644ZM97.5373 231.077C98.8607 231.533 100.388 231.763 102.046 231.748C102.125 231.748 102.206 231.746 102.285 231.745C103.343 229.79 104.155 227.699 104.653 225.634C104.653 225.634 104.652 225.635 104.652 225.636C102.614 227.908 100.113 229.808 97.5373 231.077ZM116.095 221.337C116.168 221.793 116.23 222.248 116.281 222.703C116.36 223.41 116.411 224.101 116.435 224.771C116.937 223.948 117.281 223.09 117.453 222.215C117.636 221.283 117.712 220.445 117.684 219.711C117.167 220.25 116.636 220.792 116.095 221.337ZM92.975 234.221C95.7524 234.243 98.5191 234.032 101.19 233.588C101.44 233.205 101.68 232.813 101.91 232.416C99.9677 232.416 98.1927 232.092 96.6958 231.468C96.1262 231.716 95.5557 231.932 94.9879 232.114C94.742 232.192 94.4988 232.264 94.2564 232.329C93.8567 232.995 93.4293 233.627 92.975 234.221ZM103.042 231.712C104.777 231.6 106.553 231.238 108.247 230.661C108.484 230.268 108.722 229.863 108.964 229.45C110.269 227.231 111.748 224.715 113.892 222.602C114.412 222.09 114.913 221.591 115.399 221.103C115.199 219.926 114.928 218.752 114.59 217.593C113.713 218.781 112.637 219.742 111.365 220.468C111.362 220.47 111.36 220.471 111.356 220.473C110.179 221.144 108.847 221.608 107.37 221.863C106.857 222.783 106.243 223.696 105.54 224.582C105.51 224.748 105.477 224.917 105.442 225.085C104.981 227.31 104.153 229.583 103.042 231.712ZM92.316 235.037C92.6227 235.062 92.9223 235.088 93.2156 235.113C95.9518 235.343 98.1122 235.525 99.3587 235.816C99.4142 235.829 99.4678 235.841 99.5224 235.853C99.9579 235.327 100.342 234.818 100.677 234.345C97.9942 234.753 95.2231 234.932 92.4484 234.88C92.4046 234.933 92.3607 234.985 92.316 235.037ZM109.222 230.302C110.144 229.935 111.033 229.504 111.866 229.014C113.508 228.051 114.836 226.92 115.798 225.689C115.802 224.76 115.749 223.785 115.636 222.779C115.604 222.489 115.566 222.199 115.525 221.909C115.134 222.299 114.739 222.691 114.341 223.083C112.258 225.135 110.804 227.61 109.52 229.795C109.42 229.965 109.321 230.133 109.222 230.302ZM102.063 233.434C102.865 233.284 103.658 233.113 104.439 232.92C105.439 232.674 106.411 232.395 107.352 232.085C107.474 231.902 107.596 231.714 107.717 231.523C106.053 232.026 104.331 232.327 102.671 232.399C102.476 232.749 102.273 233.094 102.063 233.434ZM124.336 219.152C124.454 220.194 124.425 221.208 124.176 222.193C124.128 222.383 124.071 222.577 124.006 222.775C124.831 220.755 125.434 218.616 125.815 216.36C125.375 217.295 124.882 218.226 124.336 219.152ZM57.1543 224.716C57.1954 224.868 57.2375 225.019 57.2813 225.169C58.6405 229.849 61.2453 234.001 64.814 237.174C68.8683 240.78 73.9143 242.957 79.8097 243.647C83.1827 244.04 86.1255 243.752 88.6731 243.046C87.8388 242.763 87.0438 242.409 86.2945 241.98C85.817 241.708 85.3386 241.358 84.8611 240.936C77.9266 241.859 71.1029 241.717 67.4287 237.374C66.3234 236.067 64.9571 234.278 63.7115 232.16C62.2548 230.933 60.8313 229.482 59.4828 227.842C58.6745 226.861 57.8956 225.814 57.1534 224.716H57.1543ZM85.0685 240.236C87.7923 239.862 90.5339 239.329 93.0967 238.83C94.6526 238.527 96.1343 238.24 97.5033 238.008C98.0639 237.48 98.5727 236.947 99.0333 236.426C97.8046 236.168 95.7408 235.994 93.1628 235.777C92.7086 235.739 92.24 235.699 91.7589 235.658C90.6895 236.798 89.502 237.76 88.2108 238.524C87.1002 239.182 85.9019 239.607 84.6268 239.802C84.7734 239.954 84.9201 240.098 85.0676 240.236H85.0685ZM116.45 225.917C116.443 226.458 116.417 226.983 116.373 227.49C118.021 226.25 119.46 224.857 120.67 223.324C121.8 221.89 122.798 220.453 123.662 219.006C123.459 217.503 122.944 215.923 122.351 214.287C121.211 215.845 119.819 217.447 118.284 219.078C118.391 219.945 118.35 221.02 118.089 222.347C117.836 223.633 117.263 224.829 116.45 225.917ZM108.352 231.741C111.075 230.757 113.526 229.505 115.657 228.01C115.707 227.6 115.744 227.178 115.767 226.742C114.001 228.691 111.453 230.228 108.681 231.208C108.571 231.388 108.462 231.565 108.352 231.741ZM89.8167 242.692C92.5387 241.762 94.7706 240.358 96.559 238.85C95.4994 239.041 94.3789 239.259 93.2174 239.485C90.8281 239.95 88.2868 240.444 85.7437 240.813C86.0325 241.037 86.3213 241.233 86.6101 241.398C87.5982 241.963 88.6731 242.395 89.8158 242.692H89.8167ZM100.261 235.986C103.288 236.41 105.126 235.099 106.719 232.983C106.024 233.195 105.315 233.391 104.59 233.569C103.601 233.812 102.593 234.023 101.57 234.199C101.456 234.371 101.339 234.541 101.22 234.71C100.936 235.114 100.617 235.543 100.261 235.986ZM116.273 228.383C115.977 230.533 115.316 232.301 114.321 233.507C114.304 233.528 114.287 233.548 114.27 233.569C114.698 233.245 115.126 232.904 115.555 232.547C119.599 229.175 122.811 224.946 123.549 222.025C123.705 221.406 123.765 220.767 123.751 220.112C122.984 221.327 122.125 222.537 121.174 223.744C119.812 225.469 118.167 227.022 116.273 228.383ZM98.6273 237.829C100.718 237.515 102.488 237.381 103.773 237.605C105.895 237.974 108.759 237.108 111.835 235.233C112.545 234.544 113.211 233.823 113.826 233.076C114.636 232.093 115.211 230.651 115.524 228.903C113.251 230.424 110.646 231.682 107.759 232.651C105.881 235.411 103.713 237.3 99.7674 236.582C99.4178 236.992 99.0377 237.41 98.6273 237.829ZM102.018 241.535C104.726 240.484 107.328 238.982 109.628 237.165C107.393 238.165 105.349 238.555 103.664 238.262C102.276 238.02 100.234 238.23 97.8002 238.634C96.0422 240.264 93.8049 241.846 91.0346 242.954C93.7673 243.421 96.8344 243.18 100.033 242.219L100.023 242.187C100.698 241.98 101.364 241.762 102.018 241.535ZM108.743 238.651C109.243 238.39 109.732 238.121 110.212 237.847C114.124 235.603 117.377 232.884 119.882 229.767C121.032 228.334 122.028 226.815 122.871 225.213C121.392 227.758 118.921 230.598 115.964 233.065C114.691 234.127 113.429 235.039 112.201 235.794C111.134 236.822 109.973 237.78 108.743 238.651ZM110.454 238.472C107.967 239.891 105.211 241.129 102.234 242.164C101.802 242.331 101.367 242.489 100.93 242.633C96.9534 243.95 93.1405 244.195 89.8489 243.387C87.0072 244.329 83.653 244.766 79.7364 244.309C73.7086 243.604 68.5446 241.374 64.3893 237.679C60.7266 234.422 58.0539 230.162 56.6589 225.361C56.4407 224.609 56.2565 223.852 56.1063 223.096C53.7707 219.311 51.8794 215.053 50.7045 210.846C48.8928 204.36 48.8758 198.445 50.6571 194.19C52.5483 189.674 55.3212 185.469 58.4661 182.351C59.9433 180.886 61.4921 179.666 63.0793 178.706C64.8659 175.904 66.9324 173.516 69.2421 171.591C72.3119 169.03 75.8377 167.265 79.723 166.343C98.1444 161.97 111.258 165.891 118.698 177.998C120.322 180.642 121.95 183.365 123.401 186.175C125.519 184.043 127.534 181.703 129.434 179.164C132.996 174.408 136.166 168.948 138.858 162.938C143.444 152.703 145.066 144.318 145.082 144.234L145.719 144.362C145.702 144.447 144.065 152.909 139.447 163.217C136.735 169.273 133.54 174.775 129.949 179.571C127.988 182.19 125.907 184.6 123.716 186.791C125.742 190.805 127.386 194.995 128.137 199.389C129.006 204.48 128.561 209.351 126.772 214.099C126.166 220.265 124.033 225.646 120.381 230.192C117.826 233.374 114.51 236.145 110.528 238.43C110.503 238.445 110.478 238.458 110.454 238.473V238.472Z" fill="#080435"/>
<path d="M191.759 165.039C186.021 167.519 174.668 168.81 165.338 168.504C159.524 168.313 152.392 169.789 149.676 170.512C147.542 171.083 139.28 174.229 137.432 173.589C136.346 173.209 135.999 169.104 136.753 167.473C138.368 163.976 143.207 161.662 151.556 158.9C159.514 156.269 162.486 153.493 164.307 150.217C164.935 149.087 178.278 152.371 174.72 144.013C172.933 139.815 183.425 130.226 185.801 131.763C205.46 144.491 191.759 165.038 191.759 165.038V165.039Z" fill="#FFA089"/>
<path d="M219.417 162.035C219.417 162.035 212.839 160.722 215.915 153.899C221.024 142.57 209.834 144.436 212.737 136.607C214.152 132.79 213.422 130.862 209.633 127.152C206.817 124.393 211.375 121.441 214.125 121.56C216.875 121.679 221.688 118.232 221.688 118.232C221.688 118.232 241.097 125.311 241.777 138.997C242.458 152.683 235.596 165.987 235.596 165.987L219.417 162.035Z" fill="#FCF1D5"/>
<defs>
<filter id="filter0_d_452_470" x="0.5" y="0.875" width="271" height="104" filterUnits="userSpaceOnUse" color-interpolation-filters="sRGB">
<feFlood flood-opacity="0" result="BackgroundImageFix"/>
<feColorMatrix in="SourceAlpha" type="matrix" values="0 0 0 0 0 0 0 0 0 0 0 0 0 0 0 0 0 0 127 0" result="hardAlpha"/>
<feOffset/>
<feGaussianBlur stdDeviation="15"/>
<feComposite in2="hardAlpha" operator="out"/>
<feColorMatrix type="matrix" values="0 0 0 0 0 0 0 0 0 0 0 0 0 0 0 0 0 0 0.1 0"/>
<feBlend mode="normal" in2="BackgroundImageFix" result="effect1_dropShadow_452_470"/>
<feBlend mode="normal" in="SourceGraphic" in2="effect1_dropShadow_452_470" result="shape"/>
</filter>
</defs>
</svg>
